<svg width="1440" height="1803" viewBox="0 0 1440 1803" fill="none" xmlns="http://www.w3.org/2000/svg">
<path fill-rule="evenodd" clip-rule="evenodd" d="M-246.887 711.115C-414.995 546.133 -507.731 325.723 -556.629 94.3126C-609.187 -154.421 -624.817 -411.959 -534.912 -651.97C-435.188 -918.194 -293.742 -1211.47 -28.7436 -1314.93C233.064 -1417.15 508.476 -1249.31 772.994 -1162.61C996.883 -1089.22 1230.89 -1026.57 1386.76 -850.932C1539.37 -678.978 1533.06 -431.627 1613.4 -215.642C1726.7 88.9809 2107.84 382.398 1953.41 672.574C1799.5 961.779 1342.92 828.247 1022.9 893.922C799.71 939.727 589.155 1030.9 364.787 998.598C135.339 965.565 -82.381 872.563 -246.887 711.115Z" fill="url(#paint0_linear)"/>
<defs>
<linearGradient id="paint0_linear" x1="562.5" y1="26.5001" x2="818.5" y2="913.5" gradientUnits="userSpaceOnUse">
<stop offset="0.0203605" stop-color="#5188F0"/>
<stop offset="0.846012" stop-color="#AE67C7"/>
</linearGradient>
</defs>
</svg>
