<svg width="208" height="208" viewBox="0 0 208 208" fill="none" xmlns="http://www.w3.org/2000/svg">
<g filter="url(#filter0_d)">
<rect x="4" width="200" height="200" rx="100" fill="#2DCAFC"/>
<path fill-rule="evenodd" clip-rule="evenodd" d="M106.771 34.2593C106.111 36.12 105.45 37.9811 104.79 39.8419C104.366 41.0344 103.943 42.2266 103.52 43.4191C103.369 43.8419 103.286 44.2756 102.996 44.5691C102.311 45.2602 101.083 45.7 100.26 46.1861C99.7095 46.5119 99.1583 46.8377 98.6074 47.1635C98.3232 47.3316 97.6933 47.5426 97.4941 47.8216C97.2751 48.129 97.3786 48.6935 97.3786 49.1186V52.7884V59.7033C100.225 59.3246 103.071 58.9461 105.917 58.5674C102.125 63.2239 98.3335 67.8802 94.5414 72.5367C93.6068 73.6842 92.4722 74.7887 91.7759 76.1239C90.294 78.9659 88.8453 81.8284 87.3805 84.6804C86.0169 87.335 84.6532 89.9898 83.2896 92.6444L95.5575 92.0887C98.7337 91.9449 101.997 92.1612 105.057 91.2032C107.58 90.4135 110.102 89.624 112.625 88.8344C112.961 88.7292 114.006 88.6104 114.244 88.323C114.466 88.0538 114.462 87.0367 114.525 86.6923C115.715 80.179 117.231 73.0015 120.706 67.395C123.198 63.3759 126.56 59.8571 129.639 56.3524C130.841 54.9846 132.064 53.6331 133.223 52.2237C133.52 51.8627 133.949 51.4531 134.145 51.0146C134.272 50.7313 134.449 50.1915 134.371 49.9401C134.336 49.831 133.544 49.4398 133.431 49.3621C132.628 48.813 131.832 48.2523 131.034 47.6944C128.793 46.1264 126.555 44.5545 124.301 43.0074C122.544 41.8011 120.791 40.5221 118.938 39.4855C117.017 38.4109 114.901 37.6546 112.887 36.8057C110.852 35.9476 108.813 35.0994 106.771 34.2593Z" fill="white"/>
<path fill-rule="evenodd" clip-rule="evenodd" d="M175.849 133.67C174.871 134.65 173.092 135.965 171.685 135.367C170.978 135.066 170.375 134.407 169.731 133.982C168.975 133.482 168.264 132.982 167.623 132.316C166.344 130.986 165.376 129.044 163.866 128.003C163.358 127.654 162.367 127.579 162.015 127.02C161.857 126.769 161.842 126.389 161.871 126.1C161.934 125.476 162.251 125.513 161.722 125.055H162.544C162.56 124.717 162.243 124.689 162.007 124.733C162.116 124.197 162.228 122.102 161.311 123.051C160.516 123.874 160.914 125.24 160.351 126.132C159.92 126.814 158.776 126.261 158.622 125.51C158.552 125.173 158.902 124.646 158.943 124.315C159.035 123.582 158.727 122.948 158.28 122.392C157.299 123.088 157.855 124.527 157.296 125.44C156.79 126.267 155.664 125.881 154.894 125.736C153.971 125.562 152.927 125.738 152.044 125.506C150.711 125.156 151.209 123.49 151.077 122.414C150.935 121.262 149.841 119.663 150.17 118.501C150.523 117.253 152.587 116.983 153.574 116.681C155.829 115.988 159.045 115.855 160.722 113.917C162.055 115.5 163.127 117.312 164.526 118.835C166.036 120.481 167.65 122 169.1 123.712C170.609 125.493 172.167 127.241 173.621 129.074C174.256 129.873 174.813 130.735 175.47 131.516C176.053 132.209 176.668 132.848 175.849 133.67ZM108.827 102.893C109.52 102.501 109.608 102.747 109.608 103.554C109.408 103.166 109.21 103.063 108.827 102.893ZM102.952 118.592V117.169C103.62 117.15 103.209 118.368 102.952 118.592ZM102.789 120.712C102.789 120.082 102.773 119.482 102.944 118.869C103.033 119.537 103.204 120.115 102.789 120.712ZM105.661 164.018C106.274 164.079 107.22 163.629 107.736 164.141C108.266 164.668 108.223 166.2 108.349 166.911C108.556 168.086 108.74 169.265 108.915 170.446C109.03 171.22 109.171 172.007 108.349 172.303C107.133 172.74 105.396 172.116 104.13 172.059C101.627 171.947 99.1252 171.791 96.6203 171.737C94.1925 171.685 91.7591 171.726 89.3424 171.995C88.2507 172.116 87.1832 172.331 86.1026 172.525C85.533 172.627 84.0069 173.055 83.4925 172.545C82.5246 171.583 84.1338 169.337 84.8258 168.703C86.1103 167.526 87.9369 166.677 89.5476 166.166C90.4083 165.893 91.8432 165.125 92.5212 165.983C93.0415 166.642 93.0207 167.52 93.7662 168.019C95.4934 169.174 94.4828 165.86 93.4035 165.452C94.1282 163.647 95.5096 166.195 96.0826 166.808C96.2864 167.025 96.9495 167.744 97.2374 167.383C97.453 167.112 97.0225 166.144 96.9426 165.88C96.8214 165.48 96.5146 164.871 96.6028 164.437C96.7625 163.651 97.7978 163.437 98.4179 163.372C99.3796 163.27 100.323 163.595 101.274 163.703C102.732 163.869 104.201 163.872 105.661 164.018ZM96.0051 90.0229C94.1067 90.1837 92.1963 89.8748 90.3024 90.1276C88.5105 90.3671 86.822 91.0672 85.1328 91.7104C87.6441 85.4423 90.8931 79.7362 94.8532 74.3909C96.8252 71.7285 98.9463 69.0846 101.077 66.565C102.069 65.3927 103.094 64.2593 104.118 63.12C105.031 62.1036 105.686 60.3775 106.782 59.6185C107.717 58.9706 109.352 59.4327 110.388 59.4729C111.56 59.5183 112.986 59.6317 114.129 59.2166C114.957 58.9158 115.185 58.1132 114.148 58.0866C112.925 58.0551 111.723 58.1907 110.484 58.0687C107.275 57.7531 104.182 57.2345 100.947 57.5287C100.206 57.5959 99.23 57.9319 98.5027 57.8311C97.9797 57.7581 98.3236 58.038 97.96 57.5914C97.8209 57.4205 97.6531 57.0189 97.6119 56.7919C97.3802 55.5172 98.038 53.6957 98.1953 52.4124C98.3409 51.2247 98.2119 49.9193 98.4843 48.7627C98.7324 47.7102 99.4885 47.5698 100.42 47.4574C102.967 47.1495 105.567 46.9857 108.126 46.7538C113.965 46.2244 119.99 45.4259 125.79 46.734C127.885 47.2063 130.439 47.9367 132.309 49.1062C132.895 49.4718 133.485 49.9023 133.272 50.6597C133.051 51.4459 131.969 52.2765 131.433 52.7945C127.471 56.622 123.645 60.5261 120.862 65.4373C117.312 71.6999 115.276 78.4637 114.081 85.6401C113.824 87.184 113.585 87.9921 112.092 88.4365C110.49 88.9138 108.944 89.2239 107.282 89.369C103.526 89.6973 99.759 89.7041 96.0051 90.0229ZM97.2771 48.549C96.9894 50.8287 96.5998 53.1035 96.5614 55.4011C96.5469 56.269 96.4696 56.7038 95.6025 56.8974C94.5801 57.1254 93.5408 57.2954 92.5138 57.5321C87.5572 58.6753 82.6943 60.0792 77.8451 61.6595C73.1323 63.1957 68.497 64.9238 63.6783 66.0618C61.6055 66.5514 59.1801 66.8812 57.2921 67.9651C55.2612 69.1314 55.5284 71.0436 55.3461 73.1439C55.1026 75.95 54.3206 78.6671 54.0457 81.4721C53.9142 82.8124 53.7944 84.1607 53.8143 85.5095C53.8311 86.6593 53.9859 87.9305 53.2597 88.8981C51.8027 86.8253 51.1122 84.2182 50.825 81.6777C50.6854 80.4427 50.7407 79.1978 50.7008 77.9571C50.6686 76.9582 50.6895 75.3693 50.0781 74.5351C48.749 72.7222 47.0206 79.9874 46.8562 80.7633C46.5798 82.0691 46.3518 83.3858 46.0764 84.6919C45.9543 85.2707 45.7976 87.3751 45.0688 87.5848C43.5585 88.0196 43.89 83.5031 43.8661 82.8154C43.8183 81.4273 43.7858 80.0376 43.8164 78.6484C43.8386 77.6457 44.0209 76.5575 43.9126 75.5543C43.6469 73.091 42.3453 75.6862 41.9795 76.6031C41.0549 78.9179 40.6367 81.3955 39.8076 83.7473C39.6697 84.1385 39.3457 85.4554 38.8323 85.48C38.261 85.507 38.2655 84.1469 38.2328 83.7495C38.0433 81.4462 37.4031 79.1589 37.5963 76.8317C37.7914 74.4817 38.5654 72.0659 39.6607 70.022C41.9765 65.7006 46.1584 63.2193 50.1639 60.9591C54.748 58.3729 59.5876 56.3296 64.5305 54.6651C70.4752 52.6632 76.5792 51.0434 82.7199 49.8907C85.8441 49.3043 89.0165 48.8849 92.1726 48.5487C93.2818 48.4306 94.3914 48.3615 95.4863 48.1368C95.8996 48.0519 97.3907 47.6482 97.2771 48.549ZM100.47 41.1713C98.9042 41.1845 97.3042 40.3764 95.7784 40.0424C93.9617 39.6444 92.1876 39.0685 90.3741 38.653C86.8231 37.8395 83.27 37.0462 79.7222 36.2147C78.182 35.8537 76.6343 35.5395 75.1001 35.1518C73.4587 34.7369 71.6854 34.2744 70.0054 34.7213C67.4589 35.3987 66.3832 38.3636 65.4482 40.6774C64.7877 42.3117 64.2703 44.1335 63.2403 45.5556C62.8736 46.0627 62.3522 46.6674 61.6873 46.5032C60.4519 46.1983 60.6481 44.4586 60.8054 43.4969C61.0334 42.1014 61.3564 40.7222 61.6149 39.333C61.7191 38.7723 62.5264 35.1027 61.0851 35.6708C60.0158 36.0922 59.4501 38.8679 59.0454 39.8593C58.7446 40.5961 58.4259 41.328 58.0884 42.0466C57.638 43.0051 56.3529 46.2076 54.9301 45.7946C52.894 45.2035 54.847 39.507 55.1939 38.3063C55.3843 37.6473 57.454 32.6492 55.7071 33.0576C54.9632 33.2319 54.2384 34.7024 53.8591 35.3119C53.1865 36.393 52.5159 37.4819 51.8828 38.5896C51.2315 39.7289 50.8989 41.0257 50.2529 42.1484C49.9131 42.7393 49.2195 43.5267 48.5424 42.9796C47.4868 42.1275 48.1125 39.1632 48.2973 38.0423C48.6412 35.9584 49.4956 33.8221 50.6677 32.1185C52.4291 29.5586 55.7526 28.7314 58.5473 28.2342C62.1548 27.5921 65.8124 27.7678 69.435 28.1476C73.5091 28.5749 77.5211 29.0325 81.5369 29.9062C85.5841 30.7867 89.6334 31.6603 93.6183 32.8248C95.4955 33.3734 97.3997 33.8598 99.2503 34.5039C101.218 35.1884 103.138 36.0402 105.16 36.5334C104.448 38.4224 103.737 40.3114 103.026 42.2006C102.345 41.4839 101.416 41.1631 100.47 41.1713ZM135.335 46.3767C135.959 46.0136 136.648 45.8423 136.876 45.0399C137.077 44.3309 136.733 43.5276 136.569 42.847C136.109 40.9414 135.988 38.9674 136.395 37.0393C136.784 37.6711 138.239 40.1013 139.125 38.6301C139.659 37.7427 138.228 36.4662 137.81 35.8423C138.727 35.2404 140.036 33.6247 141.092 34.599C141.775 35.229 142.064 35.8355 142.984 36.1418C144.1 36.5136 145.152 36.4285 146.292 36.3258C147.091 36.254 147.283 36.1406 147.595 36.7949C147.84 37.3092 147.966 37.9458 148.109 38.4981C148.391 39.5869 149.043 41.7324 148.271 42.7525C147.594 43.646 144.967 42.8799 144.602 44.0333C144.403 44.6624 145.353 44.6849 145.716 44.9961C146.165 45.3814 146.537 45.9945 146.781 46.5423C146.962 46.9473 147.237 47.6166 146.929 48.0308C146.504 48.6037 145.715 48.1691 145.373 47.7527C144.917 47.1995 144.77 46.4432 144.39 45.8407C143.693 44.7353 143.651 45.6147 143.462 46.4085C143.265 47.2331 142.798 47.1763 142.084 47.2822C140.831 47.4683 139.565 47.7306 138.346 48.088C137.72 48.2711 137.115 48.5044 136.519 48.777C136.136 48.9524 135.471 49.4838 135.055 49.4888C134.283 49.4981 133.749 48.1253 133.351 47.5525C134.011 47.1597 134.671 46.7633 135.335 46.3767ZM176.755 130.438C174.828 127.978 173.16 125.304 171.259 122.822C169.385 120.373 167.216 118.233 165.113 116.015C164.12 114.969 163.169 113.82 162.073 112.893C161.255 112.201 160.626 112.19 159.642 112.497C156.848 113.368 154.003 114.416 151.358 115.716C148.896 116.926 146.653 118.481 143.982 119.155C141.257 119.845 138.422 120.066 135.629 119.895C132.763 119.72 130.06 119.085 127.335 118.153C124.754 117.269 122.063 116.498 119.856 114.748C117.542 112.912 115.754 110.273 114.098 107.79C113.259 106.533 112.426 105.213 111.861 103.789C111.371 102.553 111.05 101.094 110.171 100.086C109.955 100.412 109.686 100.691 109.576 101.074C109.527 101.247 109.821 101.242 109.791 101.38C109.734 101.64 109.408 101.906 109.219 102.047C108.54 102.556 108.536 102.151 108.714 103.103C108.818 103.657 108.621 104.909 107.771 104.5C108.084 104.899 107.587 105.402 107.424 105.73C107.313 105.594 107.174 105.546 107.008 105.587C107.319 106.246 107.135 106.264 106.834 106.787C106.779 106.883 106.584 107.383 106.612 107.341C106.304 107.807 105.948 107.925 105.769 108.506C105.621 108.983 105.659 109.508 105.495 109.985C105.296 109.692 105.097 109.4 104.898 109.108C104.939 109.338 105.02 109.678 105.115 109.887C105.174 110.017 105.428 110.321 105.425 110.392C105.411 110.658 105.099 110.594 105.011 110.824C104.844 111.254 105.085 111.317 104.994 111.737C104.89 112.218 104.61 112.026 104.477 112.436C104.452 112.514 104.648 112.821 104.617 112.989C104.573 113.227 104.371 113.359 104.299 113.571C104.118 114.108 104.184 114.502 103.931 115.017C103.833 115.217 103.691 115.35 103.622 115.577C103.562 115.777 103.692 116.203 103.575 116.382C103.012 117.245 103.091 115.758 103.134 115.39C103.492 112.294 104.642 109.099 105.695 106.205C106.218 104.768 106.727 103.285 107.382 101.908C107.646 101.353 107.951 100.781 108.387 100.357C108.939 99.8205 109.721 99.6058 110.221 99.0065C110.142 99.101 110.762 98.4762 110.663 98.6816C110.752 98.498 110.597 98.2495 110.652 98.0719C110.72 97.8513 110.85 97.8049 110.994 97.6118C111.254 97.2651 111.562 97.0925 111.154 96.6508C111.759 96.5086 112.048 96.2999 112.169 95.6108C112.257 95.1067 112.079 95.1396 112.39 94.8036C112.702 94.4661 112.86 94.7296 113.056 94.1451C113.291 93.4456 113.447 92.4944 113.588 91.7624C113.711 91.1233 113.413 90.1835 113.919 89.7323C114.56 89.161 115.134 89.4029 115.019 88.2538C114.907 87.1336 115.234 86.455 115.562 85.395C116.218 83.2788 116.472 81.0445 117.047 78.9031C118.275 74.3332 120.443 70.2128 122.775 66.1901C124.93 62.473 127.943 59.3061 130.852 56.2563C131.648 55.4209 132.436 54.5735 133.151 53.6578C133.767 52.8692 134.048 51.7956 134.641 51.047C135 50.5924 135.67 50.398 136.172 50.1569C137.01 49.7548 138.008 49.2303 138.953 49.3116C138.578 50.6595 138.455 52.2345 139.564 53.2452C140.909 54.4713 142.128 53.1975 143.361 52.4985C145.609 51.2242 148.823 52.394 150.783 50.4841C151.249 50.0293 151.38 49.3025 151.865 48.8777C152.221 48.5662 152.727 48.4872 153.128 48.255C154.346 47.5496 154.937 46.2583 154.463 44.8318C154.029 43.5278 153.356 43.0755 154.855 42.4146C156.072 41.8785 156.535 41.0706 155.984 39.6324C155.459 38.2611 154.496 38.1032 153.586 37.2059C152.705 36.3367 153.718 35.3251 154.378 34.6727C155.23 33.831 155.392 33.0724 154.405 32.1971C153.371 31.2806 151.895 31.3127 150.689 31.7659C149.326 32.2782 148.428 33.1299 147.851 34.51C147.264 35.915 145.808 35.5229 144.629 35.1313C143.501 34.7569 143.207 33.9491 142.467 33.0792C141.643 32.1117 139.965 32.939 138.993 33.3811C136.601 34.4693 134.223 36.1867 134.128 39.2289C134.072 41.0429 134.792 42.5848 135.167 44.2875C135.51 45.8446 133.16 45.7219 132.753 47.2281C128.41 44.7819 123.575 44.0333 118.721 43.8668C113.562 43.6896 108.329 43.5476 103.214 44.4136C104.401 42.2122 105.028 39.7982 106.061 37.5366C106.358 36.8855 106.486 36.9412 107.142 37.1379C108.403 37.5157 109.654 37.9385 110.912 38.3277C115.508 39.7494 120.013 41.4623 124.457 43.3384C124.889 43.5208 125.853 44.0272 126.231 43.4765C126.668 42.8415 125.657 42.0587 125.249 41.7392C123.459 40.3423 121.242 39.4945 119.238 38.5144C114.857 36.3723 110.006 35.3556 105.435 33.7646C95.566 30.3294 85.3565 27.7205 75.1009 25.9973C72.5982 25.5768 70.0688 25.5153 67.5552 25.2031C65.3287 24.9266 63.0981 24.933 60.8718 25.2186C56.76 25.7463 51.9929 26.8849 49.6706 30.8906C47.5741 34.5073 46.1746 38.5735 46.7095 42.8636C46.8703 44.1521 47.383 45.6781 48.8771 45.3459C49.9135 45.1156 50.4639 44.1785 50.945 43.2638C51.6721 41.8821 52.3902 40.5004 53.1781 39.1558C53.4704 41.172 52.4084 43.1546 52.5753 45.2085C52.6889 46.6022 53.4125 48.8043 55.1128 48.4097C57.4433 47.869 58.4024 43.9944 59.5229 42.1357C59.5797 43.5674 59.1081 44.9784 59.2524 46.4132C59.3948 47.8306 60.4355 49.1687 61.8971 48.9745C63.2757 48.7914 64.1717 47.2195 64.7572 46.0361C65.572 44.3893 66.1574 42.6236 66.9532 40.9659C67.6991 39.412 68.5826 37.5621 70.3634 37.2702C71.9527 37.0094 73.774 37.613 75.3439 37.862C79.6985 38.5526 83.9653 39.7285 88.2723 40.6785C92.8903 41.697 97.6174 42.3156 102.093 43.959C100.519 46.2385 96.4011 45.746 94.0567 45.9907C90.514 46.3605 86.9257 46.6388 83.403 47.1845C79.9239 47.7234 76.5175 48.68 73.0655 49.3745C69.6316 50.0654 66.2037 50.7574 62.881 51.9355C56.7119 54.123 50.4399 56.8914 45.0045 60.7083C42.4756 62.4844 40.229 64.5142 38.6668 67.3176C37.0946 70.1385 36.3391 73.3284 36.0509 76.5732C35.8716 78.5937 36.1762 80.3423 36.5441 82.3088C36.8105 83.7325 36.8967 86.1163 37.9694 87.1588C40.0168 89.1487 41.7167 81.0774 42.0947 80.1026C42.3669 81.7001 41.9218 90.7001 45.2069 89.9681C46.673 89.6417 47.0056 87.5 47.2488 86.2101C47.6924 83.8586 48.0896 81.4598 48.8483 79.195C49.3352 82.2465 49.5382 85.4257 50.5872 88.3402C51.284 90.2757 53.2721 93.7102 54.6581 90.3966C55.6977 87.9115 55.341 85.0592 55.4657 82.4208C55.6038 79.497 56.3926 76.6768 56.6718 73.7816C56.78 72.66 56.682 71.396 57.7411 70.7839C58.6502 70.2587 59.9797 70.0876 60.9724 69.7943C63.9125 68.9256 66.8719 68.1271 69.7981 67.2054C72.7257 66.2831 75.6126 65.2055 78.5011 64.1539C81.2636 63.1482 84.0842 62.5764 86.8803 61.7152C88.47 61.2254 90.0405 60.7131 91.6524 60.3041C92.4025 60.114 93.1619 59.9659 93.9103 59.7689C94.4651 59.6231 95.196 59.0726 95.7664 59.0824C96.3535 59.0926 96.574 59.6215 97.2473 59.663C97.972 59.7076 98.7089 59.5374 99.4296 59.4786C101.185 59.3352 103.052 59.1035 104.803 59.3625C103.751 60.6915 102.329 61.6102 101.082 62.7111C99.6452 63.9808 98.2542 65.3518 97.0265 66.8512C94.5562 69.8682 92.2215 73.0571 90.0524 76.3255C87.9128 79.5499 86.1901 83.0782 84.6924 86.6831C83.9461 88.4794 83.2216 90.315 82.7061 92.2031C82.4943 92.9787 82.3214 93.7573 81.9391 94.4626C81.5883 95.1097 81.0941 95.6674 81.5087 96.4487C81.7941 96.2585 82.0505 96.0222 82.3086 95.7939C82.0103 98.0296 81.3667 100.192 81.0359 102.421C80.7097 104.617 80.7229 106.876 80.744 109.093C80.7884 113.738 81.1129 118.277 81.9982 122.833C82.8935 127.439 84.0437 132.011 85.494 136.455C86.8901 140.733 88.2911 145.22 90.2399 149.253C92.3212 153.56 94.7972 158.089 97.81 161.735C95.842 162.593 93.3375 162.432 91.2536 162.778C89.0754 163.139 87.1911 163.821 85.3347 165.104C83.4566 166.402 82.4371 168.073 82.1775 170.439C81.9931 172.124 81.4451 174.456 83.5217 174.899C85.0154 175.217 86.6851 174.694 88.1818 174.565C90.7998 174.339 93.4214 174.198 96.0454 174.076C98.6624 173.955 101.28 173.848 103.898 173.762C105.129 173.721 106.361 173.7 107.592 173.653C108.143 173.633 108.478 173.623 108.973 173.793C109.364 173.927 109.335 174.206 109.771 173.862C110.473 173.306 110.328 171.553 110.309 170.782C110.279 169.593 110.173 168.39 109.955 167.223C109.826 166.53 108.255 162.061 109.476 161.873C108.058 160.214 107.491 157.845 106.854 155.766C106.056 153.161 105.355 150.563 104.805 147.884C103.63 142.161 103.11 136.376 103.11 130.52C108.558 134.094 114.321 136.029 120.737 136.245C127.116 136.46 134.124 135.902 140.181 133.644C142.986 132.598 145.499 131.224 147.904 129.374C148.766 128.711 149.689 127.209 150.821 127.234C152.171 127.265 153.683 127.809 155.024 128.042C157.588 128.487 160.935 128.738 163.106 130.426C164.285 131.343 165.13 132.626 166.183 133.682C166.983 134.486 168.042 134.922 168.836 135.726C169.693 136.593 169.353 137.726 170.775 137.797C171.99 137.856 173.322 137.336 174.37 136.725C176.461 135.507 178.687 132.906 176.755 130.438Z" fill="black"/>
<path fill-rule="evenodd" clip-rule="evenodd" d="M156.659 72.4877C159.719 74.8007 163.228 76.3807 166.426 78.4637C167.226 78.9851 169.719 80.0676 169.695 81.0347C169.681 81.6002 168.932 82.3092 168.604 82.7011C168.042 83.3724 167.513 84.0507 166.994 84.7609C164.62 88.013 162.384 91.2957 159.811 94.3845C159.424 94.849 158.256 97.0675 157.88 95.9656C157.709 95.4661 157.85 94.9047 157.404 94.439C157.175 94.1991 156.29 94.0669 156.548 93.5523C156.72 93.6345 156.892 93.717 157.064 93.799C156.93 93.3878 156.94 92.9373 156.74 92.5486C156.616 92.3071 156.372 92.1929 156.288 91.9209C156.171 91.5452 156.369 91.1085 156.336 90.7212C156.303 90.335 156.115 89.9699 156.003 89.6055C155.337 87.4455 155.098 85.268 154.757 83.0393C154.42 80.8341 153.895 78.6979 153.689 76.4682C153.471 74.113 153.204 71.7626 152.847 69.4263C153.483 69.5212 153.972 70.2566 154.422 70.6723C155.129 71.3257 155.897 71.9112 156.659 72.4877ZM154.261 95.2891C154.115 95.1671 154 95.0172 153.918 94.8395C155.418 94.0489 154.513 95.3977 154.261 95.2891ZM153.349 93.603C152.695 93.7947 152.225 93.8335 151.721 93.5473C151.674 93.5203 151.729 93.311 151.642 93.2681C151.567 93.2308 151.452 93.277 151.388 93.242C151.168 93.1232 150.784 93.3835 150.747 92.9287C151.581 92.657 152.401 92.1556 153.282 92.0711C154.506 91.9539 154.449 93.2799 153.349 93.603ZM150.485 90.9813C149.593 91.2033 148.858 91.7217 147.911 91.5863C147.021 91.4595 146.248 90.9686 145.546 90.4029C147.302 89.874 149.143 89.7786 150.896 89.267C151.467 89.1005 152.218 88.6613 152.833 88.8383C153.517 89.0351 153.56 89.7166 153.765 90.3368C152.671 90.5463 151.568 90.7119 150.485 90.9813ZM144.907 88.3497C144.05 88.5675 143.174 89.0439 142.457 88.2218C142.342 88.0891 142.241 88.2215 142.254 87.8128C142.269 87.3819 142.636 87.1043 142.952 86.9525C143.696 86.5958 144.738 86.8264 145.527 86.7739C146.786 86.6906 148.068 86.412 149.314 86.1976C150.176 86.0492 151.067 85.7198 151.948 85.7848C152.629 85.835 153.45 86.4523 152.458 86.9025C151.555 87.3128 150.2 87.2499 149.222 87.4275C147.775 87.6902 146.334 87.9866 144.907 88.3497ZM144.07 84.0596C144.125 84.1198 144.181 84.18 144.236 84.2402C144.227 84.2379 144.565 83.9469 144.654 83.9385C145.089 83.8983 145.525 83.9301 145.961 83.904C146.963 83.8438 147.973 83.6579 148.958 83.4533C149.76 83.2865 150.577 82.9991 151.402 83.0711C152.117 83.1334 152.192 83.2892 152.239 84.0233C150.415 84.0233 148.535 83.9824 146.742 84.3933C145.575 84.6607 144.289 85.4572 143.704 84.0214C143.826 84.0342 143.948 84.0469 144.07 84.0596ZM145.21 80.952C145.663 81.3187 146.896 80.7089 147.438 80.648C148.027 80.5817 148.581 80.5129 149.151 80.3568C149.657 80.2182 151.331 79.5262 151.719 80.188C152.314 81.2019 149.905 81.388 149.523 81.4382C147.921 81.6488 146.26 81.8355 144.701 82.2826C144.871 81.8391 145.04 81.3957 145.21 80.952ZM147.407 77.5082C147.524 77.9769 151.146 76.2498 151.212 77.505C151.263 78.468 147.629 78.9478 146.975 78.8633C147.128 78.4199 147.535 78.0228 147.407 77.5082ZM148.623 74.5623C148.7 73.6171 148.82 73.6225 149.532 73.5335C150.075 73.4655 150.822 73.1266 150.681 74.1571C150.56 75.0394 148.546 75.5163 148.623 74.5623ZM149.918 71.3098C150.089 70.8023 150.475 71.4854 150.483 71.7435C150.505 72.4303 150.016 72.2817 149.545 72.2817C149.676 71.9609 149.8 71.6365 149.918 71.3098ZM155.88 67.5002C155.784 67.3771 155.244 67.3301 155.091 67.2703C154.713 67.1231 154.767 66.8094 154.284 67.1188C154.26 67.0929 154.306 66.8603 154.28 66.8496C154.266 66.8441 153.928 66.7083 153.818 66.6333C153.553 66.4525 153.314 66.2755 153.07 66.0486C152.811 65.8075 152.551 65.4577 152.255 65.2657C152.13 65.1848 152.028 65.0701 151.878 65.0453C151.487 64.9813 151.599 65.2707 151.258 65.3282C151.048 65.3636 150.894 65.1024 150.62 65.215C150.382 65.3123 150.244 65.6669 150.138 65.878C149.753 66.646 149.456 67.4728 149.08 68.249C147.153 72.2185 144.963 76.0374 143.096 80.044C142.197 81.9741 141.259 83.9176 140.627 85.9688C140.171 87.4482 139.14 89.6094 140.027 91.0876C140.671 92.1624 141.962 92.6265 142.991 93.1459C144.54 93.9274 145.968 94.9488 147.535 95.7064C149.402 96.6099 151.216 97.555 153.036 98.5639C153.813 98.9942 154.513 99.6139 155.287 100.021C155.761 100.271 156.491 99.8454 156.646 100.417C157.239 99.6521 158.199 100.162 158.885 99.6235C159.289 99.3068 159.584 98.6829 159.921 98.2929C160.426 97.7081 160.974 97.1656 161.489 96.5911C163.535 94.309 165.423 91.9323 167.284 89.4812C169.061 87.1406 171.138 84.9292 172.639 82.3671C173.235 81.35 173.343 80.2834 172.95 79.1598C172.663 78.3401 171.97 77.1024 170.982 77.6452C171.357 76.9827 169.911 76.2753 169.472 76.1458C169.465 76.144 169.379 76.6529 169.257 76.6401C169.3 76.6447 168.889 75.5126 168.708 75.3675C168.172 74.9356 167.52 74.4317 166.935 74.0762C166.398 73.7502 165.832 73.5887 165.312 73.2238C164.682 72.7817 164.103 72.2574 163.471 71.8182C162.86 71.3943 162.179 70.8932 161.504 70.6017C160.919 70.3488 160.393 70.2993 159.867 69.8849C159.215 69.3722 158.647 69.0244 157.895 68.6711C157.245 68.3656 156.345 68.0986 155.88 67.5002Z" fill="black"/>
<path fill-rule="evenodd" clip-rule="evenodd" d="M67.1492 128.893C67.2687 128.595 67.3878 128.296 67.5074 127.997C67.6551 128.518 67.6965 128.777 67.1492 128.893ZM67.3082 130.273C67.0493 130.323 67.1513 129.458 67.1513 129.308C67.5985 129.577 67.2282 129.9 67.3082 130.273ZM66.9045 127.78C67.1253 127.641 67.346 127.502 67.5667 127.363C67.2593 127.97 67.3799 127.591 67.5068 127.996C67.2749 128.067 67.0495 127.984 66.9045 127.78ZM65.5964 132.517C64.769 135.712 62.1409 138.231 59.3652 139.536C57.7701 140.286 56.202 140.474 54.4795 140.39C53.8152 140.358 53.0334 140.128 52.3941 140.171C51.9018 140.204 51.924 140.227 51.5163 140.67C51.3359 140.317 51.4666 140.068 51.1047 139.863C50.6532 139.606 50.4658 139.905 50.2419 140.26C49.9488 139.937 49.8288 139.768 49.449 139.576C49.461 139.582 49.0855 139.567 49.1009 139.572C49.033 139.55 48.6246 139.271 48.4967 139.22C47.972 139.01 47.3654 138.924 46.8812 138.624C46.4577 138.361 46.1089 137.624 45.6243 138.191C45.6239 137.245 44.4265 136.852 43.8653 136.357C42.9883 135.583 42.2912 134.436 41.854 133.327C41.3877 132.145 41.2321 131.011 41.014 129.793C40.8615 128.941 39.8633 127.71 40.4628 126.851C40.6056 127.211 40.5386 127.58 40.7757 127.907C40.9892 127.469 41.1066 126.979 41.2031 126.5C41.2505 126.266 41.525 125.577 41.4938 125.372C41.4304 124.954 40.9437 124.931 41.2136 124.418C41.7733 125.066 42.225 123.928 41.8021 123.475C41.5933 123.725 41.5167 124.01 41.4204 124.32C40.8701 123.138 42.3932 123.519 42.06 122.451C42.6158 122.338 42.9354 122.188 43.1467 121.604C43.3818 120.954 43.2089 120.812 43.7425 120.382C43.9261 120.234 44.4453 120.022 44.5403 119.779C44.7241 119.309 44.2564 119.17 44.666 118.73C44.8043 118.988 45.3436 119.5 45.6388 119.013C45.6979 118.916 45.4497 118.847 45.6303 118.624C45.8977 118.293 46.197 117.968 46.6494 118.038C46.2912 117.085 48.58 117.009 49.1662 116.785C49.7537 116.559 50.2521 116.412 50.875 116.359C51.4973 116.307 51.5282 116.113 52.0551 115.714C52.0997 116.285 52.2286 116.159 52.6097 116.26C52.7013 116.093 52.7952 116.074 52.8913 116.204C52.9869 116.3 53.1039 116.346 53.2418 116.34C53.451 116.352 53.6884 116.323 53.9076 116.328C54.4223 116.338 54.9532 116.293 55.458 116.304C55.5882 116.281 55.7099 116.233 55.8239 116.16C55.8715 116.255 55.9193 116.351 55.9667 116.446C56.2342 116.482 56.2549 116.839 56.5839 116.449C56.6812 116.944 56.9609 116.686 57.2563 116.821C57.5257 116.944 57.5686 117.14 57.8173 117.277C57.9808 117.418 58.1561 117.437 58.3435 117.333C58.5218 117.474 58.7028 117.611 58.8864 117.743C59.2247 117.946 59.6235 118.071 59.98 118.231C60.2171 118.336 60.4528 118.444 60.6866 118.556C60.6936 118.856 60.8202 118.963 61.0661 118.874C61.2883 119.072 61.3509 119.064 61.5665 119.401C62.0549 120.165 62.4883 120.758 63.1052 121.44C65.7866 124.407 66.6104 128.602 65.5964 132.517ZM66.4193 119.901C65.2087 118.175 63.4952 116.2 61.9554 115.11C61.175 114.558 60.0795 113.566 59.125 113.274C58.8988 113.205 58.6646 113.2 58.4421 113.127C58.2703 113.071 58.1768 112.884 57.9808 112.85C57.8438 112.826 57.8286 113.153 57.683 113.123C57.3786 113.059 57.1857 112.738 56.9707 112.537C56.5089 113.384 56.2583 111.96 55.5804 112.917C54.7734 111.571 52.8778 111.865 51.5893 111.933C51.2072 111.953 51.0277 112.098 50.6889 112.205C50.3736 112.305 50.3424 112.279 49.9981 112.276C49.1406 112.269 48.3793 112.384 47.5867 112.785C46.2551 113.458 45.0328 114.507 43.7679 115.318C42.3543 116.225 41.0801 117.379 39.9987 118.705C36.0892 123.5 35.0438 130.498 38.1611 136.057C43.1126 144.885 55.8848 145.829 63.1221 139.839C68.7135 135.21 70.8414 126.201 66.4193 119.901Z" fill="black"/>
<path fill-rule="evenodd" clip-rule="evenodd" d="M127.705 95.0573C127.566 95.4101 126.268 95.2913 126.239 94.8753C126.197 94.2537 127.946 94.4441 127.705 95.0573ZM129.083 94.8265C129.818 94.8901 131.027 95.4217 131.735 95.1004C132.817 94.6102 131.681 93.8578 131.101 93.6329C130.51 93.4041 129.631 93.5256 129.327 92.8686C129.099 92.3745 129.663 90.9951 128.963 91.2168C128.228 91.4494 128.442 93.4254 127.289 92.7594C126.739 92.4415 126.964 90.5055 126.042 91.4946C125.79 91.7652 125.768 92.2621 125.434 92.4638C125.094 92.6698 124.666 92.4552 124.307 92.4731C123.354 92.5206 123.051 93.4686 124.016 93.8446C124.373 93.9839 125.719 94.1538 124.904 94.7749C124.39 95.1661 123.249 94.3451 122.807 95.0262C122.201 95.9617 123.825 95.9828 124.262 96.2627C125.001 96.7366 124.39 97.8436 124.449 98.6319C124.54 99.8365 125.197 99.5847 125.436 98.5654C125.639 97.7005 125.388 96.4556 126.613 96.7993C128.608 97.3591 125.503 100.055 126.965 100.744C127.896 101.184 128.028 98.8066 128.101 98.3973C128.369 96.8863 129.166 97.2389 130.374 97.2852C131.786 97.3393 132.127 96.2282 130.632 95.9099C130.155 95.8083 129.499 95.9367 129.085 95.6134C128.84 95.4223 128.503 94.7765 129.083 94.8265Z" fill="black"/>
<path fill-rule="evenodd" clip-rule="evenodd" d="M76.9691 144.191C75.8268 143.756 73.9158 143.85 73.6332 145.42C73.5149 146.077 73.7452 146.772 74.1717 147.25C74.6663 147.804 75.4541 147.855 75.412 146.891C75.3828 146.224 74.7861 145.644 75.8351 145.51C76.4879 145.426 77.4534 145.945 77.4859 146.713C77.5593 148.443 74.7458 148.578 73.7089 148.279C71.6511 147.686 72.2102 145.392 73.6233 144.345C73.9884 144.074 75.0359 143.658 75.0837 143.096C75.1473 142.351 74.2815 142.503 73.8571 142.601C70.7376 143.324 70.0577 148.885 73.3172 149.934C74.7974 150.41 76.882 149.918 77.7741 148.491C78.6104 147.154 78.6217 144.821 76.9691 144.191Z" fill="black"/>
<path fill-rule="evenodd" clip-rule="evenodd" d="M35.6084 104.822C34.6333 105.322 33.6582 105.821 32.6832 106.321C32.3609 105.587 31.8163 103.581 30.9988 103.325C29.6752 102.911 30.518 105.097 30.7464 105.597C30.9341 106.007 31.3693 106.643 31.2637 107.133C31.1219 107.792 30.248 108.025 29.7905 108.365C28.6585 109.207 28.6674 110.975 30.3069 110.226C31.2346 109.802 32.3833 108.626 33.0944 109.961C33.4227 110.577 34.2006 114.02 35.0131 111.769C35.5158 110.375 33.0961 108.927 34.289 107.748C34.673 107.368 35.1226 107.336 35.5062 107.118C36.4326 106.591 35.9103 105.618 35.6084 104.822Z" fill="black"/>
<path fill-rule="evenodd" clip-rule="evenodd" d="M178.567 54.9468C177.986 54.7205 177.266 54.2787 176.62 54.4293C175.933 54.5892 175.657 55.3212 175.158 55.7612C173.8 56.9578 173.01 55.1744 172.264 54.1971C171.559 53.2743 170.7 53.0503 169.706 53.6173C169.31 53.8434 167.642 54.8791 167.933 55.5427C168.142 56.0202 168.966 55.5915 169.247 55.4873C169.857 55.2612 170.424 55.0633 171.048 55.393C172.219 56.0109 172.523 57.7054 173.94 57.9697C175.404 58.243 175.452 56.7595 176.498 56.2011C177.199 55.8269 177.687 56.4894 178.363 56.3574C179.007 56.2317 179.305 55.234 178.567 54.9468Z" fill="black"/>
<path fill-rule="evenodd" clip-rule="evenodd" d="M166.741 60.9256C167.259 61.0453 167.597 59.976 167.921 59.7047C168.459 59.2551 169.392 59.1645 169.939 59.617C171.009 60.5003 170.64 62.4072 172.164 62.9043C173.525 63.3487 174.166 61.4406 175.312 60.9656C175.978 60.6893 176.71 60.5085 176.45 59.5173C176.27 58.8319 175.741 58.6558 175.166 58.9191C174.178 59.3712 173.842 61.213 172.67 61.2459C171.458 61.28 171.327 59.4201 170.806 58.6099C170.013 57.3752 168.381 57.0769 167.455 58.2576C167.175 58.6138 165.754 60.6982 166.741 60.9256Z" fill="black"/>
<path fill-rule="evenodd" clip-rule="evenodd" d="M142.777 39.8408C143.498 40.3656 144.934 40.3474 145.598 39.6966C146.274 39.0343 145.372 38.9325 144.821 38.9528C144.398 38.9684 143.606 39.1918 143.847 38.4137C144.061 37.7233 145.238 38.0747 145.336 37.3168C144.45 37.1478 143.475 37.2087 142.82 37.9495C142.346 38.485 142.103 39.3494 142.777 39.8408Z" fill="black"/>
</g>
<defs>
<filter id="filter0_d" x="0" y="0" width="208" height="208" filterUnits="userSpaceOnUse" color-interpolation-filters="sRGB">
<feFlood flood-opacity="0" result="BackgroundImageFix"/>
<feColorMatrix in="SourceAlpha" type="matrix" values="0 0 0 0 0 0 0 0 0 0 0 0 0 0 0 0 0 0 127 0"/>
<feOffset dy="4"/>
<feGaussianBlur stdDeviation="2"/>
<feColorMatrix type="matrix" values="0 0 0 0 0 0 0 0 0 0 0 0 0 0 0 0 0 0 0.25 0"/>
<feBlend mode="normal" in2="BackgroundImageFix" result="effect1_dropShadow"/>
<feBlend mode="normal" in="SourceGraphic" in2="effect1_dropShadow" result="shape"/>
</filter>
</defs>
</svg>
