<svg width="100" height="100" viewBox="0 0 100 100" fill="none" xmlns="http://www.w3.org/2000/svg">
<path fill-rule="evenodd" clip-rule="evenodd" d="M81.6556 22.5167C81.684 23.2539 81.7246 23.5469 82.1136 24.0225C82.2432 24.1809 82.3487 24.1716 82.4294 24.1645C82.5386 24.1547 82.6023 24.1491 82.6189 24.5674C82.6293 24.8309 82.5054 25.0122 82.3806 25.1945C82.3067 25.3026 82.2324 25.411 82.1858 25.5373C81.5806 27.1721 81.9646 29.2679 82.2687 30.9274L82.2688 30.928C82.2792 30.9842 82.2893 31.04 82.2994 31.0952C82.4528 31.9346 82.6604 32.7922 82.8705 33.6596C83.5149 36.3207 84.1821 39.0756 83.3728 41.6931C83.3379 41.8058 83.3052 41.9611 83.27 42.1287C83.1959 42.4812 83.1104 42.888 82.9687 43.0697C82.6931 42.8738 82.4919 42.9595 82.365 43.3265C82.2888 43.4416 82.2127 43.5567 82.1366 43.6717C81.6543 44.2716 81.141 44.4946 80.5008 44.1757C79.2102 43.533 78.9968 41.5167 78.9901 39.9293C78.9825 38.1798 79.2595 36.3475 79.5556 34.6431C79.5673 34.5758 79.5795 34.5075 79.5918 34.4387C79.7301 33.6673 79.8843 32.8062 79.5091 32.0955C79.2749 31.6519 79.0073 31.6291 78.7482 31.6069C78.5799 31.5925 78.4154 31.5785 78.2658 31.45C78.065 31.2776 78.1072 30.5623 78.1522 29.8024C78.1978 29.0307 78.2462 28.213 78.0452 27.8718C77.3489 26.6894 77.1064 29.5818 77.0952 30.1725C77.0831 30.8196 77.1092 31.5746 77.3359 32.1612C77.4175 32.3722 77.5834 32.5714 77.7486 32.77C77.9443 33.0051 78.1394 33.2394 78.1933 33.4917C78.2539 33.7746 78.1021 34.352 77.9714 34.8492C77.9013 35.1159 77.8373 35.3595 77.8153 35.5224C77.7182 36.2413 77.6845 36.9757 77.6566 37.7043C77.5626 40.1658 77.8497 42.7563 79.1093 44.6664C79.6616 45.5041 80.5977 46.4553 81.4733 46.3028C82.047 46.2027 82.6228 45.8677 83.1764 45.5455C83.3686 45.4337 83.5582 45.3234 83.744 45.2252C84.2288 47.7304 84.9571 50.1567 85.733 52.5226C85.9783 53.2706 86.2182 54.0252 86.4583 54.7803L86.4584 54.7804C86.8784 56.1014 87.299 57.4244 87.7498 58.717C88.714 61.4822 90.0664 63.9829 91.4135 66.4738C92.1522 67.84 92.8894 69.203 93.56 70.6052C95.3882 74.4274 96.4134 78.8135 96.6592 83.3258C96.6829 83.7601 96.6585 84.2598 96.6337 84.7668C96.5977 85.505 96.5609 86.259 96.6705 86.8505C96.7017 87.0189 96.7322 87.1701 96.7606 87.311C96.8899 87.952 96.9753 88.3757 96.8823 89.212C96.8491 89.5111 96.8076 89.804 96.7665 90.0944C96.6516 90.9046 96.5398 91.6951 96.617 92.5442C96.6382 92.7777 96.6735 93.0374 96.7106 93.3106V93.3107C96.836 94.2337 96.9821 95.3084 96.6764 96.0401C96.5303 95.8307 96.3843 95.6553 96.2438 95.4865C95.9264 95.1053 95.6369 94.7575 95.4368 94.1268C95.3466 93.8426 95.295 93.5738 95.2475 93.3263C95.1408 92.7696 95.0544 92.3196 94.5946 92.0389C94.3826 91.9094 94.193 91.8388 94.0126 91.7716L94.0125 91.7715C93.7097 91.6589 93.4327 91.5556 93.1189 91.2001C92.5104 90.5107 92.0958 89.6681 91.796 88.6811C91.2843 86.9968 91.2103 85.1709 91.6428 83.4412C91.9897 82.0543 93.0028 79.4582 94.4232 80.3875C94.3807 80.27 94.341 80.1506 94.3015 80.0315C94.1449 79.5596 93.9907 79.0946 93.6693 78.7923C93.5006 78.6335 93.2917 78.5262 93.0768 78.416H93.0767C92.845 78.297 92.6063 78.1745 92.4032 77.9799C91.9656 77.5607 91.4702 77.1132 90.9818 76.8066C90.8327 76.713 90.69 76.6561 90.5406 76.5964L90.5379 76.5954L90.5089 76.5837L90.4827 76.5732L90.465 76.5661C90.449 76.5596 90.433 76.5531 90.4168 76.5464C90.2314 76.4695 89.9148 76.4967 89.7753 76.5088C89.7379 76.5121 89.7133 76.5142 89.7071 76.513C88.8682 76.3424 87.9326 75.7991 87.4203 74.9805C87.0347 74.3643 86.6939 73.7891 86.3995 73.084C86.0581 72.2666 85.9044 72.2235 85.353 72.0687C85.287 72.0501 85.2154 72.0301 85.137 72.0069C84.0715 71.6913 83.3953 71.4759 82.543 70.4126C81.6231 69.2647 80.9432 67.842 80.2698 66.4328L80.2142 66.3164C79.8714 65.5991 79.5637 65.4515 79.0772 65.2181H79.077C78.9884 65.1755 78.8939 65.1302 78.7922 65.0781C78.6159 64.9878 78.4084 64.7533 78.2018 64.5196H78.2017C77.9583 64.2444 77.7158 63.9703 77.5267 63.935C77.4711 63.9245 77.2993 64.0097 77.1289 64.0942C76.9901 64.163 76.8523 64.2314 76.779 64.2473C76.4868 64.311 76.2331 64.2996 75.9403 64.2583C75.2686 64.1634 74.6749 63.9242 74.2233 63.2171C72.8324 61.0399 72.4083 55.9076 74.3126 54.0553C74.4274 53.9438 74.5563 53.8511 74.6859 53.7584C74.966 53.5574 75.2485 53.3547 75.3949 52.9539C75.5989 52.3953 75.5563 51.4267 75.5247 50.7082C75.5183 50.5616 75.5123 50.4254 75.509 50.3053C75.4867 49.496 75.4584 48.6152 75.3685 47.8175C75.3271 47.4508 75.2963 47.2966 75.1851 46.9294C75.0004 46.3198 74.9249 46.2949 74.6386 46.2002C74.5829 46.1817 74.5192 46.1607 74.4453 46.1323C74.3088 46.0798 74.188 46.0426 74.0787 46.009C73.669 45.8829 73.4201 45.8066 73.1064 45.1531C72.7893 44.4928 72.641 43.661 72.6122 42.8803C72.602 42.6014 72.6313 42.3307 72.6602 42.0657C72.7067 41.6385 72.7515 41.2262 72.6256 40.8191C72.4942 40.3938 72.3132 40.0141 72.131 39.6322C71.8996 39.1468 71.6665 38.6576 71.5307 38.0664C71.5147 37.9972 71.4969 37.9214 71.4778 37.84C71.2503 36.8748 70.8383 35.1267 71.3186 34.3696C71.4209 34.2083 71.558 34.1074 71.6991 34.0034C71.8801 33.8702 72.0677 33.732 72.1977 33.4556C72.2597 33.3236 72.316 33.2009 72.3692 33.0852C72.6611 32.449 72.8556 32.0255 73.3618 31.4539C73.501 31.2967 73.6384 31.1151 73.778 30.9309C74.0812 30.5305 74.3948 30.1163 74.759 29.9076C75.0576 29.7364 75.3467 29.8202 75.6188 29.8991C75.8235 29.9584 76.0186 30.0148 76.2009 29.9581C76.5205 29.8584 76.5615 29.139 76.5984 28.4891C76.615 28.1976 76.6308 27.9201 76.6706 27.7187C76.8439 26.8417 77.2155 25.9273 77.6654 25.2429C77.7259 25.1509 77.7924 25.0887 77.8578 25.0276C77.9551 24.9368 78.0501 24.848 78.12 24.6664C78.2062 24.4425 78.227 24.1668 78.2478 23.8895C78.2653 23.6572 78.2829 23.4235 78.3392 23.2184C78.4868 22.6807 78.8449 21.7549 79.2452 21.4602C79.9026 20.976 80.3015 21.4653 80.6828 21.9331C80.9798 22.2974 81.2661 22.6487 81.6556 22.5167ZM96.7965 66.2664C98.0897 67.263 97.807 69.9611 97.6359 71.5936C97.63 71.6501 97.6242 71.7055 97.6186 71.7593C97.5578 72.3447 97.6105 72.936 97.6623 73.5169C97.6997 73.9367 97.7366 74.351 97.7299 74.7535C97.7186 75.4253 97.5536 75.594 97.3663 75.7857C97.2515 75.903 97.1283 76.0291 97.0269 76.2842C96.9516 76.0198 96.856 75.738 96.7579 75.4486C96.5534 74.8459 96.3379 74.2106 96.2725 73.633L96.1187 73.0923C96.249 73.022 96.3182 72.8998 96.3262 72.7256C96.3676 72.4124 96.3772 72.0943 96.3868 71.7753V71.7752C96.39 71.6725 96.3931 71.5696 96.3973 71.4668C96.4681 69.7215 96.5663 67.9875 96.7965 66.2664ZM70.8885 43.5711V43.5709V43.5708L70.8889 43.5696C70.8988 43.5233 70.9087 43.4771 70.9187 43.432C70.8974 42.7184 70.778 41.2434 70.1773 40.903C69.4224 40.4751 69.2 41.667 69.22 42.4636C69.2358 43.0989 69.4355 44.2618 69.9013 44.6151C70.5567 45.1118 70.7328 44.2945 70.8885 43.5711ZM69.9658 63.9925V63.9927C69.9798 65.2953 69.9937 66.5832 70.2893 67.8425C70.6369 69.3233 71.2195 70.7504 71.7961 72.0893C72.9171 74.6917 73.1845 77.1462 73.3196 80.1223C71.2113 78.8518 70.0616 74.5104 69.366 71.7947C69.2678 71.4111 69.1685 71.0276 69.0693 70.6437L69.0692 70.6434V70.6433C68.7964 69.5885 68.5231 68.5321 68.2683 67.4715C68.2196 67.2685 68.1656 67.0567 68.1098 66.8383V66.8382C67.7738 65.5216 67.377 63.9669 67.7188 62.6779C67.7441 62.7029 67.7689 62.7275 67.7932 62.7516L67.795 62.7534C68.5072 63.4597 68.8309 63.7806 69.2558 62.4938C69.4239 62.7418 69.5921 62.9898 69.7603 63.2377L69.9603 63.5326C69.9625 63.6858 69.9641 63.8388 69.9658 63.9916V63.9918V63.9919V63.9921V63.9922V63.9924V63.9925ZM66.9185 49.3051C66.8035 50.0126 66.7132 50.7209 66.6279 51.4355C66.6539 51.5088 66.6797 51.5832 66.7058 51.6582H66.7059C66.9918 52.4811 67.3032 53.3767 68.0276 53.5982C68.1434 53.6336 68.2525 53.6147 68.3602 53.5959C68.4915 53.5729 68.6211 53.5503 68.7593 53.6268C68.9446 53.7293 69.0789 53.9602 69.2107 54.187C69.2972 54.3361 69.3829 54.4833 69.4813 54.5913C70.63 55.8533 71.9148 53.4896 71.2881 52.1624C70.5287 53.2533 69.6749 52.8945 69.4004 51.4119C69.1389 50 69.5231 48.2386 70.0766 47.0462C69.0549 46.4257 68.4302 46.467 67.5221 47.3016C67.4932 47.3282 67.4669 47.3521 67.443 47.3737L67.4428 47.374C67.3323 47.474 67.2723 47.5285 67.2323 47.6026C67.1845 47.6912 67.1654 47.808 67.1238 48.0643V48.0644L67.1236 48.0652C67.118 48.1 67.112 48.1372 67.1053 48.1773C67.0799 48.3317 67.0541 48.486 67.0284 48.6404V48.6405V48.6408C66.9914 48.8622 66.9546 49.0836 66.9185 49.3051ZM83.6587 77.2805L83.6586 77.2807C83.5098 77.4297 83.3606 77.579 83.2303 77.7556C83.1767 77.8282 83.0905 78.0021 83.0035 78.1774C82.8973 78.3914 82.7902 78.6075 82.74 78.6446C82.3753 78.9159 82.0567 78.5677 81.7004 78.1302C80.999 77.2686 80.5611 75.4398 80.594 74.1752C80.6324 72.6981 81.4088 71.6844 82.3931 72.7376C83.1847 73.5845 83.4136 74.7766 83.6452 75.9826C83.7147 76.3449 83.7846 76.7083 83.8699 77.0641C83.801 77.1382 83.7299 77.2094 83.6587 77.2805ZM78.7925 93.1699C79.5859 93.0333 80.1077 93.199 80.888 93.4581C81.1194 92.1651 80.8765 90.483 80.2389 89.4358C80.0967 89.2021 79.8837 89.0207 79.6836 88.8502C79.4649 88.6639 79.2615 88.4906 79.1825 88.2765C79.0827 88.006 79.0606 87.6122 79.038 87.2129C79.0177 86.8519 78.9971 86.4864 78.9188 86.2026C78.7873 88.5454 78.7124 90.8263 78.7925 93.1699ZM67.3187 91.0996C67.5687 90.4283 67.8189 89.7569 68.0691 89.0857C68.2319 89.4331 68.71 90.3405 69.1048 90.0502C69.2857 89.9173 69.2678 89.3396 69.2512 88.8081C69.2406 88.4655 69.2306 88.142 69.2747 87.9689C69.8056 88.7653 70.069 89.7038 69.9923 90.7683C69.9649 91.1473 69.8788 91.6785 69.7958 92.0426C69.764 92.1815 69.6885 92.3626 69.611 92.5487C69.4654 92.8977 69.3125 93.2646 69.4273 93.4043C69.3336 93.3967 69.2371 93.3935 69.1395 93.3901H69.1394C68.7201 93.3756 68.2826 93.3605 67.9932 93.0111C67.6969 92.6536 67.483 91.7746 67.3497 91.2266C67.3388 91.1819 67.3285 91.1395 67.3187 91.0996ZM77.7184 86.4965C77.7751 85.5395 77.7631 84.6157 77.7389 83.6555C76.8945 82.8894 75.8104 82.7396 75.7787 84.4997C75.7489 86.1483 76.6148 87.4185 77.3979 88.5673L77.3981 88.5676L77.3983 88.568L77.399 88.5688C77.4999 88.7169 77.5994 88.863 77.6956 89.0075C77.7738 88.5574 77.7517 88.0452 77.7297 87.5372C77.7143 87.1809 77.699 86.8263 77.7184 86.4965ZM76.41 68.1929C76.391 68.2903 76.3727 68.3986 76.3533 68.5127C76.2222 69.2882 76.0467 70.3253 75.3214 69.9413C74.6649 69.5935 74.5064 68.1899 74.5049 67.4076C74.5038 66.7654 74.5824 65.5854 75.2502 65.5469C76.07 65.4995 76.3628 67.4511 76.41 68.1929ZM70.513 50.6973C70.7237 50.1953 70.9736 49.6003 71.2097 49.6768C71.099 49.3456 70.9883 49.0145 70.8775 48.6833C70.7669 48.3521 70.6562 48.0209 70.5454 47.6898C70.5133 47.9083 70.478 48.1281 70.4426 48.3487C70.2862 49.322 70.1269 50.3142 70.217 51.3052C70.2993 51.2062 70.4005 50.965 70.513 50.6973ZM87.45 94.511C88.6234 93.0176 89.4052 93.562 90.6832 94.4518C90.7453 94.495 90.8084 94.539 90.8729 94.5837C91.1898 94.803 91.4952 94.899 91.8004 94.9949C92.0382 95.0698 92.2759 95.1445 92.5189 95.2775C92.7962 95.4294 92.9702 95.8221 93.1349 96.1934C93.2972 96.5593 93.4502 96.9045 93.6839 96.9787C93.112 97.0596 92.5424 97.1643 91.9734 97.2687H91.9733C90.3706 97.5632 88.7724 97.8568 87.1421 97.6166C87.2185 97.1973 87.2095 96.774 87.2006 96.3541C87.1872 95.724 87.1739 95.1014 87.45 94.511ZM86.9101 89.4481C88.3258 89.3498 88.7028 86.4178 88.6928 84.9529C88.7238 83.8901 88.5161 82.5209 87.9085 81.7615C87.5245 81.2813 86.6361 80.5259 86.1033 80.6383C84.6558 80.9437 84.2906 84.4954 84.4309 85.9805C84.5588 87.3352 85.7723 89.5271 86.9101 89.4481Z" fill="#FF5678"/>
<path fill-rule="evenodd" clip-rule="evenodd" d="M65.678 23.6476C65.4307 23.7972 65.9029 24.9152 65.9762 25.1203C66.168 25.6556 66.4018 26.7619 66.8558 26.4574C66.4632 25.5208 66.0706 24.5841 65.678 23.6476ZM7.58867 88.5131C7.25776 88.3157 6.81519 90.0138 6.75622 90.3587C6.59175 91.3198 6.72938 91.9655 7.30132 92.5868C7.06458 91.2133 7.34819 89.8452 7.58867 88.5131ZM83.9761 15.7985C83.5646 15.0799 82.9701 13.7458 82.1386 14.4521C81.8102 14.7311 81.5575 15.6257 81.355 16.0627C81.0369 16.7487 80.7291 17.4091 80.4871 18.1477C80.8982 17.9204 81.1406 17.4261 81.5081 17.1559C81.7593 16.9714 81.9883 16.9536 82.2302 16.8191C82.7652 16.522 83.4978 16.2306 83.9761 15.7985ZM16.8786 86.5987C17.1013 87.771 17.3072 88.9399 17.4795 90.1273C17.596 90.9308 17.9876 92.066 17.7833 92.8522C18.3125 92.7564 18.8418 92.6608 19.371 92.5651C18.9784 91.3632 18.7718 90.0807 18.6552 88.7823C18.5838 87.9877 18.6753 87.7611 18.2302 87.319C17.8856 86.9765 17.2788 86.812 16.8786 86.5987ZM13.9513 41.7286C14.9689 43.0987 15.8588 44.6605 16.9403 45.9371C17.5022 46.6005 18.0782 47.2452 18.6549 47.8851C19.1439 48.4276 19.9215 49.6236 20.558 49.7896C20.6366 49.3526 20.8226 48.6365 20.7728 48.1883C20.9585 47.9299 20.9009 47.7413 20.5999 47.622C20.4157 47.4315 20.2336 47.238 20.0533 47.0409C19.346 46.2467 18.6766 45.384 18.0063 44.5344C17.3399 43.6901 16.7235 42.8066 16.1451 41.8526C15.8404 41.3502 15.6621 40.8465 15.1624 40.6988C14.5686 40.5235 14.3711 41.1462 13.9513 41.7286ZM34.289 92.6018C34.2602 93.3463 35.6214 93.8025 36.0349 93.8472C37.1529 93.9678 37.8788 93.3084 38.2635 92.0079C39.0644 89.3013 40.3467 86.9166 40.883 84.0704C41.0421 83.2259 41.1798 82.8416 40.6129 82.4113C40.3803 82.2349 39.7744 81.8412 39.5215 82.0659C39.2807 82.2797 39.0834 83.2419 38.9287 83.5915C38.6828 84.147 38.4033 84.6753 38.1364 85.2128C36.8877 87.7271 35.6296 90.1755 34.289 92.6018ZM18.1349 55.326L23.3608 59.3456C23.5787 58.3336 23.679 57.2785 23.8833 56.2585C24.0287 55.5335 24.4028 54.5095 24.3792 53.873C24.3439 52.9229 23.7968 51.6615 23.5583 50.7557C23.261 49.6271 22.9638 48.4982 22.6665 47.3694C22.264 47.8872 21.8005 48.2488 21.7956 48.9235C21.7928 49.3091 21.9839 49.5497 21.8731 49.9865C21.7954 50.293 21.4647 50.6999 21.3049 50.9277C20.8384 51.5936 20.853 51.6269 20.3627 51.0042C19.6201 52.4449 18.8774 53.8855 18.1349 55.326ZM23.8842 74.1721C23.9591 73.2038 24.0551 72.2753 24.217 71.3252C24.3166 70.7414 24.737 69.5426 24.5988 68.9927C24.4971 68.5886 23.8929 68.2372 23.6576 68.0173C22.9769 67.3811 22.3121 66.7118 21.6382 66.0626C21.0472 65.4933 20.4474 64.9377 19.8675 64.348C19.3305 63.8019 18.9251 63.1227 18.2751 62.8886C17.7065 62.6837 16.9849 62.8174 16.3959 62.7911C15.6055 62.7557 14.8029 62.744 14.0132 62.796C11.3631 62.9705 8.39439 62.7211 5.84489 63.7154C4.63991 64.1852 3.86312 64.4618 3.18953 65.9971C2.41054 67.7727 1.74497 69.6176 1.17831 71.5356C1.09558 71.8157 0.908562 72.2197 0.915713 72.5257C0.929354 73.1101 1.0848 72.9754 1.50141 73.3087C1.95157 73.6687 2.39283 74.0961 2.82286 74.5015C3.56026 75.1967 4.47577 75.9226 5.24082 76.4648C6.16128 77.117 7.08856 77.702 8.02486 78.3589C8.61815 78.7751 9.23223 79.1155 9.81419 79.5729C10.446 80.0696 11.1534 80.2111 11.8344 80.599C13.9433 81.8001 15.9844 82.9101 18.0539 84.2804C20.0739 85.6178 22.1171 86.7481 24.1839 87.9279C26.8551 89.4525 29.4999 90.8627 32.2857 91.9171C32.4896 91.9943 32.9184 92.2666 33.1199 92.2542C33.5506 92.2276 33.6481 91.8042 33.9069 91.3271C34.4154 90.3895 34.9051 89.434 35.3915 88.4757C36.4464 86.3968 37.4779 84.2947 38.6137 82.2929C35.3953 81.0849 32.4112 78.8562 29.582 76.5689C29.4616 77.0243 29.3656 78.033 28.9795 78.1853C28.5021 78.3738 28.1552 77.484 27.9412 77.0749C27.7387 77.7532 27.3922 80.0412 26.744 79.9912C25.8484 79.922 26.0065 78.0258 25.8949 77.2734C25.4012 78.1561 24.829 79.1711 24.1581 77.8137C23.693 76.8727 23.7446 75.2213 23.8842 74.1721ZM61.1734 63.359C60.7584 63.1846 60.3461 63.0295 59.9402 62.834C59.8335 62.5295 59.6562 62.4371 59.4086 62.557C59.2057 62.5814 59.0084 62.5477 58.8166 62.4555C57.9688 62.2606 57.0296 62.0076 56.2195 61.6788C55.4981 61.3859 54.8177 61.1272 54.0847 60.9072C53.6494 60.7767 51.7106 60.0387 51.424 60.473C51.3359 60.6067 51.4875 62.2264 51.4662 62.5151C51.4282 63.0285 51.4094 63.8736 51.1677 64.3009C51.075 64.4649 50.7218 64.6466 50.5942 64.7743C50.1796 65.1891 49.7964 65.7045 49.384 66.1345C48.4834 67.0735 47.6063 68.0477 46.6874 68.9559C46.038 69.5977 45.2947 69.9154 44.5733 70.3817C45.0865 70.5052 46.0908 69.8408 46.6088 69.6348C47.2798 69.3679 47.9382 69.0712 48.6245 68.8267C50.0315 68.3255 51.4731 67.7598 52.9031 67.2262C53.7813 66.8985 54.709 66.5572 55.5604 66.1233C55.9381 65.9308 56.2346 65.4833 56.4841 65.9388C56.6831 66.3023 56.4423 66.7808 56.2892 67.0502C55.3965 68.6217 52.9721 69.0041 51.6745 69.6561C50.21 70.3917 48.7651 71.1665 47.2571 71.6833C45.4961 72.2869 43.5845 72.7487 41.9435 73.8088C40.582 74.6881 39.0397 75.0289 37.5921 75.5451C36.2327 76.0297 34.6206 76.1268 33.3358 76.9495C33.8908 77.5391 34.7119 77.8466 35.3588 78.243C36.1507 78.7282 36.9508 79.1708 37.7339 79.6851C38.0673 79.9039 38.4161 80.2292 38.7534 80.411C39.1816 80.642 39.1267 80.5202 39.5689 80.4733C40.2573 80.4005 41.186 80.2341 41.7452 80.9082C42.4196 81.7214 41.9922 82.6122 42.0913 83.6071C42.1592 84.2891 42.1938 84.1797 42.7568 84.2839C43.2751 84.3797 43.7928 84.4914 44.304 84.6404C44.9351 84.8245 45.5811 85.1332 46.1959 85.3992C47.1491 85.812 47.2527 86.2976 48.2464 85.7649C51.0762 84.2478 54.003 83.0008 56.8509 81.5653C58.1626 80.9041 59.48 79.6287 60.7148 78.6705C62.2989 77.4411 63.7313 76.1112 64.8039 74.0644C65.2927 73.1315 65.8025 71.5557 65.6998 70.3975C65.6079 69.3618 65.0383 68.2105 64.6711 67.3198C64.2021 66.1828 63.7892 65.7415 63.0717 64.9861C62.573 64.461 61.8023 63.3521 61.1734 63.359ZM29.6583 72.1607C29.7022 72.7324 29.4538 75.0893 29.6999 75.4518C30.1206 76.0719 31.1528 75.3483 31.5521 75.1636C32.8494 74.5637 34.3572 74.6949 35.6782 74.2199C36.9597 73.7591 38.2132 73.162 39.5018 72.6926C40.1931 72.4406 40.8492 72.0458 41.5292 71.7459C42.2862 71.4119 43.1312 71.2288 43.8332 70.7264C43.7463 70.436 40.7089 71.1347 40.3636 71.1725C39.1646 71.3034 38.0358 71.0547 36.8541 70.7624C34.2475 70.1175 31.7915 68.5883 29.2186 67.5963C29.3391 69.1924 32.6784 69.5102 32.2806 71.3625C32.1696 71.8788 30.6758 72.7227 30.1817 72.3988C29.178 71.7404 30.4058 70.8139 30.9061 70.5829C30.1445 69.9956 29.4157 69.3584 28.7205 68.6346C27.9763 67.8598 27.6561 66.7728 27.2572 65.6511C26.4234 63.3059 24.4503 61.9417 22.9176 60.4818C21.2603 58.9031 19.4956 57.5611 17.8393 55.986C17.5437 55.7049 17.4056 55.8339 17.3017 55.3206C17.1906 54.7708 17.5989 54.0722 17.797 53.653C18.3178 52.5506 18.9244 51.5072 19.6124 50.5844C18.7252 49.7721 17.7668 49.1016 16.9347 48.1822C16.0914 47.2503 15.3935 46.1126 14.6495 45.0457C13.4609 48.5245 11.7952 51.751 10.487 55.1627C9.97029 56.5102 9.69714 58.5483 10.4829 59.854C11.3099 61.2283 12.8519 60.6934 14.0192 60.7662C15.2513 60.8431 16.3751 61.0309 17.5903 61.5009C18.14 61.7137 18.6405 61.6508 19.1688 61.9923C19.7885 62.3927 20.398 62.9071 20.9875 63.3818C22.147 64.3153 23.2301 65.4839 24.3249 66.549C24.774 66.9858 27.2091 69.5756 25.283 69.1758C25.283 71.5992 24.9674 74.0811 24.8017 76.4929C25.2585 75.7592 25.5842 75.0135 25.8606 74.132C26.0249 73.6076 26.027 72.2693 26.5748 72.5865C27.3988 73.0636 26.757 76.5697 26.757 77.5181C26.9611 76.9874 27.1042 76.4159 27.2511 75.8536C27.3625 75.4276 27.5016 74.2196 27.734 73.9339C28.5117 72.9776 28.6208 75.5856 28.6208 76.1299C28.8727 75.1685 28.919 74.1424 28.9443 73.1265C28.9542 72.7258 28.8806 72.1022 28.9559 71.7145C29.081 71.0683 29.0662 71.1105 29.5693 70.8373C29.599 71.2783 29.6287 71.7195 29.6583 72.1607ZM53.6852 92.6123C53.7469 93.4322 53.9828 94.0258 53.582 94.7633C54.3567 94.6887 55.1194 94.5971 55.8954 94.6236C56.5184 94.6449 57.4502 94.8366 58.0315 94.4776C58.2683 94.3314 58.3489 94.5831 58.4706 94.3037C58.5863 94.0382 58.3147 93.1572 58.282 92.9386C58.1253 91.8897 58.049 90.8138 57.9066 89.7584C57.8089 89.033 57.5218 87.6063 57.8828 86.9209C58.4137 85.9123 58.6474 87.3332 58.7857 87.964C59.2413 90.0424 59.215 92.0162 59.215 94.1517C59.9011 94.1517 60.8025 93.7486 61.4643 93.5055C62.377 93.17 63.3517 92.8252 64.2361 92.3872C65.0702 91.9742 65.8047 91.3715 66.3321 90.4014C66.7266 89.6757 67.6012 87.8853 67.3839 87.0829C67.1176 86.0992 65.8474 85.4228 65.1691 85.3146C64.289 85.1742 63.387 85.412 62.4865 85.5118C61.5225 85.6188 60.5871 85.9075 59.6334 86.0465C58.7071 86.1813 57.4638 86.597 56.5639 86.2855C56.5405 86.7834 56.8501 87.4527 56.9579 87.9597C57.0993 88.6244 57.2254 89.2951 57.3402 89.9688C57.4631 90.6901 58.2237 93.2829 57.5319 93.8013C56.7199 94.4098 56.3324 91.8042 56.2313 91.1691C55.9901 89.6546 55.7829 88.1416 56.0353 86.6192C54.9989 86.3679 53.749 86.7411 52.6801 86.8401C53.0784 88.7268 53.3352 90.7028 53.6852 92.6123ZM9.04554 93.4325C9.40594 93.6481 9.90121 93.5324 10.293 93.5739C10.9052 93.6385 11.5236 93.7874 12.1399 93.7609C13.0803 93.7207 14.0661 93.5607 15.0073 93.416C14.4704 92.1136 14.1447 90.8805 14.0777 89.3878C14.0536 88.8517 13.842 85.5264 14.5775 85.6686C14.9324 85.7372 14.8571 88.5766 14.926 89.0997C15.0261 89.8586 15.1552 90.6355 15.3124 91.3783C15.4265 91.9171 15.8146 92.724 15.7152 93.3068C16.1896 93.2033 16.6642 93.0999 17.1388 92.9964C16.7698 92.0069 16.5003 91.1201 16.3621 90.0163C16.2954 89.4836 16.3379 88.8206 16.2085 88.3147C16.1268 87.9958 15.9407 87.6959 15.9158 87.4285C15.8871 87.1199 16.1384 86.3618 16.0454 86.0878C15.9541 85.8183 15.3184 85.5691 15.0956 85.4205C14.4816 85.0114 14.1218 84.9078 13.4337 85.1431C12.1064 85.5968 10.0152 85.9188 9.0253 87.1426C8.04467 88.355 7.68779 92.4445 9.04554 93.4325ZM67.0122 34.3313C67.3797 34.2755 67.7434 34.2411 68.1127 34.2155C67.5731 33.1941 67.083 32.1266 66.6355 31.0277C66.4163 30.4894 66.2093 29.9424 66.011 29.3896C65.7834 28.7552 65.7897 28.341 65.2953 28.2149C64.6107 28.0405 63.6951 28.3891 62.9908 28.3494C62.4467 28.3187 61.2249 27.63 60.7866 27.8796C61.1863 28.9815 60.8655 30.6958 60.8811 31.8818C60.8967 33.0614 60.7878 34.2015 60.6335 35.3647C61.5671 35.3647 62.7358 34.9311 63.6782 34.7374C64.7755 34.5119 65.8943 34.5002 67.0122 34.3313ZM52.1908 94.8818C52.5504 94.8198 52.8923 94.8006 53.2554 94.8006C52.4374 93.017 51.8198 91.0224 51.8129 88.8972C51.812 88.6192 52.0605 87.0217 51.9784 86.8889C51.818 86.6303 51.1532 86.8345 50.971 86.8589C50.2261 86.9591 49.3981 86.9515 48.6967 87.3124C48.2128 87.5616 48.2075 87.4112 48.0151 88.1772C47.9013 88.6303 47.8194 89.1478 47.8172 89.6243C47.8126 90.5872 48.0409 91.7126 48.3359 92.5794C48.6169 93.4047 49.0608 94.2898 49.6713 94.733C50.3747 95.2439 51.3659 94.9398 52.1908 94.8818ZM59.6276 28.6202C59.4862 27.9097 59.5473 28.0701 59.077 27.9819C58.978 27.9634 57.9008 27.9934 57.8389 28.0783C57.7677 28.1763 57.7949 29.6231 57.7855 29.7887C57.7536 30.3562 57.7064 30.9222 57.6604 31.4879C57.4739 33.7845 57.12 36.0078 56.8547 38.2854C57.5104 37.7382 58.4579 38.4843 59.018 37.892C59.4605 37.4239 59.3942 35.9261 59.4272 35.2652C59.5376 33.0532 59.5754 30.8358 59.6276 28.6202ZM83.3013 25.9383C83.2423 26.0657 83.1834 26.1931 83.1244 26.3205C83.3533 26.5179 84.6935 24.5097 84.9915 24.1504C85.3884 23.672 86.0166 23.0332 86.1956 22.3337C86.4036 21.5208 86.199 20.2376 86.1486 19.397C86.1126 18.7955 86.1891 17.9636 85.8245 17.5433C85.489 17.1567 84.6623 17.167 84.265 17.2497C83.0725 17.498 82.3553 18.8171 81.7533 20.0741C82.3646 19.973 84.5193 18.6498 84.7696 19.3654C85.1332 20.4051 82.8702 21.3347 82.6464 22.247C83.1097 22.467 84.1314 21.6135 83.844 23.0336C83.7949 23.2324 83.7093 23.3969 83.5874 23.5273C83.3759 23.628 83.3258 23.8179 83.4372 24.097C83.3424 24.6532 83.3618 25.357 83.3013 25.9383ZM97.0269 76.2844C97.0333 76.6215 97.0563 76.9438 97.2611 77.182C97.7155 75.2466 97.8574 73.3103 98.0456 71.2976C98.2339 69.2845 98.4344 67.2214 98.4642 65.2101C98.4976 62.956 98.3393 60.5038 98.0683 58.2767C97.8563 56.5356 97.6921 54.3932 96.9204 52.9113C97.3587 56.7515 97.2224 60.3924 96.9269 64.246C96.77 66.2923 96.5486 68.3227 96.447 70.3778C96.4202 70.9206 96.4115 71.4699 96.3765 72.0116C96.3558 72.3308 96.1209 72.9356 96.1188 73.0923C96.1072 73.9623 96.7996 75.4854 97.0269 76.2844ZM73.7093 73.2934C74.0738 74.4215 74.4882 75.5326 74.7068 76.7323C74.9375 77.999 74.8382 79.1787 74.8751 80.4622C74.9364 82.5918 74.8095 84.7088 74.8317 86.8414C74.8506 88.659 74.7988 90.4312 74.8123 92.2296C74.8209 93.3673 74.7746 94.5006 74.7774 95.6377C74.7774 95.6343 74.8111 96.6583 74.7529 96.7103C74.4919 96.9435 74.2066 96.6123 74.1266 96.2934L73.3528 97.471C73.7584 97.334 74.2572 97.0476 74.6741 97.0223C74.8338 96.9433 74.9927 96.9411 75.1511 97.0157C75.3084 97.1435 75.4249 97.3217 75.5007 97.5505C76.5932 97.8635 77.2488 96.5555 77.4451 95.386C77.8707 92.8486 77.7174 90.3435 77.6865 87.7818C77.6196 82.2167 78.2769 76.6848 78.2147 71.1192C78.2027 70.0422 78.1722 68.9778 78.2925 67.9029C78.5158 65.9059 78.8456 67.7339 78.8986 68.6764C79.0576 71.5084 79.3346 74.4306 79.1823 77.2801C79.0452 79.8477 79.0579 82.4389 78.9628 85.0142C78.8617 87.7514 78.6989 90.4305 78.7926 93.1699C79.339 93.0759 81.0967 92.9358 81.2797 93.9684C81.4394 94.869 80.797 94.5357 80.4634 94.4977C79.9223 94.436 79.3938 94.6068 78.8024 94.4641C78.846 95.6755 78.9702 97.2999 78.1654 98.1178C77.7696 98.5202 77.1141 98.8833 76.6516 99.1205C76.1983 99.3531 75.4307 99.8684 74.9585 99.8401C74.6244 99.8202 74.4957 99.5782 74.1292 99.6169C73.5853 99.6744 73.1144 100.164 72.5378 99.7595C71.4443 98.9928 71.9818 96.7629 72.6723 95.8693C72.8503 95.6387 73.0504 95.3867 73.2892 95.2744C73.4027 95.221 73.8779 95.2855 73.9327 95.2055C74.1349 94.9103 73.8824 93.1833 73.8554 92.8556C73.7136 91.1364 73.5592 89.3806 73.501 87.6537C73.4463 86.0301 73.3855 84.4032 73.3439 82.779C73.3349 82.4253 73.4515 81.6982 73.3414 81.389C73.1582 80.8752 72.3546 80.5482 72.0059 80.3089C72.3166 84.4023 72.773 88.802 71.6485 92.7009C71.4252 93.4752 71.1747 94.5803 70.6085 95.0109C70.0748 95.4169 68.818 95.3597 68.1787 95.4079C67.4911 95.4597 66.818 95.2438 66.4392 94.3753C66.1412 93.6919 66.3198 92.8721 66.9318 92.5741C67.2982 92.3958 67.3696 92.5105 67.6907 92.7225C67.7603 92.8747 67.8091 93.0382 67.8374 93.2131H68.0842C68.4186 93.4137 69.7552 93.6382 70.1228 93.318C70.5487 92.9473 70.6414 91.9448 70.823 91.3492C71.1603 90.2424 71.2496 89.3443 71.3721 88.1614C71.5637 86.3099 71.3696 84.163 71.3733 82.234C71.3743 81.6908 71.376 81.1474 71.3766 80.6041C71.3773 79.7836 71.4305 79.7886 71.0824 79.1979C70.5579 78.3077 69.9598 77.3979 69.3983 76.5445C69.7025 79.0378 69.578 81.6629 69.4572 84.1469C69.3894 85.5425 69.2491 86.9637 69.1847 88.3408C69.1654 88.7545 69.3864 89.8954 69.0292 90.0783C68.6667 90.2639 68.2155 89.3982 68.0691 89.0857C67.27 91.2306 66.3162 93.2995 64.6674 94.4092C63.8197 94.9798 62.937 95.2371 62.0118 95.4609C61.1547 95.6683 60.3626 96.0466 59.5176 96.225C57.7687 96.5942 56.1578 96.6465 54.3978 96.5658C52.7374 96.4898 51.1476 96.9022 49.4925 96.3829C48.8465 96.1804 48.1938 95.8082 47.7522 95.143C47.5113 94.78 47.4047 94.2087 47.1617 93.8741C47.1069 93.4411 46.9175 93.3076 46.5934 93.4734C46.3899 93.4857 46.1872 93.4766 45.9852 93.4462C44.3251 93.329 42.4803 93.4596 40.8717 92.8218C40.2611 92.5797 39.5795 92.1809 39.8841 91.1531C40.1503 90.2547 40.885 90.5276 41.4874 90.606C43.2373 90.834 44.9599 91.25 46.735 91.4594C46.6779 90.2118 46.7271 88.939 47.0907 87.7719C45.8592 87.564 44.5826 87.2505 43.4108 86.7216C43.049 86.5582 42.6888 86.3885 42.3299 86.2139C41.7382 85.926 41.8612 85.8516 41.5185 86.3539C41.088 86.9848 40.8244 88.3014 40.5124 89.0638C40.1613 89.9218 39.8245 90.77 39.5287 91.6655C39.2487 92.5132 39.0399 93.6484 38.6133 94.3789C37.6749 95.9856 35.5075 96.1249 34.2321 95.4937C33.6073 95.1845 33.3818 95.1359 33.0032 94.3827C32.5883 93.5576 32.4852 93.5093 31.721 93.3973C30.3409 93.195 29.0384 92.729 27.7455 92.0856C26.3796 91.406 24.9771 90.8761 23.6152 90.1422C22.3402 89.4552 21.108 88.7641 19.7889 88.2278C19.6323 89.5662 20.281 91.0754 20.281 92.4551C21.0485 92.3519 21.7642 92.2613 22.5251 92.097C22.7963 92.0384 24.5056 91.5226 24.6724 91.827C25.3675 93.096 22.2045 93.693 21.7101 93.8606C20.1258 94.3984 18.5103 94.8981 16.916 95.3138C15.2888 95.738 13.7024 96.1605 12.0505 96.2367C9.25523 96.3656 5.39968 96.1484 5.53312 91.2084C5.58548 89.2727 6.17833 87.172 7.31276 85.9096C8.01859 85.1241 8.89879 84.6923 9.76171 84.3369C10.0805 84.2055 11.7601 83.8986 11.8111 83.7296C11.3378 83.2734 10.5289 83.1544 9.96744 82.8028C9.43212 82.4675 8.86722 82.3426 8.31925 82.0046C7.22432 81.3294 6.16678 80.504 5.15435 79.6691C4.34915 79.0049 3.53507 78.2717 2.79382 77.4822C2.20482 76.8551 1.64035 76.252 1.16951 75.5352C0.923084 75.16 0.486891 74.8278 0.289531 74.5048C-0.403537 73.3702 0.327375 71.1127 0.622534 69.7918C1.05367 67.8611 1.62902 65.8068 2.47754 64.1343C3.25784 62.5962 4.12781 61.5601 5.52751 61.1997C6.81937 60.8672 8.11837 60.7619 9.4396 60.6685C9.2176 59.5325 8.90506 58.7307 8.98438 57.4848C9.05919 56.3095 9.50033 55.1418 9.84653 54.0715C10.4902 52.0819 11.0975 50.1345 11.9778 48.3027C12.4616 47.296 13.0051 46.3404 13.5332 45.3757C13.6184 45.2202 14.1477 44.5087 14.1275 44.3083C14.1074 44.1091 13.5758 43.5027 13.4944 43.3638C12.9477 42.4303 12.5699 41.4253 13.2118 40.4263C13.5464 39.9054 14.5304 38.8535 15.004 39.5153C15.5161 38.1234 16.4118 37.1744 17.1091 35.9903C17.9785 34.5138 18.8087 33.0148 19.6225 31.4682C20.4329 29.9284 21.0948 28.2741 22.169 27.0332C23.366 25.6503 24.4928 25.7699 25.963 26.3611C26.0469 25.5982 26.1637 25.6997 26.7122 25.4451C27.1274 25.2523 27.5309 25.0235 27.9391 24.8058C28.373 24.5742 28.8122 24.4428 29.2557 24.2608C29.8466 24.0184 29.9354 24.0976 30.0314 23.0654C30.1476 21.8183 29.7508 20.4996 29.4949 19.3248C29.3686 18.7452 29.2808 18.0237 28.9967 17.6337C28.7396 17.2811 28.2838 17.1206 28.0026 16.7306C25.58 13.3714 25.5418 6.19882 28.1224 3.07677C28.6239 2.46991 29.0376 1.65351 29.6619 1.24376C30.3474 0.793759 31.2516 0.42988 32.0066 0.217827C33.5628 -0.219005 35.3081 -0.0803493 36.5382 1.39115C37.1449 2.11683 37.5149 3.27032 37.7217 4.3007C37.9193 5.2849 37.877 6.94847 37.128 5.4274C36.6557 4.46806 36.2454 3.48963 35.4459 3.01506C34.7315 2.5911 33.8591 2.36218 33.0808 2.45215C31.2465 2.66406 29.76 3.38856 28.4903 5.21476C27.0863 7.23392 27.0149 10.4577 27.3176 13.0252C27.5842 12.2658 27.7649 11.0634 28.5125 10.9183C29.1356 10.7974 30.1179 11.8676 29.7835 12.7889C28.2661 12.2686 27.8223 15.3552 29.1344 15.541C29.5316 15.5973 30.0347 14.6461 30.4005 14.8676C31.0846 15.2816 30.1678 16.7084 29.9871 17.1783C29.8911 17.2577 29.795 17.3372 29.699 17.4168C29.7936 17.7125 29.8891 18.0077 29.9856 18.3023C30.1025 18.678 30.2138 19.0546 30.3166 19.4379C30.5666 20.3706 30.8259 21.3323 30.9766 22.3039C31.1298 23.2918 31.2093 24.4455 30.8473 25.3736C30.4494 26.3938 30.0746 26.2683 29.7688 25.2978C28.9686 25.9763 28.164 26.6998 27.2233 26.9675C28.2098 29.1937 29.4868 31.1075 31.4069 31.8077C33.0343 32.4012 35.0828 32.3795 36.6356 31.3976C38.2469 30.3788 39.1336 27.9976 38.9418 25.6284C38.8796 24.8612 38.5476 22.1961 39.3374 24.1239C39.7705 25.1812 39.8023 26.8963 39.7035 28.0557C39.2312 33.6016 35.0518 35.6764 31.4479 34.3414C29.5992 33.6564 28.267 31.8229 27.2751 29.6647C27.0438 29.1614 26.8321 28.642 26.6254 28.1198C26.5428 27.9111 26.47 27.6198 26.3598 27.4367C25.9278 26.7195 26.3522 27.1192 25.8936 27.0293C25.1838 26.8905 24.0669 27.6217 23.5398 28.201C22.1098 29.7727 21.3177 32.2868 20.2201 34.2677C19.0516 36.3764 17.5675 38.2532 16.0789 39.9357C17.7628 42.2559 19.4466 44.5757 21.1306 46.8957C21.4784 46.3778 22.1397 45.194 22.2322 44.5014C22.2864 44.0955 22.043 42.7596 22.7917 43.3542C23.2972 43.7558 23.489 45.4742 23.6466 46.1773C23.8902 47.2631 24.3003 48.2857 24.5654 49.3603C25.0572 51.3542 25.663 53.3304 26.1667 55.3385C26.3716 56.155 26.9556 57.1684 26.3945 57.8597C25.5416 58.9101 25.288 56.8421 25.0621 56.052C24.7476 56.6402 24.7884 57.594 24.6263 58.28C24.5273 58.6991 24.2257 59.3513 24.2357 59.7642C24.2528 60.4702 24.7292 60.6803 25.1586 61.0749C25.9574 61.8088 26.7771 62.5253 27.5088 63.3802C27.814 63.7368 28.0949 64.0976 28.3177 64.5563C28.5122 64.9569 28.5707 65.8599 28.7857 66.1387C29.0669 66.503 30.1062 66.2491 30.6551 66.3284C31.5716 66.461 32.5004 66.8994 33.3902 67.2145C34.9646 67.7718 36.584 68.5742 38.233 68.872C39.8523 69.1644 41.3719 69.0192 42.9859 68.6297C43.8675 68.4169 44.8144 68.1627 45.6189 67.5924C46.5455 66.9357 47.3672 65.885 48.2327 65.0916C48.6201 64.7364 49.0163 64.4007 49.4125 64.064C49.9418 63.6142 49.8035 63.7115 49.8379 62.9968C49.8778 62.1694 50.1346 60.5896 49.7238 59.8533C49.5522 59.5459 49.0258 59.3212 48.7779 59.0976C48.4176 58.7722 48.0945 58.3942 47.7084 58.1325C47.2868 57.8467 47.2744 58.073 47.0788 57.372C46.901 56.7354 46.7838 56.0686 46.6206 55.4253C45.8741 52.4831 45.6812 49.495 45.3719 46.4228C45.2281 44.9958 44.8755 43.054 45.2749 41.6639C45.8302 39.7306 46.2949 42.4345 46.412 43.1274C46.9422 41.906 47.2468 40.5476 47.7983 39.3417C48.1198 38.6387 48.2772 38.2794 48.4583 37.509C48.5317 37.1971 48.5611 36.938 48.7162 36.6788C49.0444 36.1307 49.0929 36.4431 49.434 36.4297C50.5074 36.3873 51.5624 36.4245 52.6368 36.4914C53.2305 36.5284 53.8243 36.5479 54.4223 36.5449C54.7136 36.5434 55.0084 36.5244 55.2995 36.5469C55.4564 36.5446 55.6125 36.5603 55.7678 36.5941C56.0884 36.7953 56.2107 36.6219 56.1349 36.0736C56.414 35.2883 56.3954 34.0352 56.4942 33.1784C56.5936 32.316 56.6858 31.4521 56.769 30.5864C56.8133 30.1237 57.1863 28.3777 56.9884 27.9976C56.7922 27.6206 55.7701 27.7051 55.4677 27.6375C53.4571 27.188 51.5869 26.0735 49.7064 25.1605C48.7806 24.7111 47.9018 24.1042 47.0138 23.5529C46.5515 23.2658 46.1147 22.6746 45.6274 22.4905C45.0126 22.2582 44.1963 22.6296 43.5834 22.7695C42.4158 23.036 41.2894 23.2693 40.1046 23.3561C39.686 23.3867 38.8897 23.5446 38.5121 23.1576C37.7534 22.3804 38.6172 21.926 39.113 21.8279C41.3063 21.394 43.4929 21.1447 45.7029 20.9635C45.8065 20.9551 46.1861 20.8514 46.3124 20.9049C46.6002 21.0272 46.4841 21.1689 46.6566 21.295C46.9761 21.5285 47.3406 21.7005 47.746 21.8454C48.9035 22.2588 50.0689 22.9525 51.2302 23.4977C53.3197 24.4785 55.8162 26.0423 57.906 25.7674C58.4217 25.6996 58.8458 25.6129 59.3849 25.6832C60.0164 25.7656 60.3849 26.2012 60.8701 26.3279C61.52 26.4975 62.4497 26.3701 63.1339 26.4026C63.7863 26.4337 64.4391 26.4744 65.0918 26.4744C64.5186 24.9242 64.1695 23.4687 63.8474 21.8038C63.6717 20.8958 63.4074 20.0711 63.5219 19.1149C63.576 18.6635 63.7101 18.2394 63.8563 17.8317C64.077 17.2163 64.1397 17.345 64.218 16.6634C64.3259 15.7254 64.1713 14.7363 64.256 13.7955C64.3429 12.8299 64.8854 11.9693 64.9458 11.0462C64.978 10.555 64.7737 10.1542 64.8349 9.62441C64.8896 9.15059 65.0981 8.65382 65.2855 8.25487C65.7218 7.32523 66.2531 6.79813 66.9904 6.41945C67.5831 6.11506 68.3395 5.83583 68.9384 6.32874C69.5494 6.83157 69.5053 7.8436 69.798 8.58205C70.4275 10.1699 71.8799 11.5888 73.0376 12.3997C74.1012 13.1447 75.247 13.6152 76.3873 14.1011C77.0814 14.3967 77.795 14.6076 78.4771 14.9454C78.9681 15.1887 79.7687 15.7787 80.2687 15.4203C80.7045 15.1079 81.2127 14.1546 81.644 13.712C82.1486 13.1942 82.8215 12.6889 83.4569 13.1399C84.0922 13.5908 84.04 15.2529 84.5342 15.5654C84.7064 15.6744 85.2177 15.3553 85.4524 15.4056C85.8315 15.4867 86.0926 15.8024 86.3199 16.191C87.1687 17.6431 87.4317 19.9463 87.4687 21.7364C87.4873 22.6305 87.4712 23.7426 87.0652 24.5017C86.5917 25.3872 85.6956 25.4091 85.0878 26.0323C84.6016 26.5306 84.2572 27.3454 83.7638 27.8765C83.4598 28.2038 83.3426 27.9524 83.2167 28.4625C83.1347 28.7943 83.3003 29.4415 83.3492 29.7625C83.6514 31.7427 84.2174 33.5692 84.7544 35.4557C85.0075 36.3446 85.2221 37.2336 85.3376 38.1756C85.4133 38.7938 85.3259 39.3342 85.3626 39.9289C85.3885 40.3523 85.5224 40.7179 85.4929 41.1521C85.4306 42.0715 85.0594 42.8836 84.8233 43.6923C84.5542 44.6142 84.9238 46.2107 85.1949 47.1641C85.8444 49.4483 86.7578 51.7561 87.5694 53.9507C88.3665 56.1066 88.9595 58.4025 89.8882 60.4736C90.7902 62.4849 91.8514 64.4544 92.8777 66.3566C93.4486 67.4148 94.0543 68.4214 94.5717 69.5312C94.6848 69.7739 95.4568 71.7866 95.6571 71.7169C95.4115 68.2046 95.6598 64.5518 95.7696 61.0419C95.9069 56.6482 95.4912 52.6684 94.572 48.4743C94.3572 47.4938 94.1656 46.4906 94.0145 45.4886C93.9087 44.787 93.6099 44.2105 94.3433 44.5173C95.5577 45.025 96.6266 48.1088 97.2441 49.4512C98.6268 52.4576 99.7818 56.467 99.9368 59.9933C100.089 63.4545 99.9577 66.7663 99.6361 70.1764C99.4774 71.8588 99.2211 73.7343 98.8292 75.3432C98.6277 76.1709 98.3857 77.0281 98.1172 77.8211C98.0039 78.1559 97.7552 78.5341 97.7122 78.9018C97.6442 79.4853 97.962 80.2725 98.0415 80.8488C98.3014 82.7341 98.3611 84.688 98.2726 86.6014C98.2251 87.6276 98.1198 88.5454 97.8708 89.5105C97.5536 90.7401 97.7011 91.6793 97.8331 92.9467C97.9743 94.3031 98.1096 97.3862 97.0611 98.1569C96.9871 98.1467 96.9128 98.1363 96.8387 98.1261C96.6513 97.8356 96.485 97.8528 96.3398 98.1779C96.0686 98.2969 95.8037 98.6033 95.5181 98.7352C94.8553 99.0414 94.1401 99.06 93.4488 99.1945C92.0958 99.4581 90.7473 99.9229 89.4179 99.9791C87.8439 100.046 86.2018 99.9627 84.6628 99.5915C84.3446 99.5147 83.9728 99.3119 83.6547 99.2729C83.2229 99.2201 82.9198 99.6063 82.474 99.5155C81.7831 99.3748 81.3466 98.3913 81.3014 97.5854C81.1575 95.0174 82.2167 93.8398 83.9476 93.3837C82.8291 91.2299 81.5415 89.4629 81.2439 86.6967C80.9509 83.9751 81.5862 80.8252 82.7401 78.6448C83.8477 76.5516 85.7377 75.1522 87.6868 75.6833C88.5914 75.9298 92.859 77.6246 92.0341 79.5471C91.8511 78.6677 90.726 78.8379 90.1825 78.7109C89.2806 78.5002 88.379 78.1825 87.464 78.2479C85.6644 78.3766 83.9252 79.8085 83.0538 81.9759C82.0492 84.4748 82.5076 86.9686 83.717 89.1021C84.8229 91.0529 85.9629 93.1024 87.45 94.511C87.1626 95.1259 87.2665 95.3188 86.6955 95.2087C86.3034 95.1331 85.9366 94.7219 85.5403 94.6195C84.7187 94.4073 83.4254 95.3129 82.9177 96.2185C82.6177 96.7536 82.6288 97.0181 83.1819 97.3476C83.5901 97.5907 84.2328 97.4651 84.6712 97.5178C85.7617 97.6487 86.8732 97.6925 87.9673 97.6874C89.8611 97.678 91.6224 97.2693 93.4967 97.0047C94.3274 96.8874 95.1961 97.0226 96.0089 96.6114C97.1097 96.0546 96.84 94.419 96.6973 93.094C96.5559 91.7815 96.6998 90.7636 96.8532 89.4639C96.9196 88.8994 97.0437 88.2477 96.9558 87.6794C96.8516 87.0044 96.6644 86.7056 96.6883 85.9527C96.7732 83.2732 96.5233 80.4514 95.9953 77.8654C94.8487 72.2485 92.0487 67.8156 89.7135 63.0416C89.054 61.6933 88.3606 60.4156 87.8355 58.9554C87.3382 57.5719 86.9956 56.1087 86.5016 54.7214C85.413 51.6637 84.3803 48.514 83.7441 45.225C83.0231 45.6067 82.2463 46.1681 81.4734 46.3028C80.5977 46.4553 79.6616 45.5041 79.1093 44.6664C77.8498 42.7563 77.5626 40.1658 77.6568 37.7043C77.6846 36.9757 77.7182 36.2413 77.8153 35.5224C77.8783 35.0558 78.2863 33.9265 78.1934 33.4917C78.0938 33.0264 77.5141 32.622 77.3361 32.1612C77.1092 31.5746 77.0832 30.8196 77.0953 30.1725C77.1065 29.5818 77.3489 26.6894 78.0452 27.8716C78.444 28.5489 77.861 31.1024 78.2658 31.45C78.63 31.7627 79.1317 31.3806 79.5092 32.0955C79.9171 32.8681 79.6987 33.8204 79.5556 34.6431C79.26 36.3446 78.9825 38.1819 78.9901 39.9293C78.9968 41.5205 79.2082 43.5322 80.5009 44.1757C81.1539 44.5008 81.6496 44.2772 82.1366 43.6717C82.2483 43.4989 82.3621 43.3288 82.4782 43.1615C82.5848 42.9151 82.7483 42.8845 82.9687 43.0697C83.1319 42.8954 83.3737 41.6909 83.4553 41.4217C84.4564 38.1218 82.8781 34.3329 82.2994 31.0952C81.9455 29.1148 81.6369 27.1283 82.3533 25.217C82.4693 24.9076 82.7888 24.6387 82.5971 24.1948C82.5466 24.078 82.0643 24.0233 81.9501 23.8876C81.5781 23.4459 81.6556 22.6224 81.6556 22.0327C80.7952 22.3896 80.5473 21.4892 80.6592 20.3855C80.0174 20.5224 79.5716 20.7864 79.334 19.7876C79.1233 18.9018 79.4415 17.9985 79.6526 17.1731C76.6831 16.745 73.4759 16.1964 71.1094 13.4402C70.5259 12.7605 70.0406 11.9051 69.6362 11.0188C69.5631 10.8586 69.219 9.73036 69.1049 9.67147C68.766 9.49641 68.4816 10.3884 68.1804 10.6094C67.9127 10.8056 67.532 10.9137 67.2346 11.0333C66.9546 11.1459 65.9677 11.1684 65.7926 11.3639C65.355 11.8528 65.3896 14.6794 65.3862 15.3353C65.3743 17.5947 65.7492 19.8462 66.4426 21.9032C67.0956 23.8405 68.0948 26.5047 69.401 27.7726C69.731 28.0931 70.0282 28.2593 70.4464 28.2328C70.7452 28.214 71.0415 27.9326 71.3526 28.0789C72.1399 28.4495 71.8583 29.1857 71.253 29.5337C69.523 30.529 68.0649 28.341 67.0645 26.8124C66.7715 28.626 68.1299 30.7721 68.8487 32.2519C69.3067 33.195 69.7595 34.1389 70.1953 35.1012C70.5117 35.8002 71.1336 37.0908 70.0289 36.551C69.496 40.3129 68.0336 43.6029 67.2867 47.2587C66.5199 51.0114 65.8516 55.2964 65.8516 59.2046C66.4354 58.6579 66.7298 56.1667 67.5151 58.0734C67.6 58.2797 67.5734 58.6211 67.6854 58.8013C67.8403 59.0507 68.0266 58.9814 68.2639 59.1591C68.6402 59.4407 68.8828 60.0022 68.5465 60.489C68.9798 60.3535 69.4334 60.4226 69.5268 61.1117C69.5792 61.4985 69.1581 63.2904 68.8439 63.4367C67.886 63.8827 66.824 61.3106 66.5646 60.4924C65.9662 61.3002 65.2768 61.9216 64.7253 60.6149C64.3143 59.6412 64.5528 58.1681 64.6108 57.1081C64.7276 54.9728 64.8801 52.89 65.1091 50.7753C65.5386 46.8097 66.6287 43.283 67.9677 39.7136C68.3363 38.7312 68.7448 37.7255 69.074 36.7203C69.5706 35.2037 68.7936 35.5615 68.0341 35.7817C66.5461 36.2133 64.988 36.5482 63.4845 36.701C62.6997 36.7808 61.6946 36.8283 60.9405 37.1334C60.4103 37.348 60.5012 37.1999 60.2882 37.9637C60.193 38.3056 60.0855 38.6692 59.9175 38.9619C59.0607 40.4553 56.8416 40.2053 55.6161 40.094C55.6904 39.4642 55.7637 38.8341 55.8407 38.2049C54.8973 38.5031 53.7767 38.7107 52.8051 38.6955C52.282 38.6875 51.7257 38.5802 51.2039 38.5218C50.8192 38.4787 50.0898 38.1119 49.7278 38.2545C49.308 38.4201 48.6731 40.4618 48.433 41.1201C47.9823 42.3565 47.1769 43.73 46.8926 45.0318C46.6404 46.1859 47.1549 48.1771 47.3165 49.3258C47.5501 50.9864 47.763 52.6502 48.1544 54.2603C48.4382 55.4277 48.7653 57.037 49.6367 57.6193C50.5049 58.1996 51.1289 58.5261 52.0686 58.408C53.7234 58.1999 55.4839 58.5416 57.1175 58.9743C58.7998 59.4199 60.3403 59.6205 61.9378 60.4146C65.561 62.2159 67.8682 67.7648 66.5021 72.8482C65.7164 75.7719 64.422 77.9448 62.5232 79.7536C61.5557 80.6753 60.4126 81.4231 59.3518 82.1334C58.8648 82.4595 58.3861 82.8552 57.8897 83.1449C57.527 83.3567 56.9035 83.8441 56.5095 83.8976C56.9469 84.1774 57.3339 83.9153 57.789 83.8285C58.4329 83.7052 59.0905 83.6788 59.7367 83.5714C60.7426 83.4039 61.7336 83.2775 62.7398 83.1096C63.5987 82.9662 64.5678 82.9153 65.4214 83.0804C65.8337 83.1602 66.4542 83.3176 66.8215 83.5849C67.1102 83.795 67.375 84.2792 67.6856 84.5191C68.0272 82.6322 67.8674 80.3063 67.8834 78.3673C67.8965 76.7845 67.949 75.2367 68.0597 73.6613C68.1837 71.8993 67.3824 69.8955 67.0865 68.1698C66.8096 66.5546 66.0718 64.5077 66.3434 62.8217C66.6858 60.6966 67.5821 64.5143 67.7053 65.0602C68.0911 66.768 68.5389 68.4352 68.9665 70.1228C69.475 72.1305 69.9875 74.0758 70.7282 75.957C71.3446 77.5225 72.0529 79.3589 73.3197 80.1225C73.2152 77.8202 73.0991 75.6886 72.3876 73.566C71.7129 71.5532 70.6839 69.7633 70.2341 67.6065C70.0107 66.5347 69.9779 65.4386 69.9668 64.3316C69.9593 63.5868 69.9847 62.5856 70.5786 63.3886C71.0495 64.0254 71.1409 66.0565 71.3471 66.9139C71.4464 67.3265 71.5839 67.7053 71.6936 68.1066C71.743 68.2873 72.0756 69.1679 72.0756 69.286C72.4185 70.6778 73.1766 72.0127 73.7093 73.2934Z" fill="#C4C5C5"/>
<path fill-rule="evenodd" clip-rule="evenodd" d="M37.3442 22.5557C37.3769 23.0948 37.6094 24.492 37.3117 24.9187C36.9171 25.4847 36.7301 24.7566 36.5594 24.1826C36.2028 22.9831 36.0255 20.6603 36.7303 19.6607C37.466 18.6169 38.9197 18.5887 39.7049 17.5492C40.02 17.1316 39.9898 17.2188 39.9623 16.5659C39.9468 16.1973 39.7695 15.7075 39.6838 15.3761C39.4611 14.5152 39.2167 13.6646 38.9837 12.8087C38.5766 13.0583 37.9907 13.8284 37.5896 13.1829C37.2188 12.5861 37.8357 11.6083 38.2653 11.4338C38.0409 10.7743 36.9843 10.8962 36.783 9.92742C36.608 9.08542 37.1106 9.42 37.2205 9.08838C37.3499 8.69816 37.0849 8.17062 37.2213 7.81108C37.6944 6.56258 38.2184 8.85813 38.454 9.26788C38.8924 10.03 39.6561 10.1964 39.7233 11.3492C39.7648 12.0589 39.7251 12.3889 39.9425 13.0859C40.1426 13.7275 40.3804 14.3428 40.5483 15.0031C40.801 15.9979 41.1907 17.8084 40.6968 18.7718C40.2803 19.5843 39.269 20.2038 38.6113 20.5512C38.282 20.7251 37.8253 20.8311 37.5589 21.1698C37.2111 21.6116 37.3194 21.8832 37.3442 22.5557Z" fill="#C4C5C5"/>
<path fill-rule="evenodd" clip-rule="evenodd" d="M71.5135 52.6394C71.4384 52.4804 71.3633 52.3215 71.2883 52.1624C70.7678 52.9102 70.1915 53.2175 69.6655 52.2676C69.1238 51.2898 69.3272 49.8235 69.5379 48.7555C69.6462 48.2059 70.1944 46.0391 70.5456 47.6898C70.623 48.0541 70.364 48.8653 70.3171 49.2219C70.2249 49.9216 70.1523 50.5927 70.2172 51.3052C70.8273 50.5706 71.1261 48.7083 71.7454 50.6421C71.9699 51.3434 71.9945 52.4982 72.5923 51.433C72.9115 50.8642 72.9319 49.8142 73.0813 49.144C74.1004 49.4717 73.9147 51.4987 73.5745 52.4863C73.0328 54.0589 72.2959 53.5525 71.5135 52.6394Z" fill="#C4C5C5"/>
<path fill-rule="evenodd" clip-rule="evenodd" d="M75.0812 17.3627C75.4437 18.1759 74.758 19.6629 74.6338 20.4978C75.241 20.4032 76.7436 18.4332 77.1665 18.758C78.0469 19.434 76.1872 21.7916 75.8299 22.1371C72.9741 24.8981 73.489 16.9115 75.0812 17.3627Z" fill="#C4C5C5"/>
<path fill-rule="evenodd" clip-rule="evenodd" d="M71.5002 26.4179C72.5671 26.0183 74.0058 28.594 73.3138 29.8696C72.8173 30.7846 72.2039 30.2613 72.0483 29.4559C71.9691 29.0451 72.0394 28.5501 71.9357 28.0919C71.8081 27.5278 71.637 26.9784 71.5002 26.4179Z" fill="#C4C5C5"/>
<path fill-rule="evenodd" clip-rule="evenodd" d="M38.685 15.3154C39.4964 16.2327 37.8384 18.4691 37.0073 16.718C36.7787 16.2363 36.7371 15.7967 37.0761 15.6188C37.2472 15.5291 37.6509 15.8228 37.8925 15.7709C38.1573 15.7139 38.4449 15.4634 38.685 15.3154Z" fill="#C4C5C5"/>
<path fill-rule="evenodd" clip-rule="evenodd" d="M35.8968 11.6475C35.582 11.1192 34.6972 7.86962 35.7936 8.5934C36.3442 8.95683 36.7993 11.7348 35.8968 11.6475Z" fill="#C4C5C5"/>
<path fill-rule="evenodd" clip-rule="evenodd" d="M72.0993 81.5393C72.0681 81.1292 72.037 80.719 72.0059 80.3088C72.4107 80.5866 73.223 80.8608 73.3639 81.4825C73.6286 82.6503 72.3994 81.7161 72.0993 81.5393Z" fill="#C4C5C5"/>
<path fill-rule="evenodd" clip-rule="evenodd" d="M83.8514 32.0756C83.6103 31.6374 82.8603 27.9825 83.5109 28.0661C83.6249 29.392 83.6483 30.7689 83.8514 32.0756Z" fill="#C4C5C5"/>
<path fill-rule="evenodd" clip-rule="evenodd" d="M73.7093 73.2933C73.1765 72.0127 72.4185 70.6778 72.0756 69.2859C72.8793 70.1613 73.5072 71.9498 73.7093 73.2933Z" fill="#C4C5C5"/>
<path fill-rule="evenodd" clip-rule="evenodd" d="M95.5597 70.3245C95.5922 70.7887 95.6246 71.2527 95.6571 71.7168C95.1744 71.8845 95.5301 70.4776 95.5597 70.3245Z" fill="#C4C5C5"/>
<path fill-rule="evenodd" clip-rule="evenodd" d="M72.0766 69.2881C71.8481 68.9536 71.7503 68.5422 71.6936 68.1067C71.8212 68.5003 71.9488 68.8942 72.0766 69.2881Z" fill="#C4C5C5"/>
<path fill-rule="evenodd" clip-rule="evenodd" d="M74.8398 90.301C74.8483 89.888 74.8568 89.475 74.8653 89.063C74.8568 89.4761 74.8483 89.8886 74.8398 90.301Z" fill="#C4C5C5"/>
<path fill-rule="evenodd" clip-rule="evenodd" d="M38.7433 23.2881C38.9477 23.3223 39.1522 23.3565 39.3567 23.3906C39.1953 23.4923 38.8151 23.6274 38.7433 23.2881Z" fill="#C4C5C5"/>
<path fill-rule="evenodd" clip-rule="evenodd" d="M79.5139 94.6357C79.7267 94.5925 79.9401 94.4941 80.1491 94.6525C79.937 94.647 79.7255 94.6414 79.5139 94.6357Z" fill="#C4C5C5"/>
<path fill-rule="evenodd" clip-rule="evenodd" d="M73.4357 85.3057C73.4385 85.6115 73.4414 85.9174 73.4439 86.2222C73.441 85.9161 73.4383 85.6109 73.4357 85.3057Z" fill="#C4C5C5"/>
<path fill-rule="evenodd" clip-rule="evenodd" d="M77.831 80.5459C77.8176 80.8722 77.8042 81.1983 77.7909 81.5239C77.8043 81.1974 77.8176 80.8717 77.831 80.5459Z" fill="#C4C5C5"/>
<path fill-rule="evenodd" clip-rule="evenodd" d="M74.9371 81.8226C74.9256 81.5387 74.914 81.2549 74.9026 80.9717C74.9141 81.2557 74.9257 81.5392 74.9371 81.8226Z" fill="#C4C5C5"/>
<path fill-rule="evenodd" clip-rule="evenodd" d="M81.2583 84.3264C81.2469 84.5792 81.2356 84.8321 81.2241 85.0842C81.2356 84.8312 81.2469 84.5787 81.2583 84.3264Z" fill="#C4C5C5"/>
<path fill-rule="evenodd" clip-rule="evenodd" d="M43.0647 90.7127C42.8578 90.853 42.651 90.8669 42.4447 90.7109C42.6515 90.7115 42.8581 90.7121 43.0647 90.7127Z" fill="#C4C5C5"/>
<path fill-rule="evenodd" clip-rule="evenodd" d="M64.2449 14.3254C64.2477 14.5754 64.2507 14.8253 64.2536 15.0742C64.2505 14.824 64.2476 14.5748 64.2449 14.3254Z" fill="#C4C5C5"/>
<path fill-rule="evenodd" clip-rule="evenodd" d="M43.6957 21.1448C43.4837 21.1664 43.2717 21.1878 43.0599 21.2094C43.2718 21.1878 43.4838 21.1664 43.6957 21.1448Z" fill="#C4C5C5"/>
<path fill-rule="evenodd" clip-rule="evenodd" d="M87.4702 22.1065C87.4691 21.8599 87.468 21.6132 87.4672 21.3669C87.5644 21.6132 87.5663 21.8596 87.4702 22.1065Z" fill="#C4C5C5"/>
<path fill-rule="evenodd" clip-rule="evenodd" d="M37.3441 22.5559C37.3344 22.2938 37.3248 22.0319 37.3152 21.7703C37.325 22.0325 37.3345 22.2941 37.3441 22.5559Z" fill="#C4C5C5"/>
<path fill-rule="evenodd" clip-rule="evenodd" d="M89.418 99.979C89.5611 99.9803 89.7043 99.9817 89.8461 99.983C89.7025 99.9817 89.5602 99.9803 89.418 99.979Z" fill="#C4C5C5"/>
<path fill-rule="evenodd" clip-rule="evenodd" d="M33.0837 0.0441895C32.8955 0.0657943 32.7073 0.0873992 32.519 0.108856C32.7073 0.0873992 32.8955 0.0657943 33.0837 0.0441895Z" fill="#C4C5C5"/>
<path fill-rule="evenodd" clip-rule="evenodd" d="M51.6488 96.7197C51.7701 96.7187 51.8915 96.7177 52.0114 96.7187C51.8896 96.7197 51.7693 96.7197 51.6488 96.7197Z" fill="#C4C5C5"/>
<path fill-rule="evenodd" clip-rule="evenodd" d="M70.4463 28.2329C70.2623 28.2082 70.0782 28.1833 69.8943 28.1584C70.0783 28.1833 70.2624 28.2082 70.4463 28.2329Z" fill="#C4C5C5"/>
<path fill-rule="evenodd" clip-rule="evenodd" d="M78.8123 96.2866C78.8236 96.0825 78.8348 95.8785 78.8461 95.6753C78.8348 95.8797 78.8236 96.0831 78.8123 96.2866Z" fill="#C4C5C5"/>
<path fill-rule="evenodd" clip-rule="evenodd" d="M58.8896 25.6202C58.7085 25.618 58.5273 25.6159 58.3462 25.6138C58.5283 25.4721 58.7091 25.5126 58.8896 25.6202Z" fill="#C4C5C5"/>
<path fill-rule="evenodd" clip-rule="evenodd" d="M34.7132 0.112423C34.5306 0.10458 34.3375 0.232581 34.1692 0.0378418C34.3506 0.0627022 34.5319 0.0875628 34.7132 0.112423Z" fill="#C4C5C5"/>
<path fill-rule="evenodd" clip-rule="evenodd" d="M29.7808 24.196C29.6058 24.2176 29.4307 24.2393 29.2557 24.2607C29.4309 24.2391 29.6058 24.2176 29.7808 24.196Z" fill="#C4C5C5"/>
<path fill-rule="evenodd" clip-rule="evenodd" d="M40.8084 90.5012C40.624 90.5271 40.4395 90.553 40.2554 90.5789C40.4397 90.553 40.6241 90.5271 40.8084 90.5012Z" fill="#C4C5C5"/>
<path fill-rule="evenodd" clip-rule="evenodd" d="M45.3982 20.9953C45.2184 21.0005 45.0385 21.0057 44.8589 21.0108C45.0372 20.9148 45.2157 20.8242 45.3982 20.9953Z" fill="#C4C5C5"/>
<path fill-rule="evenodd" clip-rule="evenodd" d="M74.8332 87.156C74.8322 86.9463 74.8311 86.7366 74.8301 86.5273C74.8311 86.7372 74.8322 86.9466 74.8332 87.156Z" fill="#C4C5C5"/>
<path fill-rule="evenodd" clip-rule="evenodd" d="M95.6257 69.3748C95.6064 69.6282 95.5869 69.8816 95.5676 70.1351C95.5869 69.8817 95.6064 69.6282 95.6257 69.3748Z" fill="#C4C5C5"/>
<path fill-rule="evenodd" clip-rule="evenodd" d="M72.2943 85.7116C72.2809 85.4959 72.2676 85.2801 72.2543 85.0649C72.2676 85.2808 72.281 85.4963 72.2943 85.7116Z" fill="#C4C5C5"/>
<path fill-rule="evenodd" clip-rule="evenodd" d="M11.8111 83.7295C11.7782 83.9447 11.6616 83.987 11.4613 83.8565L11.8111 83.7295Z" fill="#C4C5C5"/>
<path fill-rule="evenodd" clip-rule="evenodd" d="M79.0068 83.8252C78.996 83.6377 78.9854 83.4502 78.9749 83.2632C78.9856 83.4508 78.9961 83.638 79.0068 83.8252Z" fill="#C4C5C5"/>
<path fill-rule="evenodd" clip-rule="evenodd" d="M41.3321 21.447C41.1808 21.4747 41.0294 21.5022 40.8782 21.5299C41.0295 21.5022 41.1808 21.4747 41.3321 21.447Z" fill="#C4C5C5"/>
<path fill-rule="evenodd" clip-rule="evenodd" d="M73.3453 82.2271C73.3449 82.4111 73.3444 82.5952 73.3438 82.7787C73.3444 82.5943 73.3449 82.4107 73.3453 82.2271Z" fill="#C4C5C5"/>
<path fill-rule="evenodd" clip-rule="evenodd" d="M64.2178 16.1418C64.2182 16.316 64.2186 16.49 64.2191 16.6633C64.2186 16.489 64.2182 16.3154 64.2178 16.1418Z" fill="#C4C5C5"/>
<path fill-rule="evenodd" clip-rule="evenodd" d="M9.02915 56.9348C9.01419 57.1183 8.99923 57.3019 8.98438 57.4847C8.99934 57.3009 9.01419 57.1179 9.02915 56.9348Z" fill="#C4C5C5"/>
<path fill-rule="evenodd" clip-rule="evenodd" d="M99.6709 69.5501C99.6629 69.3773 99.6549 69.2044 99.6469 69.0325C99.6549 69.2056 99.6629 69.3779 99.6709 69.5501Z" fill="#C4C5C5"/>
<path fill-rule="evenodd" clip-rule="evenodd" d="M21.5227 92.3612C21.3664 92.3577 21.21 92.3545 21.0537 92.3511C21.2119 92.2053 21.3678 92.2366 21.5227 92.3612Z" fill="#C4C5C5"/>
<path fill-rule="evenodd" clip-rule="evenodd" d="M39.7271 11.6089C39.7245 11.4356 39.722 11.2623 39.7195 11.0896C39.7998 11.2611 39.8255 11.4334 39.7271 11.6089Z" fill="#C4C5C5"/>
<path fill-rule="evenodd" clip-rule="evenodd" d="M27.2454 9.41112C27.2563 9.24021 27.2671 9.06929 27.2779 8.89941C27.267 9.07063 27.2563 9.2408 27.2454 9.41112Z" fill="#C4C5C5"/>
<path fill-rule="evenodd" clip-rule="evenodd" d="M78.9146 69.2411C78.9092 69.0527 78.9037 68.8644 78.8986 68.6763C78.904 68.8648 78.9092 69.053 78.9146 69.2411Z" fill="#C4C5C5"/>
<path fill-rule="evenodd" clip-rule="evenodd" d="M77.9084 78.9729C77.9045 79.1506 77.9007 79.3282 77.8966 79.5049C77.9003 79.3269 77.9044 79.1499 77.9084 78.9729Z" fill="#C4C5C5"/>
<path fill-rule="evenodd" clip-rule="evenodd" d="M59.915 96.1079C60.0131 96.1067 60.111 96.1055 60.2078 96.1061C60.1095 96.1079 60.0123 96.1079 59.915 96.1079Z" fill="#C4C5C5"/>
<path fill-rule="evenodd" clip-rule="evenodd" d="M12.248 96.1965C12.3458 96.2001 12.4435 96.2036 12.5401 96.2073C12.442 96.2038 12.345 96.2002 12.248 96.1965Z" fill="#C4C5C5"/>
<path fill-rule="evenodd" clip-rule="evenodd" d="M71.3765 80.6041C70.4231 79.6131 69.5918 78.1311 69.3983 76.5444C69.8083 77.1676 70.153 77.8629 70.5631 78.4856C70.7261 78.7329 70.926 78.946 71.0825 79.1978C71.4393 79.7724 71.3765 79.7979 71.3765 80.6041Z" fill="#C4C5C5"/>
<path fill-rule="evenodd" clip-rule="evenodd" d="M68.027 73.9054C67.5693 72.4875 67.1721 70.7676 67.2518 69.2031C67.5676 70.6234 68.3 72.4076 68.027 73.9054Z" fill="#C4C5C5"/>
<path fill-rule="evenodd" clip-rule="evenodd" d="M69.5623 82.2432C69.5546 82.6548 69.5468 83.0665 69.5394 83.4772C69.5473 83.065 69.5548 82.6541 69.5623 82.2432Z" fill="#C4C5C5"/>
<path fill-rule="evenodd" clip-rule="evenodd" d="M9.04553 93.4326C9.35829 93.4576 9.67116 93.4826 9.98392 93.5076C9.66973 93.5133 9.35136 93.6157 9.04553 93.4326Z" fill="#C4C5C5"/>
<path fill-rule="evenodd" clip-rule="evenodd" d="M69.5608 80.8833C69.5619 81.2343 69.563 81.5855 69.5641 81.9356C69.563 81.5843 69.5619 81.2339 69.5608 80.8833Z" fill="#C4C5C5"/>
<path fill-rule="evenodd" clip-rule="evenodd" d="M56.7098 40.1825C56.5337 40.1702 56.3576 40.1578 56.1829 40.1455C56.3594 40.1578 56.5347 40.1702 56.7098 40.1825Z" fill="#C4C5C5"/>
<path fill-rule="evenodd" clip-rule="evenodd" d="M59.5742 31.4514C59.5736 31.1665 59.5729 30.8817 59.5723 30.5974C59.5728 30.8824 59.5736 31.167 59.5742 31.4514Z" fill="#C4C5C5"/>
<path fill-rule="evenodd" clip-rule="evenodd" d="M55.7926 38.5973C55.7846 38.3969 55.7053 38.296 55.5546 38.2947C55.8571 38.0748 55.9365 38.1757 55.7926 38.5973Z" fill="#C4C5C5"/>
<path fill-rule="evenodd" clip-rule="evenodd" d="M64.764 54.4447C64.7758 54.1912 64.7877 53.9377 64.7995 53.6848C64.7876 53.9384 64.7758 54.1916 64.764 54.4447Z" fill="#C4C5C5"/>
<path fill-rule="evenodd" clip-rule="evenodd" d="M13.4862 93.6117C13.6972 93.592 13.9082 93.5722 14.1192 93.5525C13.9081 93.5722 13.6972 93.592 13.4862 93.6117Z" fill="#C4C5C5"/>
<path fill-rule="evenodd" clip-rule="evenodd" d="M57.8025 59.1971L58.4303 59.1912C58.221 59.1932 58.0117 59.1952 57.8025 59.1971Z" fill="#C4C5C5"/>
<path fill-rule="evenodd" clip-rule="evenodd" d="M63.7955 28.3074C63.6495 28.309 63.5036 28.3106 63.3589 28.3121C63.5054 28.3105 63.6504 28.309 63.7955 28.3074Z" fill="#C4C5C5"/>
<path fill-rule="evenodd" clip-rule="evenodd" d="M94.2317 96.8983C94.4147 96.8971 94.5977 96.8961 94.7808 96.895C94.5982 97.05 94.4152 97.046 94.2317 96.8983Z" fill="#C4C5C5"/>
<path fill-rule="evenodd" clip-rule="evenodd" d="M17.3869 62.8188C17.2628 62.8236 17.1388 62.8283 17.0159 62.8331C17.1404 62.8283 17.2636 62.8236 17.3869 62.8188Z" fill="#C4C5C5"/>
<path fill-rule="evenodd" clip-rule="evenodd" d="M83.3013 25.9382C83.4188 26.0907 83.2643 26.4411 83.1244 26.3203C83.1834 26.1929 83.2423 26.0656 83.3013 25.9382Z" fill="#C4C5C5"/>
<path fill-rule="evenodd" clip-rule="evenodd" d="M25.9281 78.2481C25.9333 78.0325 25.9386 77.8167 25.9437 77.6016C25.9384 77.8173 25.9333 78.0328 25.9281 78.2481Z" fill="#C4C5C5"/>
<path fill-rule="evenodd" clip-rule="evenodd" d="M67.8834 78.3674C67.8919 78.1424 67.9004 77.9175 67.9086 77.6929C67.9001 77.9179 67.8918 78.1426 67.8834 78.3674Z" fill="#C4C5C5"/>
<path fill-rule="evenodd" clip-rule="evenodd" d="M97.1626 54.9248C97.1695 55.15 97.1766 55.3753 97.1834 55.5997C97.1765 55.3744 97.1694 55.1496 97.1626 54.9248Z" fill="#C4C5C5"/>
<path fill-rule="evenodd" clip-rule="evenodd" d="M40.6241 80.4314C40.8116 80.453 40.999 80.4745 41.1864 80.4959C40.999 80.4745 40.8115 80.453 40.6241 80.4314Z" fill="#C4C5C5"/>
<path fill-rule="evenodd" clip-rule="evenodd" d="M66.3297 63.1569C66.3388 62.9331 66.3481 62.7094 66.3572 62.4861C66.348 62.71 66.3388 62.9334 66.3297 63.1569Z" fill="#C4C5C5"/>
<path fill-rule="evenodd" clip-rule="evenodd" d="M33.762 67.4128C33.9488 67.4361 34.1356 67.4592 34.3224 67.4822C34.1356 67.459 33.9488 67.4359 33.762 67.4128Z" fill="#C4C5C5"/>
<path fill-rule="evenodd" clip-rule="evenodd" d="M50.2915 86.9766C50.1712 86.9776 50.0509 86.9776 49.9319 86.9776C50.0527 86.9766 50.1721 86.9766 50.2915 86.9766Z" fill="#C4C5C5"/>
<path fill-rule="evenodd" clip-rule="evenodd" d="M60.9026 32.2927C60.8954 32.5018 60.8883 32.7108 60.8813 32.9188C60.8886 32.7096 60.8956 32.5011 60.9026 32.2927Z" fill="#C4C5C5"/>
<path fill-rule="evenodd" clip-rule="evenodd" d="M63.5677 83.0084C63.7527 82.8318 63.9325 82.9484 64.1131 83.025C63.9312 83.0195 63.7495 83.0139 63.5677 83.0084Z" fill="#C4C5C5"/>
<path fill-rule="evenodd" clip-rule="evenodd" d="M41.9495 23.183C41.8279 23.1763 41.7063 23.1695 41.5859 23.1621C41.708 23.1688 41.8287 23.1759 41.9495 23.183Z" fill="#C4C5C5"/>
<path fill-rule="evenodd" clip-rule="evenodd" d="M71.428 86.8535C71.417 86.6453 71.4062 86.4372 71.3953 86.2297C71.4062 86.4382 71.417 86.6458 71.428 86.8535Z" fill="#C4C5C5"/>
<path fill-rule="evenodd" clip-rule="evenodd" d="M61.4716 63.3557C61.3713 63.3566 61.2711 63.3575 61.1721 63.3587C61.2728 63.3579 61.3722 63.3567 61.4716 63.3557Z" fill="#C4C5C5"/>
<path fill-rule="evenodd" clip-rule="evenodd" d="M65.6993 70.9165C65.6998 70.7429 65.7002 70.5692 65.7007 70.3965C65.7002 70.5704 65.6998 70.7435 65.6993 70.9165Z" fill="#C4C5C5"/>
<path fill-rule="evenodd" clip-rule="evenodd" d="M59.2867 83.6499C59.4369 83.6237 59.587 83.5975 59.7369 83.5713C59.5867 83.5975 59.4367 83.6237 59.2867 83.6499Z" fill="#C4C5C5"/>
<path fill-rule="evenodd" clip-rule="evenodd" d="M52.7969 58.3899C52.9595 58.3886 53.1221 58.3871 53.2847 58.3857C53.1226 58.5142 52.9599 58.4901 52.7969 58.3899Z" fill="#C4C5C5"/>
<path fill-rule="evenodd" clip-rule="evenodd" d="M61.2198 37.1367C61.1259 37.1355 61.0319 37.1343 60.9392 37.1333C61.0336 37.1343 61.1267 37.1355 61.2198 37.1367Z" fill="#C4C5C5"/>
<path fill-rule="evenodd" clip-rule="evenodd" d="M33.453 69.3441C33.3561 69.3423 33.2593 69.3405 33.1636 69.3386C33.2609 69.3405 33.357 69.3423 33.453 69.3441Z" fill="#C4C5C5"/>
<path fill-rule="evenodd" clip-rule="evenodd" d="M14.7335 60.7971C14.8958 60.7993 15.0581 60.8017 15.2203 60.8039C15.0571 60.9272 14.8948 60.9304 14.7335 60.7971Z" fill="#C4C5C5"/>
<path fill-rule="evenodd" clip-rule="evenodd" d="M97.1784 61.1582C97.1681 61.3247 97.1579 61.4913 97.1481 61.6569C97.1583 61.49 97.1683 61.3241 97.1784 61.1582Z" fill="#C4C5C5"/>
<path fill-rule="evenodd" clip-rule="evenodd" d="M55.8682 87.9225C55.8819 87.7406 55.8958 87.5587 55.9095 87.3774C55.8957 87.5596 55.8819 87.741 55.8682 87.9225Z" fill="#C4C5C5"/>
<path fill-rule="evenodd" clip-rule="evenodd" d="M29.6304 66.2559C29.7943 66.259 29.9583 66.2622 30.1223 66.2653C29.9567 66.4188 29.7936 66.3222 29.6304 66.2559Z" fill="#C4C5C5"/>
<path fill-rule="evenodd" clip-rule="evenodd" d="M67.0122 34.3314C67.1717 34.3071 67.3311 34.2828 67.4906 34.2585C67.3311 34.2828 67.1717 34.3071 67.0122 34.3314Z" fill="#C4C5C5"/>
<path fill-rule="evenodd" clip-rule="evenodd" d="M53.6852 92.6123C53.6996 92.8033 53.714 92.9944 53.7283 93.1848C53.7139 92.9936 53.6995 92.803 53.6852 92.6123Z" fill="#C4C5C5"/>
<path fill-rule="evenodd" clip-rule="evenodd" d="M67.8867 80.0478C67.8863 79.8695 67.8856 79.6913 67.8854 79.5139C67.8858 79.6925 67.8863 79.8701 67.8867 80.0478Z" fill="#C4C5C5"/>
<path fill-rule="evenodd" clip-rule="evenodd" d="M10.0615 93.533C10.2159 93.5603 10.3702 93.5876 10.5244 93.6149C10.3701 93.5876 10.2158 93.5603 10.0615 93.533Z" fill="#C4C5C5"/>
<path fill-rule="evenodd" clip-rule="evenodd" d="M12.957 93.6169C13.1094 93.4494 13.2641 93.5007 13.4193 93.608C13.2652 93.611 13.111 93.6139 12.957 93.6169Z" fill="#C4C5C5"/>
<path fill-rule="evenodd" clip-rule="evenodd" d="M40.7996 69.0646C40.9505 69.0397 41.1014 69.0149 41.2521 68.99C41.1012 69.0149 40.9504 69.0397 40.7996 69.0646Z" fill="#C4C5C5"/>
<path fill-rule="evenodd" clip-rule="evenodd" d="M57.5701 94.5606C57.7239 94.5329 57.8777 94.5052 58.0315 94.4775C57.8776 94.5052 57.7239 94.5329 57.5701 94.5606Z" fill="#C4C5C5"/>
<path fill-rule="evenodd" clip-rule="evenodd" d="M52.1908 94.8818C52.3477 94.8547 52.5044 94.8276 52.6613 94.8005C52.5044 94.8276 52.3477 94.8547 52.1908 94.8818Z" fill="#C4C5C5"/>
<path fill-rule="evenodd" clip-rule="evenodd" d="M60.8262 33.5566C60.8193 33.727 60.8124 33.8974 60.8057 34.0667C60.8126 33.896 60.8194 33.7262 60.8262 33.5566Z" fill="#C4C5C5"/>
<path fill-rule="evenodd" clip-rule="evenodd" d="M23.8842 74.1722C23.8981 73.9913 23.9121 73.8104 23.9261 73.6301C23.912 73.8113 23.8981 73.9918 23.8842 74.1722Z" fill="#C4C5C5"/>
<path fill-rule="evenodd" clip-rule="evenodd" d="M59.6151 29.1508C59.6192 28.9733 59.6233 28.7959 59.6274 28.6194C59.6235 28.7971 59.6193 28.9739 59.6151 29.1508Z" fill="#C4C5C5"/>
<path fill-rule="evenodd" clip-rule="evenodd" d="M29.6582 72.1606C29.6721 72.3418 29.6859 72.5229 29.6997 72.7033C29.6858 72.5219 29.672 72.3413 29.6582 72.1606Z" fill="#C4C5C5"/>
<path fill-rule="evenodd" clip-rule="evenodd" d="M30.178 66.2576C30.3371 66.2812 30.4961 66.3048 30.6551 66.3285C30.496 66.3048 30.3369 66.2812 30.178 66.2576Z" fill="#C4C5C5"/>
<path fill-rule="evenodd" clip-rule="evenodd" d="M55.5015 92.6608C55.5922 93.0184 55.5589 93.8505 55.3017 94.1025C54.768 94.6258 54.7131 93.6703 54.6072 93.1541C54.3133 91.7225 53.8402 90.1237 53.7196 88.6518C53.6826 88.2003 53.6626 87.3546 54.1066 87.2023C54.5352 87.0555 54.7523 87.9688 54.9001 88.4379C55.3101 89.7395 55.548 91.2495 55.5015 92.6608Z" fill="#C4C5C5"/>
<path fill-rule="evenodd" clip-rule="evenodd" d="M55.5016 92.6608C55.5076 92.4758 55.5138 92.291 55.5199 92.1069C55.5137 92.2921 55.5076 92.4764 55.5016 92.6608Z" fill="#C4C5C5"/>
</svg>
