<svg width="613" height="698" viewBox="0 0 613 698" fill="none" xmlns="http://www.w3.org/2000/svg">
<path fill-rule="evenodd" clip-rule="evenodd" d="M582.025 469.269C584.909 473.664 587.793 478.058 590.822 482.35C591.267 482.981 591.722 483.616 592.181 484.256C596.471 490.242 601.066 496.655 600.997 504.268C600.964 508.013 600.42 512.15 596.81 514.162C596.728 512.704 594.64 514.146 593.938 514.63C593.897 514.659 593.86 514.684 593.829 514.705C592.577 515.557 592.329 515.917 592.016 515.987C591.726 516.052 591.38 515.867 590.13 515.591C588.555 515.243 587.066 515.201 585.616 515.16C583.18 515.091 580.853 515.025 578.407 513.522C576.04 512.068 573.682 510.601 571.325 509.135C565.442 505.477 559.564 501.821 553.548 498.356C535.338 487.869 517.309 477.131 500.416 464.597C491.052 457.649 481.431 450.93 471.793 444.199C451.035 429.703 430.195 415.149 411.661 398.128C384.542 373.224 356.083 348.515 323.902 330.3C323.419 330.027 322.735 329.723 321.97 329.383C319.316 328.205 315.69 326.595 316.132 324.335C316.505 322.433 319.687 319.962 322.091 318.095C322.914 317.456 323.645 316.888 324.142 316.438C326.54 314.265 328.972 312.134 331.405 310.003C335.839 306.119 340.272 302.235 344.488 298.105C356.541 286.298 368.504 273.267 378.172 259.413C382.403 253.349 384.77 246.674 387.202 239.815C387.473 239.05 387.744 238.284 388.02 237.515C390.443 230.751 392.683 222.424 388.75 215.733C386.929 212.633 384.415 211.376 380.899 211.611C380.434 211.642 380.047 211.683 379.72 211.718C377.998 211.902 377.935 211.908 376.966 209.314C376.813 208.905 376.664 208.488 376.513 208.068C375.44 205.071 374.304 201.899 371.383 200.212C368.223 198.387 365.986 200.015 363.485 201.834C363.255 202.002 363.022 202.171 362.786 202.339C362.261 201.581 361.716 200.732 361.144 199.84C358.215 195.275 354.568 189.591 349.145 189.219C342.418 188.758 338.58 197.017 336.238 202.055L336.196 202.145C329.286 217.015 320.294 230.905 310.624 244.147C300.142 258.501 289.426 273.102 277.877 286.618C277.35 287.235 276.807 287.914 276.245 288.616C274.203 291.167 271.913 294.03 269.211 295.391C265.677 297.173 262.744 295.499 259.757 293.45C258.119 292.326 256.491 291.196 254.866 290.066C249.505 286.342 244.165 282.633 238.541 279.241C232.326 275.491 225.977 271.983 219.626 268.474C217.682 267.4 215.738 266.325 213.797 265.244C212.348 264.437 210.928 263.564 209.508 262.69C207.348 261.362 205.186 260.033 202.915 258.93C200.912 257.957 198.807 257.265 196.701 256.572C195.12 256.052 193.538 255.532 191.999 254.892C204.344 251.212 217.306 255.494 229.151 259.406C229.954 259.672 230.753 259.935 231.545 260.195C238.021 262.314 244.794 264.521 251.708 263.951C257.688 263.459 263.115 260.257 267.845 256.76C276.395 250.438 277.066 240.943 274.278 231.346C272.392 224.85 269.917 218.501 267.445 212.156C265.713 207.712 263.982 203.27 262.455 198.782C260.769 193.826 259.607 188.563 263.446 184.281C266.881 180.449 271.326 179.978 276.014 181.486C276.48 181.636 276.943 181.785 277.405 181.934C288.212 185.419 297.965 188.564 309.652 188.231C319.179 187.96 331.297 185.256 337.716 177.514C341.234 173.27 341.368 167.435 341.382 162.171C341.4 155.932 341.006 149.658 340.133 143.482C339.798 141.111 339.347 138.738 338.898 136.369C337.257 127.728 335.624 119.125 339.602 110.728C340.79 108.219 344.098 102.374 347.372 102.024C350.907 101.646 351.739 105.882 352.261 108.54C352.324 108.862 352.383 109.161 352.441 109.425C352.982 109.084 353.502 108.979 353.963 108.886C354.804 108.716 355.45 108.586 355.673 107.132C359.053 110.673 361.962 114.58 364.874 118.491C366.124 120.171 367.375 121.851 368.664 123.504C370.499 125.856 372.793 127.993 375.089 130.132C377.943 132.79 380.798 135.449 382.77 138.523C384.778 141.652 383.251 145.858 381.819 149.802C381.096 151.794 380.398 153.718 380.191 155.403C379.496 161.062 380.973 167.538 384.838 171.853C386.646 173.87 388.857 175.272 391.529 175.814C392.951 176.102 394.336 175.79 395.674 175.488C396.837 175.226 397.966 174.972 399.054 175.126C400.701 175.359 401.012 176.318 401.481 177.768C401.565 178.027 401.655 178.302 401.757 178.591C402.685 181.207 403.869 183.677 406.06 185.515C406.977 186.283 407.919 186.846 408.838 187.396C410.373 188.314 411.841 189.192 413.01 190.917C413.413 191.513 413.774 192.104 414.126 192.681C415.197 194.437 416.191 196.068 418.094 197.325C418.964 197.899 419.968 198.37 420.974 198.842C423.874 200.202 426.789 201.568 426.518 205.433L428.258 204.05C429.603 208.373 431.454 212.559 433.431 216.624C434.357 218.529 434.833 219.541 434.785 221.66C434.775 222.117 434.686 222.537 434.6 222.944C434.423 223.779 434.258 224.555 434.815 225.464C435.535 226.639 436.909 227.089 438.273 227.536C439.419 227.911 440.558 228.284 441.296 229.082C442.093 229.946 442.108 230.957 442.123 231.949C442.139 233.017 442.155 234.061 443.148 234.871C442.341 235.119 440.106 236.925 440.946 238.022C441.676 238.974 441.999 238.563 442.326 238.146C442.541 237.872 442.758 237.595 443.093 237.698C444.143 238.02 444.507 238.874 444.858 239.696C445.157 240.399 445.447 241.079 446.147 241.383C446.463 241.521 446.434 240.026 446.418 239.675C450.981 248.669 455.951 257.445 460.921 266.22C467.389 277.639 473.855 289.055 479.416 300.942C496.919 338.357 517.727 374.788 540.738 409.106C542.544 411.799 544.408 414.486 546.276 417.179C550.025 422.583 553.792 428.012 557.142 433.569C560.321 438.845 563.995 443.743 567.673 448.648C569.829 451.523 571.987 454.4 574.048 457.356C576.781 461.276 579.403 465.273 582.025 469.269ZM446.414 239.666C446.411 239.571 446.414 239.588 446.418 239.675C446.417 239.672 446.415 239.669 446.414 239.666ZM73.9753 209.625C73.9213 210.313 73.8663 211.017 74.1003 211.815C74.3383 212.631 75.0183 213.244 75.6923 213.851C76.1743 214.286 76.6533 214.717 76.9643 215.218C79.4673 211.533 79.3803 203.641 77.8533 199.701C77.1323 197.84 75.7683 195.417 74.6883 193.783C74.5193 193.528 74.2423 193.25 73.9743 192.981C73.6783 192.684 73.3943 192.399 73.2773 192.167C73.0913 191.797 73.0063 191.294 72.9203 190.784C72.8283 190.243 72.7363 189.695 72.5193 189.294C71.3053 187.038 68.6483 186.481 66.3133 186.748C66.0623 186.777 65.8083 186.805 65.5503 186.833C63.4103 187.067 61.0713 187.323 59.1613 188.252C58.5673 188.541 58.0623 188.895 57.5783 189.234C56.4523 190.023 55.4453 190.729 53.7213 190.333C54.3393 191.398 53.8643 192.178 53.3693 192.992C53.0833 193.463 52.7893 193.945 52.6973 194.501C52.3733 196.447 53.0013 198.191 54.2863 199.668C56.6683 202.406 60.1023 202.646 63.4493 202.88C63.8423 202.907 64.2343 202.935 64.6233 202.966C67.7503 203.218 71.5973 203.736 73.4353 206.666C74.1213 207.761 74.0493 208.678 73.9753 209.625ZM88.2953 200.952C89.8173 203.561 93.2473 210.527 92.9853 213.79V222.119C92.7063 225.027 87.7923 229.998 85.2553 232.565C84.9683 232.855 84.7123 233.114 84.4963 233.336C79.2123 238.775 73.4733 239.471 65.6423 238.777C59.0093 238.189 50.4173 235.978 45.9273 230.705C41.6173 225.646 41.6783 217.806 42.3163 211.576C43.2063 202.875 47.0233 194.949 52.1093 187.913C55.0883 183.792 63.2393 174.197 69.4623 176.296C70.3803 176.606 71.0833 177.428 71.7113 178.161C71.8263 178.296 71.9393 178.428 72.0503 178.554C72.5583 179.213 73.0613 179.875 73.5613 180.541C73.8713 181.416 74.4293 181.674 75.2333 181.316C75.9633 182.327 76.7933 183.255 77.6223 184.181C79.2713 186.025 80.9153 187.862 81.7503 190.333C82.5433 192.681 84.1903 194.984 85.7883 197.221C86.6943 198.487 87.5843 199.732 88.2953 200.952Z" fill="#FF5678"/>
<path fill-rule="evenodd" clip-rule="evenodd" d="M364.308 680.712C368.836 678.941 374.419 679.768 379.166 679.853C385.127 679.961 391.104 680.413 397.047 680.878C408.46 681.773 419.815 681.395 431.238 682.462C436.909 682.992 442.584 683.481 448.259 683.964C453.228 684.387 458.998 685.705 463.959 684.757C466.007 684.365 471.535 682.438 470.51 679.439C469.72 677.125 463.497 675.698 461.47 675.04C456.701 673.489 451.777 672.378 446.956 670.996C444.48 670.287 442.014 669.523 439.407 669.77C437.194 669.979 434.863 671.63 432.621 671.44C429.306 671.16 427.597 666.996 425.165 665.16C421.293 662.235 418.423 663.798 415.454 667.021C413.259 669.403 411.168 673.008 407.567 673.222C402.986 673.493 402.094 669.565 404.116 666.234C405.978 663.165 411.048 660.019 411.32 656.194C411.492 653.777 407.626 647.308 405.4 646.388C401.658 644.841 396.368 648.937 392.985 650.194C387.076 652.388 381.044 654.331 375.061 656.313C370.969 657.668 364.897 657.788 364.124 662.583C363.157 668.587 364.335 674.683 364.308 680.712ZM130.117 588.419C131.307 585.783 132.556 584.284 130.178 581.838C128.848 580.47 126.972 579.797 125.663 578.378C123.696 576.245 120.614 570.415 124.83 568.947C128.86 567.543 132.255 573.152 135.498 574.385C139.614 575.948 142.164 573.326 142.753 569.393C143.509 564.34 142.677 559.059 143.281 553.943C143.871 548.927 145.623 544.762 146.967 539.96C147.879 536.704 148.994 533.426 144.859 532.704C141.067 532.042 136.669 533.617 132.824 533.828C126.827 534.157 120.758 534.46 114.811 535.359C108.171 536.363 108.292 543.153 106.625 548.704C102.583 562.161 97.1632 575.365 94.6392 589.238C93.5512 595.22 96.4352 599.317 99.7932 604.021C103.996 609.91 108.369 615.784 113.13 621.24C116.309 624.883 119.891 628.276 124.52 629.951C129.764 631.849 131.768 629.742 130.559 624.573C128.961 617.75 126.551 611.159 126.835 604.053C126.939 601.465 127.691 598.685 125.825 596.519C124.531 595.017 122.314 594.511 120.625 593.597C117.841 592.089 113.528 587.237 118.952 586.193C122.636 585.483 126.551 587.961 130.117 588.419ZM255.379 321.144C258.689 324.84 262.287 328.376 265.425 332.215C267.224 334.418 268.499 337.064 270.43 339.151C274.659 343.721 278.873 338.657 282.618 335.696C297.346 324.052 311.206 311.434 325.239 298.971C331.925 293.033 339.038 287.557 345.617 281.506C352.282 275.377 357.831 268.202 364.075 261.671C367.074 258.535 370.664 255.424 372.515 251.418C374.095 248.002 374.443 244.286 376.243 240.908C379.359 235.058 385.073 228.267 383.763 221.192C379.904 225.237 373.478 239.732 366.745 232.934C361.94 228.082 366.848 220.91 366.634 215.253C362.072 217.189 363.258 225.039 358.394 226.428C355.763 227.18 353.513 224.798 352.286 222.71C350.165 219.1 350.943 215.322 351.907 211.492C352.563 208.882 356.753 200.275 352.609 199.213C349.018 198.292 346.008 204.897 344.818 207.237C342.637 211.529 340.948 215.967 338.553 220.166C334.423 227.405 329.666 234.321 325.13 241.311C315.789 255.706 305.137 269.218 294.18 282.413C282.476 296.506 269.808 309.795 255.379 321.144ZM359.144 366.931C358.672 379.612 347.775 389.228 338.348 396.279C326.3 405.29 315.186 415.531 300.817 420.659C295.285 422.634 288.377 422.065 286.161 428.291C285.295 430.726 286.081 431.62 287.02 434.07C288.488 437.904 289.371 442.061 290.068 446.096C292.438 459.824 290.134 473.804 281.885 485.233C277.5 491.309 271.897 496.474 266.104 501.183C260.325 505.881 254.859 511.361 248.488 515.248C234.9 523.536 219.805 528.295 204.137 530.585C195.988 531.777 187.806 532.838 179.576 533.259C175.308 533.477 171.032 533.517 166.762 533.33C164.854 533.246 157.759 531.634 156.38 532.727C155.319 533.569 154.846 538.664 154.634 540.07C154.183 543.042 153.828 545.973 153.214 548.92C151.981 554.835 150.32 561.526 152.137 567.493C152.663 569.219 153.089 570.624 154.687 571.204C155.7 571.572 157.495 570.925 158.519 570.82C160.836 570.582 163.023 570.489 165.353 570.736C173 571.545 180.509 573.499 188.237 572.967C204.713 571.832 221.205 570.672 237.53 568.094C245.471 566.84 253.09 564.467 260.899 562.635C268.342 560.888 275.781 559.124 282.728 555.843C296.338 549.413 308.917 540.908 320.153 530.945C332.149 520.308 340.09 507.7 347.594 493.63C354.186 481.27 359.744 468.76 359.455 454.511C359.272 445.494 357.98 434.322 363.193 426.369C365.575 422.737 370.379 419.37 374.855 421.291C382.978 424.778 375.304 431.682 372.206 435.464C367.743 440.913 368.343 449.21 367.88 455.874C367.333 463.738 365.566 470.635 363.843 478.239C362.157 485.682 365.558 494.512 365.894 502.105C366.259 510.338 366.019 518.58 365.927 526.817C365.744 543.199 366.505 559.537 366.449 575.917C366.419 584.412 366.636 592.949 366.099 601.432C365.61 609.168 364.025 616.569 362.638 624.163C361.277 631.618 359.293 640.545 359.752 648.123C378.365 641.038 396.483 632.669 415.383 626.34C409.488 621.2 409.226 613.936 408.75 606.687C408.124 597.128 406.55 587.65 405.864 578.091C404.508 559.212 404.889 539.352 406.495 520.494C408.219 500.248 411.277 480.07 411.906 459.739C412.209 449.945 411.451 440.126 409.856 430.461C408.512 422.319 407.345 412.073 403.099 404.859C399.042 397.965 391.584 393.586 385.36 388.89C376.259 382.024 367.829 374.303 359.144 366.931ZM360.271 102.123C362.601 105.274 365.234 108.182 368.021 110.935C370.896 113.776 372.12 113.148 375.56 111.671C382.4 108.731 382.269 105.331 378.45 99.438C369.594 85.768 366.234 69.488 356.863 56.098C347.63 42.9043 334.199 32.2446 320.099 24.6369C304.968 16.473 288.571 13.8753 271.516 14.1189C262.8 14.2437 254.029 14.8452 245.368 15.8218C236.942 16.7711 229.448 19.536 221.292 21.6236C217.186 22.6741 212.952 23.5458 208.96 24.9895C205.458 26.2556 202.309 28.2111 198.771 29.3943C191.025 31.9823 183.23 34.875 176.241 39.1078C169.408 43.2472 163.252 47.6617 157.046 52.7432C150.619 58.006 145.037 64.122 138.087 68.743C131.76 72.95 126.728 78.618 120.991 83.548C114.997 88.7 109.469 95.012 104.972 101.522C100.575 107.887 98.9022 116.123 96.2462 123.301C93.1542 131.656 90.0872 140.587 88.9222 149.445C86.7522 165.951 91.6232 185.244 97.8172 200.519C103.944 215.627 113.873 228.233 125.72 239.294C131.495 244.689 137.797 249.585 144.858 253.192C150.898 256.278 158.774 261.826 165.348 257.949C168.01 256.379 170.171 254.554 173.248 253.847C176.612 253.075 179.907 253.391 182.622 250.925C184.93 248.829 186.034 246.299 189.064 245.034C192.657 243.533 196.906 243.26 200.753 243.272C209.392 243.301 218.036 245.463 226.281 247.861C233.837 250.058 240.16 253.372 248.187 251.364C254.152 249.872 263.719 245.905 265.005 239.067C266.154 232.955 261.719 225.054 259.486 219.585C256.399 212.027 253.603 204.592 251.664 196.646C250.127 190.35 247.714 180.277 252.052 174.522C256.315 168.868 266.17 168.936 272.293 170.358C276.306 171.29 279.995 173.167 284.01 174.113C288.1 175.077 292.332 175.561 296.504 176.034C310.963 177.669 331.533 173.972 330.763 155.496C330.078 139.029 321.004 122.522 326.318 106.035C328.483 99.315 332.907 91.543 340.274 89.769C346.117 88.362 354.014 89.837 359.169 92.893C363.305 95.346 367.404 100.483 360.271 102.123ZM69.9162 175.675C55.3422 178.518 45.7032 193.881 43.0322 207.504C41.8212 213.677 41.3942 221.029 43.7352 227.002C46.4332 233.888 54.0602 236.762 60.7902 238.206C68.4832 239.857 75.3002 239.212 81.3992 233.879C84.0802 231.533 86.3512 228.801 88.2782 225.816C90.2482 222.763 92.9882 220.539 91.0072 217.127C86.0962 208.673 81.9062 200.368 78.6722 191.068C77.2292 186.918 75.9462 182.863 74.9882 178.589C74.2282 175.195 73.8602 173.124 69.9162 175.675ZM197.563 267.893C194.743 270.609 191.503 272.773 187.863 274.233C183.87 275.834 182.658 275.065 182.856 279.684C183.075 284.784 183.112 288.866 180.787 293.612C179.699 295.834 175.679 298.832 176.438 301.331C177.528 304.918 188.692 308.545 191.949 309.799C199.741 312.801 208.832 312.862 216.187 308.621C224.73 303.695 225.486 294.764 222.268 286.121C221.925 285.199 220.676 283.641 220.983 282.634C221.547 280.789 223.868 281.055 225.2 281.76C228.092 283.29 229.3 287.943 229.923 290.847C231.586 298.605 228.531 307.007 222.725 312.352C219.774 315.067 216.084 316.882 212.32 318.19C210.184 318.933 207.942 319.52 205.686 319.747C203.863 319.93 201.561 319.355 199.82 319.875C196.752 320.789 196.615 324.573 195.848 327.339C194.478 332.283 193.906 337.635 193.726 342.75C193.435 351.023 194.42 361.563 199.179 368.576C210.282 384.941 231.756 390.621 248.522 399.042C257.434 403.519 265.698 409.143 273.633 415.155C274.417 415.749 275.59 416.913 276.531 417.376C279.712 418.941 276.934 418.371 278.97 417.337C280.538 416.541 281.88 414.812 283.5 413.911C287.231 411.834 291.421 410.713 295.216 408.751C304.039 404.188 311.845 398.526 319.676 392.483C327.7 386.29 335.827 380.636 343.147 373.586C346.234 370.615 349.709 368.165 352.84 365.321C355.994 362.455 351.958 361.266 349.287 359.157C340.197 351.978 331.22 344.571 321.513 338.226C318.275 336.109 315.419 333.254 312.041 331.383C308.513 329.429 306.419 331.18 303.64 333.664C300.603 336.38 297.708 339.042 294.328 341.365C289.864 344.434 284.674 345.911 280.186 348.833C283.067 351.849 290.093 352.858 291.112 357.427C292.146 362.057 285.251 365.67 282.028 367.458C276.338 370.616 270.061 372.533 263.72 373.903C258.444 375.042 250.622 373.327 246.394 377.309C245.188 374.759 244.058 373.427 246.042 370.988C248.024 368.553 251.557 368.134 254.354 367.197C261.907 364.666 269.347 361.294 276.656 358.133C275.686 355.863 273.261 354.309 271.413 352.831C268.774 350.72 266.557 348.381 264.409 345.756C260.311 340.749 256.636 335.408 252.733 330.254C251.041 328.018 249.497 325.786 246.406 327.024C243.677 328.117 241.014 330.951 238.392 332.418C232.461 335.738 227.273 338.925 220.745 341.037C218.115 341.888 207.344 344.312 210.209 337.728C211.058 335.776 213.896 334.972 215.644 334.119C218.874 332.541 222.094 330.933 225.206 329.131C231.599 325.431 237.237 320.65 243.218 316.346C249.816 311.598 256.527 306.99 262.722 301.713C256.558 297.63 249.72 294.64 243.346 290.906C236.903 287.131 230.413 283.719 223.749 280.366C218.443 277.696 213.05 274.849 208.212 271.399C206.289 270.026 199.672 264.324 197.563 267.893ZM391.376 135.097C390.565 135.301 389.763 135.533 388.967 135.791C394.371 144.053 388.405 154.281 390.096 163.22C395.085 160.27 395.738 148.795 403.313 150.916C411.471 153.202 407.411 163.243 409.881 168.986C413.737 165.616 418.238 168.766 419.829 172.764C421.551 177.096 419.163 181.095 419.966 185.382C420.796 189.818 423.275 186.907 424.649 184.291C426.4 180.956 427.93 176.448 427.285 172.633C426.5 167.994 423.385 163.68 421.455 159.466C419.538 155.279 417.722 151.006 414.947 147.291C409.692 140.257 400.564 133.937 391.376 135.097ZM443.633 234.17C440.106 225.365 434.885 217.302 431.549 208.427C430.574 205.832 430.029 201.695 427.449 200.096C425.754 199.045 423.498 199.676 421.629 199.111C419.765 198.548 417.801 197.206 416.464 195.821C414.019 193.288 413.226 189.812 410.342 187.606C406.62 184.759 403.745 183.667 401.974 178.91C400.584 175.174 400.581 174.626 396.403 175.46C391.842 176.37 388.137 175.255 384.99 171.692C379.661 165.659 379.072 157.16 381.687 149.878C382.91 146.472 385.038 142.51 383.271 138.945C381.628 135.632 377.641 133.254 375.114 130.614C368.727 123.941 363.728 116.132 357.739 109.13C356.305 107.455 354.84 105.784 353.735 103.864C353.033 102.644 352.619 100.546 350.992 100.201C348.193 99.607 344.284 104.448 342.876 106.211C332.566 119.115 339.942 136.69 341.198 151.237C341.837 158.645 343.274 167.526 339.988 174.502C336.893 181.075 329.057 184.356 322.454 186.186C313.547 188.655 303.981 188.546 294.918 187.047C290.171 186.262 285.615 184.922 281.121 183.224C276.524 181.486 271.742 178.497 267.056 181.65C261.008 185.721 262.877 193.888 264.205 199.84C266.375 209.563 270.164 218.632 273.516 227.973C276.331 235.818 278.61 245.66 272.692 252.68C266.781 259.691 256.978 264.079 247.854 263.715C228.938 262.961 211.671 248.857 192.341 254.626C195.973 256.127 199.812 257.01 203.361 258.729C207.645 260.803 211.61 263.56 215.769 265.868C223.752 270.296 231.763 274.661 239.565 279.406C246.615 283.692 253.28 288.388 260.008 293.139C268.392 299.058 272.808 292.502 278.186 286.108C289.928 272.151 301.105 257.371 311.773 242.58C321.048 229.722 329.657 216.296 336.364 201.931C338.764 196.791 342.805 188.072 349.828 189.086C356.062 189.986 359.698 197.508 362.921 202.112C365.17 200.501 367.098 198.346 370.134 199.233C372.653 199.967 374.394 202.551 375.509 204.755C376.275 206.27 376.797 211.375 378.079 212.143C378.99 212.69 382.474 211.515 384.027 211.874C389.342 213.102 391.041 219.934 390.987 224.675C390.912 231.211 388.181 237.75 385.943 243.802C380.927 257.369 372.333 267.972 362.86 278.692C353.245 289.571 343.18 299.432 332.336 309.086C329.66 311.468 327.01 313.878 324.401 316.334C322.261 318.347 318.873 320.442 317.199 322.808C314.1 327.185 322.39 329.172 325.475 330.774C338.748 337.666 350.98 346.744 362.669 356C374.724 365.546 386.846 375.129 398.429 385.244C409.76 395.139 420.463 405.685 432.395 414.887C444.655 424.34 457.5 433.068 470.098 442.063C482.708 451.067 494.978 460.54 507.573 469.556C519.882 478.366 533.095 485.919 546.042 493.741C552.814 497.834 559.622 501.867 566.426 505.907C571.928 509.174 577.899 514.251 584.422 514.664C590.299 515.036 595.873 517.199 599.386 510.809C602.052 505.958 600.948 499.285 598.613 494.573C595.764 488.821 591.306 483.533 587.725 478.21C583.606 472.09 579.784 465.793 575.719 459.641C571.822 453.742 567.49 448.298 563.142 442.739C558.734 437.103 555.389 430.751 551.46 424.784C543.063 412.027 534.429 399.501 526.468 386.459C508.21 356.547 491.858 325.668 476.232 294.325C474.856 291.563 442.734 234.661 443.633 234.17ZM417.926 418.07C427.739 451.988 422.08 486.478 420.068 520.983C419.051 538.429 418.896 555.984 418.445 573.454C418.225 581.946 418.241 590.445 418.593 598.934C418.771 603.204 419.083 607.46 419.387 611.722C419.656 615.491 418.645 619.658 419.12 623.294C419.729 627.952 428.977 628.866 426.136 634.845C424.23 638.855 417.555 639.467 413.979 641.158C415.569 642.999 418.056 645.754 420.708 645.928C423.096 646.083 424.941 644.012 427.082 643.229C428.983 642.533 431.598 641.859 432.798 644.078C434.055 646.401 431.423 648.983 430.382 650.783C433.921 651.468 436.369 649.355 439.562 649.549C442.921 649.753 443.073 653.058 445.281 654.971C447.805 657.158 452.213 657.628 455.325 658.549C458.946 659.618 462.585 660.946 465.882 662.804C471.777 666.125 476.84 672.4 479.019 678.822C481.276 685.478 477.751 691.238 472.5 695.323C470.543 696.844 467.739 698.612 465.144 697.792C462.178 696.854 461.715 694.441 458.101 694.62C454.855 694.781 451.774 696.077 448.511 696.243C443.715 696.488 438.924 695.614 434.123 695.798C414.749 696.542 395.373 696.708 376.032 694.845C371.027 694.363 366.122 693.969 361.189 693.811C357.353 693.689 357.032 690.828 356.382 687.236C354.812 678.562 358.284 670.022 356.565 661.593C356.679 662.149 353.963 660.702 353.636 660.427C351.642 658.749 350.976 656.365 350.383 653.887C348.801 647.29 348.817 640.568 349.306 633.84C350.418 618.568 353.259 603.438 353.027 588.086C352.909 580.348 353.143 572.628 353.145 564.893C353.147 557.788 353.79 550.776 353.85 543.72C353.981 528.25 355.61 512.953 356.064 497.5C352.844 500.632 351.136 505 349.091 508.909C346.575 513.715 343.769 518.472 340.696 522.944C334.352 532.18 325.84 539.697 317.022 546.511C300.194 559.514 281.912 569.585 261.295 575.1C238.976 581.07 216.404 585.101 193.395 587.365C188.071 587.889 182.688 588.173 177.353 587.654C173.859 587.315 168.18 584.492 164.86 585.924C161.087 587.552 160.328 591.467 155.381 590.369C153.493 589.95 152.126 588.689 150.473 587.839C148.042 586.588 147.945 587.452 145.624 587.611C143.036 587.789 141.485 586.496 139.229 588.58C137.314 590.349 137.5 591.589 139.249 593.245C141.708 595.573 145.644 595.963 148.105 598.394C150.5 600.758 150.071 603.664 146.372 603.699C142.65 603.735 139.342 601.085 135.705 600.74C136.48 611.5 139.718 623.521 136.128 634.078C134.462 638.975 130.889 642.13 125.56 642.096C116.642 642.039 108.82 633.835 103.449 627.445C100.48 623.913 98.0732 619.944 95.2072 616.324C92.2762 612.624 89.1332 608.903 87.4552 604.428C85.6702 599.667 86.1912 594.889 87.1892 590.002C88.4242 583.952 89.5722 577.841 91.0652 571.849C93.9602 560.23 99.7832 549.623 102.723 538.039C103.835 533.656 103.821 528.513 106.628 524.755C109.599 520.776 114.222 520.52 118.807 520.775C124.482 521.09 130.153 521.718 135.798 522.36C139.363 522.765 147.174 525.336 150.075 523.145C151.074 522.391 151.076 520.414 152.244 519.732C153.37 519.074 155.188 519.546 156.419 519.638C162.514 520.09 168.662 520.639 174.769 520.817C197.469 521.481 221.423 517.943 241.69 507.398C251.095 502.504 258.26 494.8 265.819 487.524C273.252 480.369 279.73 472.668 281.73 462.281C283.556 452.798 282.865 441.457 279.832 432.278C276.878 423.337 266.393 417.921 258.762 413.512C248.18 407.398 236.946 402.331 225.545 397.942C223.735 397.246 221.535 396.359 219.545 396.715C217.104 397.152 215.465 399.266 213.245 400.2C210.606 401.309 207.369 401.315 204.584 401.963C201.884 402.591 199.252 403.455 196.502 403.87C187.841 405.176 175.67 404.133 168.512 398.601C156.812 389.559 163.881 376.762 167.64 365.756C163.666 365.622 160.357 366.551 156.564 364.851C152.785 363.156 149.83 360.156 148.107 356.398C144.973 349.56 146.783 341.703 147.708 334.573C148.126 331.349 148.603 328.15 149.833 325.122C150.786 322.777 152.35 320.542 152.928 318.062C153.564 315.33 152.739 315.171 150.461 313.865C146.948 311.851 144.42 309.535 142.27 306C138.059 299.077 137.955 291.52 141.405 284.237C142.802 281.29 146.134 277.237 145.755 273.795C145.429 270.833 142.077 268.526 140.103 266.587C134.007 260.598 127.526 255.069 120.766 249.845C117.607 247.403 114.127 245.187 111.256 242.413C109.152 240.381 107.015 235.96 104.138 234.891C101.258 233.822 99.3402 237.038 97.3342 238.762C94.2072 241.449 91.2102 244.541 87.8022 246.87C81.6902 251.048 74.1122 250.266 67.2092 248.932C59.9992 247.537 53.3122 245.082 47.1642 241.031C44.7222 239.421 41.8692 236.152 38.8622 235.89C35.6502 235.611 32.1602 238.804 29.8642 240.721C23.8712 245.726 22.0722 253.5 18.5812 260.224C14.6832 267.733 13.0272 275.527 14.0882 283.968C15.0422 291.562 17.9672 297.3 22.3182 303.434C23.2182 304.703 25.3252 307.1 23.7852 308.503C21.9012 310.22 18.0412 306.777 16.7762 305.665C4.21122 294.614 -2.92978 277.963 1.14922 261.294C3.33822 252.344 7.62121 244.063 12.5952 236.362C14.7102 233.086 16.7732 229.811 20.4512 228.14C24.6382 226.239 29.3822 226.465 33.8542 226.009C30.7612 210.867 29.7932 194.39 39.2982 181.193C46.5922 171.066 61.5302 162.205 73.3682 170.417C72.8832 159.254 71.2922 148.653 74.2632 137.661C75.5942 132.736 77.4182 127.943 79.6602 123.358C81.8562 118.866 84.8892 115.056 86.6632 110.38C93.6632 91.934 107.094 75.457 121.439 62.218C135.94 48.8358 150.169 32.5099 168.435 24.1377C187.491 15.402 206.898 7.5519 227.56 3.5827C249.005 -0.537398 271.048 -1.3831 292.652 2.5177C311.59 5.9375 329.117 17.4357 343.447 29.8317C359.799 43.9766 370.356 61.029 378.707 80.782C380.541 85.121 382.31 89.497 384.56 93.644C387.056 98.245 390.262 102.524 392.098 107.461C393.735 111.864 394.011 116.641 391.095 120.575C389.045 123.341 384.839 123.965 383.047 126.495C382.142 127.771 382.233 128.985 384.222 129.365C386.276 129.757 387.255 127.466 388.732 126.547C392.408 124.259 397.595 126.209 401.311 127.508C410.124 130.589 417.022 136.123 422.296 143.793C427.343 151.134 430.695 159.474 434.027 167.683C436.13 172.862 438.131 178.007 439.289 183.494C439.724 185.558 440.331 191.154 437.069 188.702C435.746 187.708 433.856 195.252 434.212 196.453C435.453 200.631 439.877 204.548 442.48 207.931C448.602 215.883 452.702 224.791 457.02 233.785C466.374 253.261 476.79 272.168 486.797 291.307C507.176 330.282 529.447 367.76 552.807 405.014C564.381 423.471 576.313 441.613 588.685 459.546C594.145 467.459 599.621 475.377 604.961 483.371C609.5 490.164 613.979 497.728 612.811 506.206C611.742 513.969 607.13 520.204 599.672 522.743C595.676 524.104 590.931 525.672 586.654 525.254C581.977 524.797 577.85 521.668 573.952 519.319C556.036 508.522 538.118 497.736 520.191 486.959C500.142 474.906 481.806 460.595 462.678 447.194C452.945 440.376 442.909 434.231 432.768 428.059C430.484 426.669 420.123 416.711 417.926 418.07Z" fill="black"/>
<path fill-rule="evenodd" clip-rule="evenodd" d="M244.33 452.383C239.433 459.593 234.283 466.369 227.39 471.84C220.128 477.603 212.534 482.272 204.426 486.744C190.127 494.63 170.96 501.614 154.352 498.039C149.629 497.023 142.073 492.89 146.179 486.99C148.243 484.025 152.67 484.798 155.804 484.961C160.853 485.225 165.268 485.512 170.106 483.814C178.995 480.691 187.945 477.746 196.625 474.071C205.032 470.51 212.405 465.627 220.118 460.83C227.352 456.331 232.87 450.946 239.225 445.507C240.965 444.018 243.957 441.411 245.603 444.308C246.793 446.401 244.982 450.336 244.33 452.383Z" fill="black"/>
<path fill-rule="evenodd" clip-rule="evenodd" d="M442.211 106.069C441.664 109.192 440.184 115.406 435.789 114.557C430.184 113.475 432.945 102.501 432.86 98.7762C432.488 82.5442 427.195 66.9362 419.359 52.8627C415.462 45.8662 410.662 39.396 407.121 32.1992C406.433 30.8008 404.345 27.3327 405.862 25.8157C407.683 23.9939 411.175 26.7431 412.459 28.0432C417.421 33.0707 421.374 40.6077 425.204 46.5236C430.319 54.4212 434.837 62.7632 438.081 71.6192C441.997 82.3162 444.198 94.7232 442.211 106.069Z" fill="black"/>
<path fill-rule="evenodd" clip-rule="evenodd" d="M452.698 54.1608C453.222 56.9758 455.784 64.6348 451.215 65.3138C446.036 66.0838 444.427 53.3228 442.989 49.9418C442.231 48.1595 438.191 40.3098 440.297 38.6011C444.681 35.0437 451.659 51.896 452.698 54.1608Z" fill="black"/>
<path fill-rule="evenodd" clip-rule="evenodd" d="M208.947 433.991C204.031 438.47 198.324 438.207 192.119 437.781C188.968 437.564 181.671 435.698 186.742 431.79C189.391 429.749 210.174 428.345 208.947 433.991Z" fill="black"/>
<path fill-rule="evenodd" clip-rule="evenodd" d="M591.999 516C592.349 515.305 595.298 511.969 595.934 513.318C596.535 514.59 592.778 515.962 591.999 516Z" fill="black"/>
<path fill-rule="evenodd" clip-rule="evenodd" d="M200.999 268.392C200.394 269.639 197.869 268.55 196.999 268.739C198.181 266.208 199.586 266.75 200.999 268.392Z" fill="black"/>
<path fill-rule="evenodd" clip-rule="evenodd" d="M390.999 136C390.736 137 390.474 138 390.212 139C389.808 138.251 389.403 137.502 388.999 136.752C389.665 136.502 390.333 136.251 390.999 136Z" fill="black"/>
<path fill-rule="evenodd" clip-rule="evenodd" d="M395.827 324.935C402.136 325.571 408.466 325.893 414.8 326.088C420.147 326.252 422.343 325.241 423.026 319.684C423.835 313.096 424.111 306.449 424.92 299.858C425.287 296.864 428.191 290.881 424.693 289.278C421.761 287.935 417.188 289.859 414.117 290.085C410.696 290.337 405.534 289.294 402.51 291.322C399.277 293.49 399.981 301.082 399.43 304.645C398.38 311.438 397.114 318.185 395.827 324.935ZM392.817 292.938C387.099 293.37 381.362 293.711 375.66 294.32C373.122 294.592 367.986 295.847 365.847 294C360.826 289.667 379.591 288.146 381.72 287.804C385.308 287.228 391.448 287.993 393.748 284.606C396.023 281.256 395.448 275.627 396.036 271.738C396.921 265.885 397.933 260.04 398.524 254.149C398.722 252.169 398.439 245.628 400.53 244.656C405.336 242.422 403.826 265.443 403.747 267.171C403.612 270.142 403.463 273.127 403.049 276.073C402.816 277.734 401.995 279.98 402.501 281.648C403.95 286.431 412.182 283.673 415.932 283.291C420.134 282.863 426.623 284.491 428.014 279.306C429.762 272.79 429.508 265.39 430.156 258.686C430.335 256.832 430.803 242.986 434.22 244.059C438.035 245.258 436.546 256.828 436.511 259.807C436.472 263.169 436.485 266.533 436.257 269.889C436.053 272.904 435.203 276.599 435.832 279.586C436.935 284.823 443.144 282.038 444.946 286.204C446.658 290.163 437.324 287.059 435.581 288.419C432.978 290.45 433.604 298.936 433.232 301.907C432.416 308.434 430.849 315.211 430.339 321.718C429.938 326.855 434.067 326.173 438.269 325.801C441.873 325.482 445.832 324.626 449.444 325.107C452.346 325.492 456.401 328.166 452.176 329.945C445.57 332.728 432.119 327.043 428.8 335.494C428.174 337.088 425.261 355.576 421.601 346.45C420.071 342.635 423.817 336.65 419.822 333.727C418.437 332.713 416.374 332.892 414.767 332.78C410.81 332.504 406.828 332.41 402.863 332.328C398.91 332.246 395.358 331.45 393.831 335.78C392.642 339.154 392.774 342.929 391.824 346.382C391.111 348.97 388.771 353.5 386.344 349.266C384.75 346.485 385.97 341.626 386.285 338.602C386.442 337.088 387.345 333.955 386.196 332.683C384.963 331.318 381.663 332.057 380.103 332.18C375.6 332.537 367.214 334.704 363.767 330.62C360.884 327.203 366.878 327.138 369.235 326.907C371.663 326.669 374.092 326.449 376.518 326.194C379.189 325.912 382.725 326.288 385.239 325.451C389.461 324.045 389.16 318.305 389.437 314.582C389.98 307.309 391.616 300.125 392.817 292.938Z" fill="black"/>
<path fill-rule="evenodd" clip-rule="evenodd" d="M466.999 308.471C466.658 312.67 466.203 317.378 464.847 321.369C463.821 324.385 461.75 325.302 461.044 321.461C460.596 319.026 463.571 305.308 466.999 308.471Z" fill="black"/>
<path fill-rule="evenodd" clip-rule="evenodd" d="M200.427 280.822C198.743 279.613 190.768 273.254 196.532 273.003C199.475 272.874 205.816 277.715 205.998 280.401C206.044 281.079 204.594 281.43 204.673 282.086C204.823 283.335 206.672 283.926 207.268 284.919C208.581 287.109 208.036 291.436 206.34 293.518C202.472 298.266 198.177 290.228 201.171 288.651C200.504 289.002 191.55 284.451 191.214 283.423C189.372 277.79 199.974 283.097 200.427 280.822Z" fill="black"/>
<path fill-rule="evenodd" clip-rule="evenodd" d="M214.483 302.988C212.438 303.052 208.33 302.91 206.798 301.45C203.95 298.735 209.505 298.375 211.13 297.11C213.408 295.339 213.855 289.577 217.431 293.142C220.978 296.679 217.859 300.793 214.483 302.988Z" fill="black"/>
<path fill-rule="evenodd" clip-rule="evenodd" d="M184.999 288.026C188.697 287.484 196.924 295.456 192.932 295.986C190.29 296.337 185.576 290.156 184.999 288.026Z" fill="black"/>
</svg>
