<svg width="703" height="661" viewBox="0 0 703 661" fill="none" xmlns="http://www.w3.org/2000/svg">
<path fill-rule="evenodd" clip-rule="evenodd" d="M364.318 40.7583C361.223 48.949 358.13 57.141 355.035 65.332C353.051 70.581 351.069 75.829 349.086 81.078C348.382 82.939 347.991 84.848 346.631 86.14C343.425 89.182 337.671 91.118 333.818 93.258C331.237 94.692 328.655 96.126 326.074 97.56C324.743 98.3 321.792 99.229 320.859 100.457C319.833 101.81 320.318 104.295 320.318 106.166V122.32V152.758C333.651 151.091 346.985 149.425 360.318 147.758C342.554 168.255 324.791 188.751 307.027 209.248C302.649 214.299 297.334 219.161 294.072 225.038C287.13 237.548 280.344 250.148 273.482 262.702C267.094 274.387 260.706 286.073 254.318 297.758L311.787 295.312C326.666 294.679 341.951 295.631 356.287 291.414C368.105 287.938 379.922 284.463 391.74 280.987C393.312 280.524 398.208 280.001 399.322 278.736C400.365 277.551 400.343 273.074 400.638 271.558C406.216 242.888 413.317 211.294 429.597 186.615C441.269 168.924 457.019 153.435 471.443 138.008C477.073 131.987 482.801 126.038 488.231 119.834C489.622 118.245 491.631 116.442 492.551 114.512C493.145 113.265 493.975 110.889 493.606 109.782C493.446 109.302 489.735 107.58 489.203 107.238C485.442 104.821 481.714 102.353 477.978 99.897C467.48 92.995 456.992 86.076 446.434 79.266C438.203 73.956 429.995 68.326 421.313 63.763C412.314 59.033 402.403 55.704 392.968 51.967C383.434 48.19 373.882 44.4563 364.318 40.7583Z" fill="#FF5678"/>
<path fill-rule="evenodd" clip-rule="evenodd" d="M687.91 478.342C683.332 482.656 674.995 488.446 668.405 485.813C665.095 484.491 662.268 481.588 659.253 479.716C655.711 477.516 652.381 475.315 649.378 472.383C643.387 466.531 638.851 457.982 631.775 453.401C629.397 451.861 624.755 451.531 623.105 449.072C622.366 447.969 622.297 446.296 622.433 445.021C622.729 442.275 624.212 442.437 621.734 440.421H625.583C625.657 438.934 624.173 438.811 623.067 439.003C623.581 436.646 624.105 427.423 619.809 431.603C616.085 435.226 617.948 441.237 615.311 445.161C613.292 448.166 607.934 445.733 607.211 442.427C606.886 440.942 608.522 438.623 608.717 437.167C609.145 433.938 607.703 431.146 605.609 428.701C601.015 431.762 603.619 438.097 601.001 442.119C598.632 445.758 593.356 444.06 589.749 443.42C585.425 442.652 580.536 443.429 576.399 442.408C570.152 440.866 572.485 433.532 571.867 428.798C571.204 423.727 566.079 416.689 567.619 411.573C569.273 406.08 578.942 404.893 583.564 403.56C594.127 400.513 609.194 399.927 617.047 391.397C623.293 398.363 628.317 406.339 634.868 413.045C641.944 420.288 649.502 426.975 656.295 434.51C663.365 442.352 670.663 450.043 677.476 458.112C680.449 461.632 683.059 465.425 686.134 468.861C688.868 471.915 691.75 474.725 687.91 478.342ZM373.947 342.869C377.193 341.143 377.606 342.225 377.605 345.78C376.671 344.073 375.744 343.616 373.947 342.869ZM346.427 411.975V405.709C349.556 405.627 347.632 410.987 346.427 411.975ZM345.662 421.307C345.662 418.532 345.587 415.89 346.387 413.191C346.807 416.132 347.609 418.678 345.662 421.307ZM359.116 611.929C361.99 612.198 366.419 610.218 368.836 612.473C371.319 614.79 371.12 621.534 371.708 624.664C372.68 629.837 373.541 635.027 374.36 640.225C374.897 643.633 375.561 647.094 371.708 648.398C366.014 650.324 357.878 647.575 351.943 647.325C340.219 646.832 328.5 646.146 316.766 645.908C305.393 645.678 293.994 645.86 282.673 647.043C277.559 647.577 272.558 648.521 267.496 649.375C264.828 649.826 257.679 651.711 255.269 649.462C250.735 645.228 258.273 635.343 261.515 632.551C267.532 627.37 276.089 623.634 283.634 621.384C287.666 620.181 294.388 616.804 297.564 620.581C300.001 623.478 299.904 627.345 303.396 629.54C311.487 634.626 306.753 620.037 301.697 618.241C305.092 610.295 311.563 621.514 314.247 624.209C315.202 625.168 318.308 628.33 319.657 626.74C320.667 625.55 318.65 621.286 318.276 620.126C317.708 618.364 316.271 615.684 316.684 613.773C317.432 610.315 322.282 609.373 325.187 609.085C329.692 608.639 334.111 610.067 338.565 610.544C345.395 611.276 352.278 611.287 359.116 611.929ZM313.884 286.218C304.991 286.926 296.042 285.566 287.17 286.679C278.776 287.733 270.866 290.815 262.953 293.646C274.717 266.055 289.937 240.938 308.488 217.409C317.726 205.69 327.662 194.052 337.644 182.961C342.289 177.801 347.093 172.812 351.889 167.797C356.167 163.323 359.232 155.725 364.366 152.384C368.748 149.532 376.406 151.566 381.262 151.743C386.751 151.943 393.431 152.442 398.784 150.615C402.663 149.291 403.73 145.758 398.874 145.641C393.147 145.502 387.514 146.099 381.712 145.562C366.679 144.173 352.188 141.89 337.033 143.185C333.561 143.481 328.991 144.96 325.584 144.516C323.134 144.195 324.745 145.427 323.042 143.461C322.39 142.709 321.604 140.941 321.411 139.942C320.326 134.331 323.407 126.313 324.144 120.664C324.826 115.436 324.222 109.69 325.498 104.599C326.66 99.9658 330.202 99.3478 334.564 98.8528C346.497 97.4978 358.675 96.7768 370.662 95.7558C398.018 93.4258 426.243 89.9108 453.413 95.6688C463.224 97.7478 475.187 100.963 483.951 106.111C486.692 107.72 489.457 109.615 488.46 112.949C487.426 116.41 482.356 120.066 479.845 122.346C461.286 139.194 443.361 156.379 430.324 177.997C413.698 205.564 404.157 235.337 398.559 266.926C397.355 273.722 396.237 277.279 389.245 279.235C381.739 281.336 374.494 282.701 366.711 283.34C349.117 284.785 331.469 284.815 313.884 286.218ZM319.843 103.658C318.495 113.693 316.67 123.706 316.49 133.82C316.422 137.64 316.06 139.554 311.998 140.406C307.209 141.41 302.34 142.158 297.529 143.2C274.31 148.232 251.53 154.412 228.814 161.368C206.737 168.13 185.023 175.737 162.45 180.746C152.74 182.901 141.378 184.353 132.534 189.124C123.02 194.258 124.272 202.675 123.418 211.92C122.277 224.272 118.614 236.232 117.326 248.579C116.71 254.479 116.149 260.414 116.242 266.351C116.321 271.412 117.046 277.008 113.644 281.267C106.819 272.143 103.584 260.667 102.239 249.484C101.585 244.048 101.844 238.568 101.657 233.107C101.506 228.71 101.604 221.716 98.7401 218.044C92.5141 210.064 84.4171 242.044 83.6471 245.459C82.3521 251.207 81.2841 257.003 79.9941 262.752C79.4221 265.3 78.6881 274.563 75.2741 275.486C68.1991 277.4 69.7521 257.519 69.6401 254.492C69.4161 248.382 69.2641 242.265 69.4071 236.15C69.5111 231.736 70.3651 226.946 69.8581 222.53C68.6131 211.687 62.5161 223.111 60.8021 227.147C56.4711 237.336 54.5121 248.242 50.6281 258.594C49.9821 260.316 48.4641 266.113 46.0591 266.221C43.3831 266.34 43.4041 260.353 43.2511 258.604C42.3631 248.465 39.3641 238.397 40.2691 228.153C41.1831 217.809 44.8091 207.175 49.9401 198.178C60.7881 179.156 80.3781 168.234 99.1421 158.285C120.616 146.901 143.287 137.907 166.442 130.58C194.29 121.768 222.884 114.638 251.65 109.564C266.285 106.983 281.146 105.137 295.931 103.657C301.127 103.137 306.325 102.833 311.454 101.844C313.39 101.47 320.375 99.6928 319.843 103.658ZM334.802 71.1828C327.465 71.2408 319.97 67.6838 312.822 66.2138C304.312 64.4618 296.001 61.9268 287.506 60.0978C270.871 56.5168 254.227 53.0248 237.607 49.3648C230.392 47.7758 223.142 46.3928 215.955 44.6861C208.266 42.8601 199.959 40.8241 192.089 42.7911C180.16 45.7731 175.121 58.8238 170.741 69.0088C167.647 76.2028 165.223 84.2218 160.398 90.4818C158.68 92.7138 156.238 95.3758 153.123 94.6528C147.336 93.3108 148.255 85.6528 148.992 81.4198C150.06 75.2768 151.573 69.2058 152.784 63.0908C153.272 60.6228 157.054 44.4701 150.302 46.9708C145.293 48.8258 142.643 61.0438 140.747 65.4078C139.338 68.6508 137.845 71.8728 136.264 75.0358C134.154 79.2548 128.134 93.3518 121.469 91.5338C111.931 88.9318 121.08 63.8568 122.705 58.5718C123.597 55.6708 133.292 33.6701 125.109 35.4681C121.624 36.2351 118.229 42.7081 116.452 45.3911C113.301 50.1498 110.16 54.9428 107.194 59.8188C104.143 64.8338 102.585 70.5418 99.5591 75.4838C97.9671 78.0848 94.7181 81.5508 91.5461 79.1428C86.6011 75.3918 89.5321 62.3438 90.3981 57.4098C92.0091 48.2368 96.0112 38.8331 101.502 31.3341C109.753 20.0661 125.322 16.4251 138.414 14.2361C155.313 11.4101 172.447 12.1831 189.417 13.8551C208.502 15.7361 227.296 17.7501 246.108 21.5961C265.067 25.4721 284.036 29.3171 302.703 34.4431C311.497 36.8581 320.417 38.9991 329.086 41.8341C338.302 44.8471 347.296 48.5968 356.769 50.7678C353.437 59.0828 350.104 67.3978 346.772 75.7138C343.583 72.5588 339.23 71.1468 334.802 71.1828ZM498.125 94.0958C501.047 92.4978 504.275 91.7438 505.341 88.2118C506.284 85.0908 504.673 81.5548 503.903 78.5588C501.749 70.1708 501.182 61.4818 503.088 52.9948C504.91 55.7758 511.73 66.4728 515.878 59.9968C518.38 56.0908 511.676 50.4718 509.719 47.7258C514.013 45.0761 520.146 37.9641 525.094 42.2531C528.292 45.0261 529.646 47.6958 533.955 49.0438C539.186 50.6808 544.111 50.3058 549.453 49.8538C553.193 49.5378 554.094 49.0388 555.555 51.9188C556.702 54.1828 557.294 56.9848 557.965 59.4158C559.285 64.2088 562.341 73.6528 558.721 78.1428C555.551 82.0758 543.245 78.7038 541.536 83.7808C540.604 86.5498 545.052 86.6488 546.752 88.0188C548.857 89.7148 550.598 92.4138 551.742 94.8248C552.589 96.6078 553.877 99.5538 552.435 101.377C550.443 103.899 546.75 101.986 545.145 100.153C543.013 97.7178 542.321 94.3888 540.542 91.7368C537.277 86.8708 537.082 90.7418 536.193 94.2358C535.27 97.8658 533.086 97.6158 529.741 98.0818C523.872 98.9008 517.941 100.056 512.228 101.629C509.299 102.435 506.462 103.462 503.673 104.662C501.876 105.434 498.761 107.773 496.811 107.795C493.198 107.836 490.693 101.793 488.828 99.2718C491.924 97.5428 495.013 95.7978 498.125 94.0958ZM692.154 464.119C683.13 453.287 675.315 441.519 666.411 430.592C657.63 419.815 647.471 410.392 637.617 400.631C632.966 396.024 628.51 390.97 623.376 386.888C619.546 383.842 616.599 383.795 611.992 385.144C598.901 388.978 585.573 393.593 573.185 399.314C561.65 404.642 551.143 411.483 538.633 414.454C525.864 417.487 512.587 418.461 499.5 417.709C486.076 416.938 473.415 414.145 460.649 410.04C448.559 406.152 435.953 402.757 425.613 395.051C414.773 386.973 406.398 375.354 398.638 364.426C394.709 358.894 390.809 353.084 388.162 346.814C385.865 341.373 384.364 334.951 380.242 330.516C379.231 331.949 377.973 333.178 377.459 334.861C377.225 335.626 378.603 335.602 378.462 336.21C378.195 337.355 376.671 338.523 375.785 339.146C372.602 341.386 372.583 339.603 373.418 343.792C373.904 346.234 372.984 351.743 369.002 349.943C370.468 351.698 368.139 353.913 367.378 355.359C366.855 354.758 366.204 354.549 365.426 354.73C366.882 357.63 366.022 357.707 364.611 360.01C364.353 360.431 363.44 362.634 363.571 362.448C362.129 364.502 360.463 365.019 359.622 367.577C358.931 369.678 359.108 371.988 358.338 374.086C357.407 372.799 356.476 371.512 355.545 370.226C355.735 371.238 356.115 372.736 356.557 373.654C356.835 374.228 358.027 375.568 358.011 375.881C357.946 377.051 356.486 376.77 356.07 377.779C355.289 379.672 356.418 379.951 355.992 381.798C355.504 383.918 354.194 383.07 353.571 384.877C353.453 385.22 354.373 386.57 354.227 387.31C354.022 388.356 353.074 388.941 352.739 389.871C351.887 392.237 352.197 393.969 351.014 396.238C350.556 397.118 349.889 397.704 349.566 398.704C349.283 399.584 349.892 401.457 349.346 402.245C346.708 406.044 347.079 399.5 347.279 397.877C348.958 384.25 354.345 370.186 359.275 357.449C361.725 351.121 364.109 344.595 367.181 338.534C368.417 336.093 369.844 333.574 371.887 331.707C374.471 329.345 378.137 328.4 380.477 325.762C380.108 326.178 383.014 323.428 382.549 324.332C382.965 323.524 382.239 322.43 382.497 321.648C382.818 320.677 383.425 320.473 384.101 319.623C385.316 318.097 386.759 317.337 384.851 315.393C387.683 314.767 389.037 313.848 389.603 310.815C390.016 308.596 389.182 308.741 390.638 307.262C392.099 305.776 392.839 306.936 393.76 304.363C394.861 301.284 395.592 297.097 396.252 293.875C396.828 291.062 395.43 286.925 397.801 284.939C400.804 282.424 403.491 283.489 402.953 278.431C402.428 273.5 403.96 270.513 405.5 265.847C408.573 256.532 409.761 246.697 412.455 237.271C418.206 217.155 428.365 199.018 439.289 181.311C449.383 164.949 463.495 151.009 477.122 137.584C480.853 133.907 484.543 130.177 487.893 126.146C490.779 122.675 492.097 117.949 494.871 114.654C496.556 112.653 499.693 111.797 502.046 110.736C505.97 108.966 510.646 106.657 515.075 107.015C513.315 112.948 512.741 119.881 517.935 124.33C524.236 129.727 529.947 124.12 535.723 121.043C546.251 115.434 561.308 120.583 570.488 112.176C572.675 110.174 573.285 106.975 575.557 105.105C577.225 103.734 579.598 103.386 581.476 102.364C587.181 99.2588 589.95 93.5748 587.729 87.2958C585.698 81.5558 582.544 79.5648 589.566 76.6558C595.266 74.2958 597.433 70.7398 594.853 64.4088C592.393 58.3728 587.886 57.6778 583.622 53.7278C579.492 49.9018 584.237 45.4491 587.331 42.5771C591.32 38.8721 592.083 35.5331 587.458 31.6801C582.614 27.6461 575.698 27.7871 570.052 29.7821C563.666 32.0371 559.459 35.7861 556.757 41.8611C554.005 48.0458 547.184 46.3198 541.66 44.5961C536.377 42.9481 535.002 39.3921 531.533 35.5631C527.675 31.3041 519.812 34.9461 515.262 36.8921C504.054 41.6821 492.916 49.2418 492.471 62.6328C492.206 70.6178 495.583 77.4048 497.339 84.8998C498.945 91.7538 487.934 91.2138 486.027 97.8438C465.686 87.0758 443.033 83.7808 420.295 83.0478C396.128 82.2678 371.613 81.6428 347.652 85.4548C353.214 75.7648 356.151 65.1388 360.99 55.1838C362.383 52.3178 362.983 52.5628 366.057 53.4288C371.962 55.0918 377.823 56.9528 383.716 58.6658C405.244 64.9238 426.349 72.4638 447.165 80.7218C449.188 81.5248 453.705 83.7538 455.478 81.3298C457.524 78.5348 452.79 75.0888 450.875 73.6828C442.493 67.5338 432.106 63.8018 422.719 59.4878C402.196 50.0588 379.47 45.5831 358.056 38.5801C311.827 23.4591 264.001 11.9751 215.959 4.3901C204.235 2.5391 192.386 2.2681 180.611 0.894099C170.181 -0.322901 159.732 -0.2949 149.303 0.9621C130.041 3.2851 107.71 8.2971 96.8311 25.9291C87.0101 41.8491 80.4541 59.7478 82.9601 78.6318C83.7131 84.3038 86.1151 91.0208 93.1141 89.5588C97.9691 88.5448 100.547 84.4198 102.801 80.3938C106.207 74.3118 109.571 68.2298 113.262 62.3108C114.631 71.1858 109.656 79.9128 110.438 88.9538C110.97 95.0888 114.36 104.782 122.325 103.045C133.242 100.665 137.735 83.6098 142.984 75.4278C143.25 81.7298 141.041 87.9408 141.717 94.2568C142.384 100.496 147.259 106.386 154.106 105.531C160.564 104.725 164.761 97.8058 167.504 92.5968C171.321 85.3478 174.063 77.5758 177.791 70.2788C181.285 63.4388 185.424 55.2958 193.766 54.0108C201.211 52.8628 209.743 55.5198 217.097 56.6158C237.496 59.6558 257.484 64.8318 277.66 69.0138C299.293 73.4968 321.437 76.2198 342.403 83.4538C335.031 93.4878 315.739 91.3198 304.757 92.3968C288.161 94.0248 271.352 95.2498 254.85 97.6518C238.552 100.024 222.595 104.235 206.424 107.292C190.338 110.333 174.28 113.379 158.715 118.565C129.816 128.194 100.435 140.38 74.9731 157.181C63.1261 164.999 52.6021 173.934 45.2841 186.274C37.9191 198.691 34.3801 212.732 33.0301 227.015C32.1901 235.909 33.6171 243.606 35.3401 252.262C36.5881 258.529 36.9921 269.022 42.0171 273.611C51.6081 282.37 59.5711 246.842 61.3421 242.551C62.6171 249.583 60.5321 289.199 75.9211 285.977C82.7891 284.54 84.3471 275.113 85.4861 269.435C87.5641 259.084 89.4251 248.525 92.9791 238.556C95.2601 251.988 96.2111 265.982 101.125 278.811C104.389 287.331 113.702 302.449 120.195 287.863C125.065 276.924 123.394 264.369 123.978 252.755C124.625 239.885 128.32 227.471 129.628 214.727C130.135 209.79 129.676 204.226 134.637 201.532C138.896 199.22 145.124 198.467 149.774 197.176C163.547 193.352 177.41 189.837 191.118 185.78C204.832 181.72 218.356 176.977 231.887 172.348C244.828 167.921 258.041 165.404 271.139 161.613C278.586 159.457 285.943 157.202 293.494 155.402C297.008 154.565 300.565 153.913 304.071 153.046C306.67 152.404 310.094 149.981 312.766 150.024C315.516 150.069 316.549 152.397 319.703 152.58C323.098 152.776 326.55 152.027 329.926 151.768C338.151 151.137 346.894 150.117 355.1 151.257C350.168 157.107 343.507 161.151 337.669 165.997C330.936 171.586 324.42 177.621 318.669 184.221C307.097 197.501 296.16 211.538 285.999 225.925C275.976 240.118 267.906 255.649 260.89 271.517C257.394 279.424 254 287.504 251.585 295.815C250.593 299.229 249.783 302.656 247.992 305.761C246.349 308.609 244.034 311.064 245.976 314.503C247.313 313.666 248.514 312.626 249.723 311.621C248.326 321.462 245.311 330.982 243.761 340.793C242.233 350.459 242.295 360.4 242.394 370.162C242.602 390.606 244.122 410.587 248.269 430.64C252.463 450.917 257.851 471.04 264.645 490.601C271.185 509.435 277.748 529.186 286.877 546.937C296.627 565.897 308.226 585.831 322.339 601.88C313.12 605.656 301.388 604.95 291.626 606.471C281.422 608.061 272.595 611.062 263.899 616.708C255.101 622.422 250.325 629.778 249.109 640.196C248.245 647.611 245.678 657.877 255.406 659.825C262.403 661.226 270.225 658.925 277.236 658.356C289.5 657.362 301.781 656.741 314.073 656.205C326.332 655.67 338.594 655.199 350.857 654.819C356.625 654.64 362.396 654.55 368.162 654.343C370.746 654.251 372.313 654.211 374.63 654.958C376.462 655.549 376.328 656.776 378.368 655.259C381.658 652.812 380.981 645.097 380.889 641.705C380.749 636.47 380.253 631.175 379.232 626.039C378.626 622.987 371.27 603.314 376.99 602.486C370.345 595.184 367.691 584.757 364.706 575.605C360.966 564.139 357.683 552.705 355.106 540.912C349.601 515.721 347.168 490.255 347.168 464.48C372.686 480.209 399.685 488.729 429.741 489.679C459.623 490.624 492.452 488.17 520.827 478.229C533.967 473.625 545.737 467.579 557.003 459.434C561.041 456.515 565.367 449.903 570.667 450.016C576.992 450.152 584.075 452.546 590.356 453.57C602.368 455.528 618.046 456.633 628.216 464.063C633.74 468.099 637.699 473.748 642.629 478.398C646.379 481.936 651.338 483.857 655.06 487.395C659.076 491.212 657.481 496.199 664.14 496.508C669.832 496.771 676.073 494.481 680.982 491.793C690.776 486.43 701.206 474.983 692.154 464.119Z" fill="black"/>
<path fill-rule="evenodd" clip-rule="evenodd" d="M598.017 209.031C612.35 219.212 628.79 226.167 643.768 235.336C647.517 237.631 659.197 242.396 659.084 246.653C659.018 249.142 655.508 252.263 653.971 253.988C651.338 256.943 648.861 259.929 646.431 263.055C635.309 277.37 624.835 291.82 612.781 305.416C610.966 307.461 605.499 317.226 603.734 312.376C602.934 310.177 603.593 307.706 601.508 305.656C600.435 304.6 596.288 304.018 597.496 301.753C598.301 302.115 599.107 302.478 599.913 302.839C599.287 301.029 599.333 299.046 598.395 297.335C597.812 296.272 596.673 295.769 596.278 294.572C595.732 292.918 596.658 290.996 596.503 289.291C596.35 287.591 595.469 285.984 594.943 284.38C591.824 274.872 590.705 265.287 589.108 255.477C587.528 245.77 585.067 236.367 584.101 226.552C583.08 216.185 581.829 205.839 580.16 195.555C583.139 195.973 585.429 199.21 587.536 201.04C590.848 203.916 594.444 206.493 598.017 209.031ZM586.781 309.398C586.097 308.861 585.562 308.201 585.176 307.419C592.201 303.939 587.962 309.876 586.781 309.398ZM582.509 301.976C579.447 302.82 577.247 302.991 574.886 301.731C574.662 301.612 574.92 300.691 574.516 300.502C574.163 300.338 573.624 300.541 573.322 300.387C572.294 299.864 570.494 301.01 570.319 299.008C574.227 297.812 578.07 295.605 582.196 295.233C587.93 294.717 587.665 300.554 582.509 301.976ZM569.093 290.436C564.915 291.413 561.473 293.695 557.034 293.099C552.867 292.541 549.246 290.38 545.959 287.89C554.182 285.562 562.805 285.142 571.021 282.89C573.696 282.157 577.211 280.224 580.094 281.003C583.297 281.869 583.499 284.869 584.459 287.599C579.333 288.521 574.168 289.25 569.093 290.436ZM542.962 278.852C538.948 279.811 534.845 281.908 531.489 278.289C530.947 277.705 530.473 278.288 530.537 276.489C530.604 274.592 532.326 273.37 533.807 272.702C537.289 271.132 542.17 272.147 545.868 271.916C551.767 271.549 557.771 270.323 563.606 269.379C567.646 268.726 571.819 267.276 575.948 267.562C579.136 267.783 582.982 270.5 578.336 272.482C574.105 274.288 567.761 274.011 563.177 274.793C556.401 275.949 549.649 277.254 542.962 278.852ZM539.041 259.968C539.301 260.233 539.561 260.498 539.821 260.763C539.778 260.753 541.36 259.472 541.779 259.435C543.814 259.258 545.861 259.398 547.899 259.283C552.595 259.018 557.328 258.2 561.94 257.299C565.697 256.565 569.524 255.3 573.391 255.617C576.739 255.891 577.091 256.577 577.31 259.808C568.764 259.808 559.961 259.628 551.562 261.437C546.094 262.614 540.068 266.12 537.329 259.8C537.9 259.856 538.47 259.912 539.041 259.968ZM544.384 246.289C546.503 247.903 552.28 245.219 554.82 244.951C557.578 244.659 560.173 244.356 562.846 243.669C565.216 243.059 573.057 240.013 574.875 242.926C577.662 247.389 566.377 248.208 564.588 248.429C557.085 249.356 549.3 250.178 541.999 252.146C542.794 250.194 543.589 248.242 544.384 246.289ZM554.676 231.13C555.224 233.193 572.192 225.591 572.501 231.116C572.739 235.355 555.713 237.467 552.652 237.095C553.369 235.143 555.276 233.395 554.676 231.13ZM560.373 218.163C560.734 214.002 561.292 214.026 564.629 213.634C567.174 213.335 570.672 211.843 570.01 216.379C569.443 220.263 560.01 222.362 560.373 218.163ZM566.438 203.846C567.241 201.612 569.048 204.619 569.086 205.755C569.187 208.778 566.895 208.124 564.689 208.124C565.303 206.712 565.887 205.284 566.438 203.846ZM594.365 187.077C593.915 186.535 591.389 186.328 590.67 186.065C588.902 185.417 589.153 184.036 586.891 185.398C586.778 185.284 586.993 184.26 586.87 184.213C586.808 184.189 585.223 183.591 584.708 183.261C583.465 182.465 582.345 181.686 581.203 180.687C579.989 179.626 578.773 178.086 577.386 177.241C576.801 176.885 576.323 176.38 575.618 176.271C573.789 175.989 574.313 177.263 572.714 177.516C571.729 177.672 571.012 176.522 569.724 177.018C568.611 177.446 567.965 179.007 567.469 179.936C565.666 183.317 564.275 186.956 562.51 190.373C553.484 207.846 543.225 224.656 534.482 242.292C530.271 250.788 525.877 259.343 522.913 268.372C520.776 274.884 515.95 284.397 520.102 290.904C523.121 295.635 529.166 297.678 533.989 299.964C541.246 303.404 547.936 307.9 555.273 311.235C564.022 315.212 572.518 319.372 581.046 323.813C584.683 325.707 587.965 328.435 591.59 330.229C593.807 331.326 597.231 329.454 597.953 331.969C600.732 328.603 605.23 330.847 608.445 328.477C610.336 327.083 611.718 324.337 613.295 322.62C615.661 320.046 618.229 317.658 620.643 315.129C630.224 305.084 639.071 294.622 647.788 283.833C656.114 273.53 665.841 263.796 672.874 252.518C675.667 248.041 676.173 243.346 674.33 238.4C672.984 234.792 669.742 229.344 665.111 231.733C666.867 228.817 660.093 225.703 658.038 225.133C658.007 225.125 657.602 227.365 657.029 227.309C657.233 227.329 655.307 222.346 654.461 221.707C651.949 219.806 648.893 217.588 646.152 216.023C643.638 214.588 640.985 213.877 638.55 212.271C635.598 210.325 632.888 208.017 629.925 206.084C627.064 204.218 623.875 202.012 620.713 200.729C617.971 199.616 615.509 199.398 613.042 197.574C609.99 195.317 607.328 193.786 603.808 192.231C600.763 190.886 596.543 189.711 594.365 187.077Z" fill="black"/>
<path fill-rule="evenodd" clip-rule="evenodd" d="M178.709 457.32C179.269 456.005 179.827 454.69 180.387 453.376C181.079 455.668 181.273 456.808 178.709 457.32ZM179.454 463.394C178.241 463.611 178.719 459.806 178.719 459.143C180.814 460.329 179.079 461.751 179.454 463.394ZM177.563 452.417C178.597 451.806 179.631 451.196 180.665 450.585C179.225 453.253 179.79 451.586 180.384 453.368C179.298 453.68 178.242 453.316 177.563 452.417ZM171.435 473.269C167.559 487.332 155.248 498.423 142.245 504.168C134.773 507.468 127.427 508.294 119.358 507.926C116.246 507.784 112.584 506.773 109.589 506.961C107.283 507.106 107.387 507.206 105.477 509.158C104.632 507.602 105.244 506.51 103.549 505.604C101.434 504.474 100.556 505.79 99.5071 507.355C98.1341 505.932 97.5721 505.189 95.7931 504.344C95.8491 504.371 94.0901 504.304 94.1621 504.326C93.8441 504.228 91.9311 502.998 91.3321 502.774C88.8741 501.852 86.0321 501.473 83.7641 500.15C81.7801 498.995 80.1461 495.752 77.8761 498.244C77.8741 494.08 72.2651 492.353 69.6361 490.172C65.5281 486.764 62.2621 481.718 60.2141 476.837C58.0301 471.632 57.3011 466.642 56.2791 461.278C55.5651 457.53 50.8891 452.112 53.6971 448.33C54.3661 449.916 54.0521 451.54 55.1631 452.978C56.1631 451.051 56.7131 448.895 57.1651 446.786C57.3871 445.753 58.6731 442.721 58.5271 441.821C58.2301 439.979 55.9501 439.879 57.2141 437.621C59.8361 440.474 61.9521 435.464 59.9711 433.467C58.9931 434.57 58.6341 435.823 58.1831 437.189C55.6051 431.985 62.7401 433.661 61.1791 428.963C63.7831 428.462 65.2801 427.806 66.2701 425.233C67.3711 422.37 66.5611 421.746 69.0611 419.854C69.9211 419.204 72.3531 418.269 72.7981 417.199C73.6591 415.132 71.4681 414.519 73.3871 412.582C74.0351 413.719 76.5611 415.97 77.9441 413.828C78.2211 413.401 77.0581 413.098 77.9041 412.114C79.1571 410.658 80.5591 409.23 82.6781 409.536C81.0001 405.341 91.7221 405.009 94.4681 404.019C97.2201 403.028 99.5551 402.377 102.473 402.147C105.388 401.917 105.533 401.063 108.001 399.308C108.21 401.819 108.814 401.267 110.599 401.71C111.028 400.974 111.468 400.891 111.918 401.462C112.366 401.888 112.914 402.088 113.56 402.064C114.54 402.115 115.652 401.987 116.679 402.008C119.09 402.055 121.577 401.854 123.942 401.905C124.552 401.803 125.122 401.591 125.656 401.268C125.879 401.688 126.103 402.109 126.325 402.53C127.578 402.687 127.675 404.257 129.216 402.54C129.672 404.723 130.982 403.587 132.366 404.179C133.628 404.72 133.829 405.584 134.994 406.187C135.76 406.808 136.581 406.89 137.459 406.435C138.294 407.054 139.142 407.655 140.002 408.238C141.587 409.133 143.455 409.681 145.125 410.388C146.236 410.846 147.34 411.323 148.435 411.817C148.468 413.139 149.061 413.606 150.213 413.217C151.254 414.088 151.547 414.054 152.557 415.537C154.845 418.898 156.875 421.509 159.765 424.513C172.326 437.573 176.185 456.037 171.435 473.269ZM175.29 417.735C169.619 410.141 161.592 401.445 154.379 396.649C150.723 394.217 145.591 389.852 141.12 388.566C140.06 388.261 138.963 388.241 137.921 387.921C137.116 387.674 136.678 386.848 135.76 386.699C135.118 386.595 135.047 388.032 134.365 387.9C132.939 387.622 132.035 386.207 131.028 385.322C128.865 389.049 127.691 382.781 124.515 386.995C120.735 381.068 111.855 382.364 105.819 382.663C104.029 382.751 103.188 383.388 101.601 383.86C100.124 384.299 99.9781 384.186 98.3651 384.174C94.3481 384.143 90.7821 384.648 87.0691 386.412C80.8311 389.375 75.1051 393.992 69.1801 397.563C62.5581 401.554 56.5891 406.634 51.5231 412.471C33.2091 433.577 28.3121 464.384 42.9151 488.852C66.1101 527.713 125.941 531.866 159.844 505.498C186.037 485.125 196.005 445.469 175.29 417.735Z" fill="black"/>
<path fill-rule="evenodd" clip-rule="evenodd" d="M462.379 308.378C461.728 309.931 455.649 309.408 455.516 307.577C455.318 304.841 463.51 305.679 462.379 308.378ZM468.836 307.362C472.281 307.642 477.941 309.982 481.261 308.568C486.328 306.41 481.007 303.098 478.289 302.108C475.523 301.101 471.403 301.636 469.981 298.744C468.911 296.569 471.555 290.497 468.275 291.473C464.833 292.497 465.834 301.195 460.433 298.263C457.857 296.864 458.908 288.342 454.593 292.696C453.412 293.887 453.309 296.074 451.745 296.962C450.149 297.869 448.147 296.924 446.462 297.003C442.001 297.212 440.58 301.385 445.1 303.04C446.773 303.653 453.079 304.401 449.259 307.135C446.852 308.857 441.505 305.243 439.438 308.241C436.597 312.359 444.207 312.452 446.251 313.684C449.715 315.77 446.854 320.643 447.13 324.113C447.553 329.415 450.633 328.307 451.752 323.82C452.701 320.013 451.525 314.533 457.264 316.046C466.61 318.51 452.067 330.375 458.913 333.411C463.278 335.347 463.896 324.882 464.235 323.08C465.49 316.429 469.226 317.981 474.886 318.185C481.498 318.423 483.094 313.532 476.092 312.131C473.858 311.684 470.785 312.249 468.845 310.826C467.697 309.985 466.119 307.142 468.836 307.362Z" fill="black"/>
<path fill-rule="evenodd" clip-rule="evenodd" d="M224.71 524.656C219.359 522.74 210.407 523.154 209.083 530.065C208.529 532.958 209.608 536.018 211.606 538.12C213.923 540.557 217.613 540.783 217.416 536.539C217.279 533.602 214.484 531.051 219.398 530.459C222.456 530.091 226.979 532.378 227.131 535.756C227.475 543.37 214.295 543.967 209.438 542.65C199.798 540.038 202.417 529.941 209.037 525.333C210.747 524.142 215.654 522.308 215.878 519.835C216.176 516.555 212.12 517.225 210.132 517.657C195.519 520.838 192.334 545.318 207.603 549.933C214.537 552.028 224.302 549.865 228.481 543.585C232.399 537.697 232.452 527.428 224.71 524.656Z" fill="black"/>
<path fill-rule="evenodd" clip-rule="evenodd" d="M30.9571 351.36C26.3891 353.559 21.8211 355.758 17.2541 357.957C15.7441 354.726 13.1931 345.899 9.36311 344.772C3.16311 342.947 7.11111 352.569 8.18111 354.769C9.06011 356.576 11.0991 359.376 10.6041 361.53C9.94011 364.432 5.84611 365.46 3.70311 366.957C-1.59989 370.663 -1.5579 378.446 6.1221 375.148C10.4681 373.281 15.8491 368.104 19.1801 373.982C20.7181 376.694 24.3621 391.846 28.1681 381.937C30.5231 375.802 19.1881 369.428 24.7761 364.238C26.5751 362.568 28.6811 362.427 30.4781 361.467C34.8181 359.148 32.3711 354.863 30.9571 351.36Z" fill="black"/>
<path fill-rule="evenodd" clip-rule="evenodd" d="M700.643 131.82C697.92 130.824 694.551 128.879 691.524 129.542C688.307 130.246 687.012 133.468 684.673 135.405C678.314 140.672 674.61 132.822 671.116 128.52C667.816 124.458 663.79 123.472 659.134 125.968C657.279 126.963 649.464 131.522 650.827 134.443C651.807 136.545 655.668 134.658 656.985 134.199C659.844 133.204 662.499 132.333 665.423 133.784C670.908 136.504 672.331 143.963 678.967 145.126C685.829 146.329 686.054 139.799 690.951 137.341C694.234 135.694 696.521 138.61 699.688 138.029C702.706 137.476 704.102 133.084 700.643 131.82Z" fill="black"/>
<path fill-rule="evenodd" clip-rule="evenodd" d="M645.243 158.137C647.67 158.664 649.254 153.957 650.773 152.763C653.293 150.784 657.662 150.385 660.228 152.377C665.239 156.265 663.512 164.659 670.647 166.847C677.024 168.803 680.028 160.404 685.396 158.313C688.517 157.097 691.943 156.301 690.725 151.938C689.884 148.921 687.406 148.146 684.712 149.305C680.082 151.295 678.51 159.402 673.021 159.547C667.342 159.697 666.726 151.51 664.288 147.944C660.571 142.509 652.93 141.196 648.588 146.393C647.277 147.961 640.621 157.136 645.243 158.137Z" fill="black"/>
<path fill-rule="evenodd" clip-rule="evenodd" d="M532.987 65.3267C536.363 67.6367 543.091 67.5567 546.201 64.6917C549.366 61.7767 545.141 61.3287 542.563 61.4177C540.58 61.4867 536.868 62.4697 537.998 59.0447C539.001 56.0057 544.514 57.5527 544.974 54.2167C540.825 53.4727 536.255 53.7407 533.186 57.0017C530.967 59.3587 529.827 63.1637 532.987 65.3267Z" fill="black"/>
</svg>
