<svg width="416" height="299" viewBox="0 0 416 299" fill="none" xmlns="http://www.w3.org/2000/svg">
<path fill-rule="evenodd" clip-rule="evenodd" d="M306.87 241.254C304.899 243.9 301.989 245.865 299.756 248.285C297.411 250.826 294.866 253.048 292.531 255.559C282.228 240.936 268.114 231.969 255.887 219.835C250.09 214.082 245.82 206.279 242.694 198.271C241.092 194.165 239.908 189.94 238.982 185.566C238.565 183.596 238.157 181.633 237.884 179.636C237.554 177.218 237.469 177.011 236.064 175.124C235.459 174.312 234.287 171.939 233.103 172.2C232.106 172.421 230.282 175.944 229.652 176.815C226.623 181.001 223.685 185.315 220.495 189.34C215.615 195.498 211.172 201.557 206.641 208.084C197.372 221.437 187.373 234.007 177.284 246.572C176.536 247.504 174.791 250.236 173.716 250.604C172.409 251.05 170.284 249.188 168.968 248.147C165.79 245.635 163.286 242.526 160.569 239.412C155.268 233.336 151.679 224.808 149.264 216.693C147.819 211.836 146.879 206.8 145.387 201.96C144.765 199.942 143.356 197.463 144.072 195.705C144.285 195.182 145.641 193.79 146.119 193.683C146.684 193.557 147.627 194.457 147.823 194.395C149.7 193.799 148.659 191.518 149.775 190.291C150.407 189.595 153.625 189.697 154.586 189.314C158.099 187.915 161.25 185.246 164.571 183.652C178.473 176.983 192.545 170.495 204.547 159.603C207.659 156.779 209.728 154.656 213.441 152.831C217.195 150.986 220.967 149.34 224.797 147.731C228.176 146.311 231.573 144.979 235.064 143.961C238.838 142.86 244.192 141.464 247.963 142.883C255.368 145.667 257.76 152.752 260.709 160.227C264.699 170.34 269.523 179.91 274.753 189.219C284.815 207.128 297.052 223.199 306.87 241.254Z" fill="#FF0000" fill-opacity="0.85"/>
<path fill-rule="evenodd" clip-rule="evenodd" d="M83.8425 82.9223C83.435 82.6822 80.2533 84.186 79.7193 84.416C77.5862 85.3351 75.5769 86.8622 73.5672 88.1045C75.1074 90.2811 76.6481 92.4583 78.1878 94.6354C79.6975 90.3354 81.6378 86.7872 83.8425 82.9223ZM84.8927 109.677C84.3687 109.745 88.7929 122.091 89.3095 123.477C91.1896 128.519 93.1635 133.512 95.0685 138.541C96.9141 143.415 99.2553 147.898 101.614 152.451C103.632 156.345 105.707 162.387 108.75 165.271C106.828 155.372 107.082 143.99 101.57 135.678C95.8569 127.061 90.2083 118.647 84.8927 109.677ZM306.87 241.693C298.333 225.994 287.646 212.106 278.743 196.687C273.758 188.054 268.906 179.31 264.71 170.12C261.658 163.435 259.761 153.897 255.047 148.786C252.97 146.535 250.75 144.331 247.963 143.322C244.148 141.942 238.896 143.31 235.063 144.401C227.922 146.434 220.946 149.592 214.182 152.908C207.321 156.271 201.467 162.313 195.268 167.167C188.618 172.374 181.42 176.167 173.969 179.488C167.482 182.38 161.711 186.531 155.258 189.441C153.972 190.021 151.348 189.936 150.27 190.693C149.107 191.507 149.565 193.911 148.154 194.799C147.518 195.199 147.306 193.748 146.817 193.772C146.219 193.8 145.674 194.615 145.098 195.131C142.753 197.232 144.19 198.633 145.118 201.524C148.145 210.944 149.772 220.528 154.021 229.421C157.515 236.731 162.516 243.281 168.404 248.12C169.299 248.857 172.219 251.71 173.27 251.52C174.216 251.35 176.142 248.429 176.795 247.635C179.76 244.035 182.47 240.162 185.433 236.556C190.012 230.983 194.419 225.261 198.863 219.612C204.021 213.054 208.586 205.624 213.232 198.617C215.369 195.394 218.12 192.768 220.495 189.78C223.69 185.761 226.622 181.44 229.653 177.255C230.569 175.988 232.105 172.748 233.529 172.786C234.528 172.813 236.288 175.542 236.81 176.397C238.751 179.577 238.742 185.318 239.707 189.287C242.062 198.964 246.309 208.416 252.133 215.884C257.925 223.31 265.344 228.591 272.194 234.56C279.615 241.027 286.646 247.645 292.531 255.999C294.866 253.488 297.411 251.266 299.756 248.724C301.99 246.304 304.9 244.34 306.87 241.693ZM196.976 286.108C198.635 286.127 201.446 287.313 202.931 286.599C198.527 280.94 194.482 276.085 188.91 271.938C183.127 267.634 177.364 263.369 171.748 258.779C160.429 249.528 152.105 238.557 147.377 223.152C146.159 219.184 145.344 215.024 144.452 210.945C143.972 208.749 143.016 198.474 141.393 197.587C140.432 197.061 133.198 202.965 132.052 203.701C129.372 205.422 126.682 206.756 123.912 208.103C117.956 210.999 111.817 213.207 105.502 215.051C97.9302 217.262 92.773 213.604 88.0826 206.694C82.7613 198.853 78.3392 190.008 73.4739 181.774C71.2613 178.029 69.4283 174.291 67.7943 170.16C66.7249 167.458 62.4835 160.166 63.9491 157.287C68.1303 160.984 69.6347 168.334 72.483 173.284C76.0329 179.452 80.0334 185.268 83.6016 191.431C86.6022 196.613 89.6634 202.894 94.0963 206.619C97.9957 209.896 101.7 208.888 105.897 207.416C110.983 205.631 116.255 204.751 121.239 202.538C126.633 200.143 131.737 196.745 137 193.975C139.453 192.683 142.391 191.949 144.703 190.338C146.696 188.951 146.398 188.218 146.545 185.264C146.716 181.817 146.912 178.367 147.044 174.918C147.132 172.6 146.052 169.457 146.785 167.726C140.81 168.929 134.97 170.54 129.037 171.966C125.789 172.746 122.657 173.711 119.375 174.324C118.124 174.557 116.414 174.551 115.294 175.184C114.401 174.886 113.945 175.075 113.928 175.751C113.885 176.119 113.817 176.481 113.724 176.837C111.892 177.805 110.827 175.729 109.238 173.738C107.277 171.281 105.809 168.513 104.37 165.626C101.154 159.17 97.4464 153.098 94.4698 146.46C91.4361 139.694 88.9723 132.449 86.4002 125.429C84.0406 118.988 82.5296 112.022 79.9222 105.734C78.7585 102.927 77.2838 100.606 75.5616 98.2348C74.1406 96.278 71.9542 92.057 69.8319 91.1582C69.2708 90.9206 67.8013 91.3198 67.1639 91.2671C65.8933 91.1617 64.7611 90.6201 63.4609 90.7387C60.6457 90.9945 57.5767 93.0617 55.3271 94.8791C56.7809 96.3839 60.4175 98.213 57.8053 100.924C55.2703 103.555 53.8702 98.8347 52.9029 96.7665C48.3477 101.11 49.0061 107.099 48.4799 113.237C48.2051 116.441 47.4821 119.596 47.0157 122.752C46.6797 125.024 46.9153 127.373 46.8193 129.692C46.5746 135.585 46.0645 141.226 46.0894 147.036C46.1156 153.247 46.4799 159.245 46.9079 165.41C47.6283 175.791 49.2788 186.175 50.6943 196.473C51.4905 202.262 52.5804 207.886 53.6385 213.581C54.8393 220.044 57.0605 226.166 58.3062 232.613C59.5755 230.739 60.5301 230.73 62.583 230.979C64.162 231.17 65.2227 230.733 65.1302 233.278C65.0704 234.929 63.8165 236.19 62.429 236.478C60.6196 236.853 60.0048 235.805 59.0724 234.214C58.8542 237.227 60.5995 240.378 61.2897 243.321C61.9429 246.111 62.3757 248.845 63.4735 251.514C64.5447 254.118 65.4618 256.687 66.5456 259.267C67.0448 260.453 67.5116 261.659 68.0164 262.842C68.2717 263.442 68.5723 264.267 68.9532 264.773C69.8468 265.957 69.7045 265.383 70.7504 266.057C73.0288 267.527 72.1732 267.161 72.2264 270.196C72.2784 273.19 73.6004 275.389 75.7205 277.072C80.2184 280.643 84.6549 281.636 89.7685 283.44C94.5331 285.121 99.5516 286.564 104.597 286.531C110.776 286.491 116.873 285.55 123.052 285.455C129.869 285.35 136.751 285.393 143.555 285.666C146.357 285.779 148.96 285.924 151.665 286.755C154.807 287.72 157.846 287.337 161.085 287.191C167.993 286.879 175.14 286.258 181.959 286.202C186.868 286.162 192.048 285.764 196.976 286.108ZM376.122 289.218C377.35 289.971 380.103 289.662 381.338 289.453C383.513 289.084 383.746 288.083 385.126 285.831C387.501 281.953 389.43 278.238 390.827 273.746C393.502 265.147 394.594 256.35 395.768 247.355C397.073 237.361 394.69 227.001 393.838 217.075C393.642 214.797 393.374 212.54 393.064 210.28C392.879 208.929 392.83 204.332 392.064 203.162C390.593 200.915 383.752 202.727 381.062 202.931C373.554 203.501 365.996 203.634 358.492 203.733C354.49 203.785 350.466 203.98 346.505 204.016C344.685 204.033 342.906 203.928 341.08 203.722C340.47 203.654 339.873 203.49 339.258 203.451C337.151 203.316 337.31 202.961 336.765 205.127C335.811 208.922 336.545 213.75 336.295 217.689C335.96 222.952 335.779 228.29 335.862 233.564C335.938 238.438 335.795 243.301 335.952 248.186C336.017 250.209 336.208 251.858 336.667 253.79C337.187 255.974 337.758 261.077 339.052 262.589C339.199 262.761 340.299 262.36 340.591 262.788C341.041 263.449 340.959 264.846 341.268 265.272C342.267 266.653 344.333 266.763 345.832 267.383C349.944 269.086 353.717 270.935 357.592 273.231C361.055 275.283 366.639 277.029 368.721 281.076C369.676 282.931 369.804 285.378 370.682 287.292C371.682 289.473 369.682 288.333 372.131 289.218C373.234 289.616 374.991 289.218 376.122 289.218ZM11.0323 264.554C10.7207 269.59 8.27779 274.387 7.42741 279.338C7.02949 281.656 6.35451 283.935 5.88678 286.24C5.43825 288.451 3.81777 291.07 3.98183 293.257C9.96285 290.783 16.0211 290.161 22.2722 289.493C28.1969 288.86 34.4559 288.609 40.3309 288.606C46.3176 288.602 52.7188 287.923 58.883 287.818C65.3296 287.708 71.8735 287.514 78.2267 286.737C74.9045 283.88 70.7478 281.197 68.2948 277.222C65.628 272.901 64.2432 267.486 61.8967 262.926C57.1879 253.775 54.1944 242.421 51.7261 232.14C46.743 211.386 41.1743 191.015 39.8322 169.488C37.278 171.007 35.2504 176.9 33.9716 179.834C32.3393 183.581 31.4846 187.642 30.4234 191.625C28.2384 199.827 26.7261 208.332 24.0506 216.456C18.937 231.987 15.6502 248.721 11.0323 264.554ZM335.7 143.594C336.806 152.877 339.126 162.279 339.215 171.673C339.234 173.74 338.933 176.035 339.304 178.073C339.7 180.248 340.988 182.171 341.732 184.239C342.913 187.521 345.903 194.249 343.019 197.03C342.961 194.391 340.881 191.039 339.833 188.731C338.254 185.254 336.18 182.075 334.468 178.684C330.885 171.586 326.87 164.64 322.252 158.382C317.755 152.287 312.572 146.881 307.802 141.077C306.369 139.333 294.874 122.549 294.417 122.783C297.983 138.75 304.044 152.643 312.339 166.012C316.406 172.566 321.287 176.878 326.238 182.43C330.361 187.054 338.131 191.998 336.705 199.574C343.15 198.855 349.553 197.705 356.056 197.705C354.987 188.147 354.168 178.74 352.258 169.339C350.091 158.664 348.623 147.67 346.788 136.9C344.916 125.906 341.741 115.262 339.766 104.288C337.875 93.7797 336.25 83.2902 334.863 72.6649C333.718 78.5524 334.14 85.0189 333.734 91.0259C333.318 97.1632 333.358 103.187 333.497 109.361C333.753 120.827 334.805 132.155 335.7 143.594ZM363.627 88.9263C363.663 84.0183 364.482 79.1766 364.735 74.2802C364.812 72.7779 366.101 62.5286 364.899 61.9935C363.911 64.4954 363.681 67.6971 362.783 70.3221C361.887 72.9446 360.687 75.4429 359.827 78.0837C357.963 83.8044 357.32 90.2776 357.119 96.3596C356.665 110.117 356.43 123.843 357.226 137.6C357.567 143.496 357.829 149.403 357.736 155.311C357.633 161.812 356.776 167.455 357.817 173.903C358.848 180.288 359.495 186.646 359.838 193.125C360.079 197.671 360.176 197.35 363.912 197.03C366.609 196.799 369.332 197.046 372.033 196.902C370.77 179.181 370.564 161.424 368.547 143.77C367.518 134.764 367.49 125.628 366.212 116.656C365.577 112.198 364.511 107.831 363.898 103.369C363.24 98.5778 363.564 93.7543 363.627 88.9263ZM90.4461 77.7741C97.6379 78.4976 105.288 80.9945 112.659 79.3458C111.444 78.7743 108.264 77.9859 109.696 75.7302C111.151 73.4366 113.603 76.3458 115.054 76.0454C115.949 75.8599 117.926 71.5163 118.478 70.617C119.729 68.5731 119.88 68.2169 122.131 67.693C124.312 67.1863 124.806 67.7351 125.083 65.2174C125.4 62.3223 124.537 59.0675 124.623 56.1071C124.806 49.7337 126.577 44.1447 128.225 38.1483C121.223 39.9171 114.377 42.0147 107.218 43.1547C104.158 43.6421 99.3967 44.7664 96.6165 42.3506C95.8935 41.7224 96.0091 40.8742 95.4175 40.1461C94.4253 38.9245 92.5849 37.6609 91.1778 37.3129C82.5183 35.1722 81.6736 49.5073 86.0132 54.8713C87.1 56.2155 88.6123 56.8792 89.7253 58.1109C91.211 59.7536 91.3327 61.4838 91.5496 63.9913C91.9562 68.6932 91.4038 73.4133 89.6765 77.7143L90.4461 77.7741ZM195.531 145.449C198.087 146.013 200.755 145.884 203.318 146.365C204.229 146.536 206.959 147.132 207.759 146.513C208.982 145.569 209.416 142.107 209.995 140.495C211.011 137.659 212.45 135.186 213.419 132.298C217.381 120.504 221.075 108.663 225.867 97.2716C224.03 96.7173 222.62 96.6955 220.769 96.4093C218.841 96.1108 217.093 94.7869 215.254 94.2179C213.506 93.6773 211.674 93.8151 209.942 93.1864C208.988 92.8403 208.169 92.0707 207.228 91.8016C205.728 91.3735 203.978 91.1232 203.086 92.2663C202.172 93.4387 201.852 96.6535 201.354 98.1679C200.029 102.202 198.491 106.096 197.381 110.223C196.38 113.946 195.429 117.629 194.547 121.385C193.616 125.351 191.781 128.619 190.663 132.408C189.813 135.291 189.01 138.239 188.883 141.313C188.76 144.313 188.384 144.504 190.967 144.984C192.271 145.225 194.304 146.125 195.531 145.449ZM363.726 285.854C364.392 286.215 365.02 286.167 365.609 285.711C359.836 282.879 354.221 278.953 348.199 277.01C342.55 275.189 337.06 273.012 331.618 270.768C327.195 268.945 323.22 267.526 319.222 264.318C316.795 262.37 314.639 260.181 312.972 257.335C311.115 254.166 310.702 249.657 308.691 246.803C305.977 250.264 302.789 252.885 299.578 255.635C298.468 256.587 295.803 258.661 295.423 260.134C294.943 261.991 296.228 263.769 296.863 265.649C298.49 270.464 299.285 275.277 300.168 280.284C300.522 282.29 301.286 285.306 302.705 286.147C303.997 286.911 307.74 286.355 309.348 286.214C317.739 285.475 325.98 284.719 334.421 285.392C343.973 286.152 354.199 286.678 363.726 285.854ZM380.485 196.625C382.009 196.631 383.499 196.409 385.018 196.409C384.141 191.654 386.192 185.501 386.918 180.755C387.732 175.445 388.351 169.955 388.893 164.603C390.036 153.331 390.554 142.195 390.569 130.839C390.583 119.851 392.306 109.81 394.718 99.2471C397.309 87.9029 401.552 77.7012 405.06 66.7607C401.212 69.1228 399.082 74.65 397.06 78.8756C394.504 84.2184 392.802 90.1342 391.758 96.1321C389.744 107.703 387.536 119.308 385.212 130.86C382.793 142.888 381.371 155.026 378.599 166.955C377.247 172.773 375.41 179.93 375.308 185.929C375.265 188.411 374.621 193.608 375.59 195.764C376.496 197.78 378.498 196.83 380.485 196.625ZM150.306 181.701C150.225 182.937 150.149 184.111 149.96 185.332C152.073 185.308 154.748 182.763 156.559 181.621C158.766 180.229 160.976 178.694 163.134 177.295C167.301 174.593 172.032 172.813 176.481 170.594C181.592 168.045 186.289 164.964 191.177 161.895C192.884 160.823 205.154 154.646 204.949 152.959C202.255 152.855 199.561 152.751 196.867 152.647C194.557 152.558 190.98 153.164 188.769 152.335C187.557 151.88 186.197 150.208 185.74 148.898C185.288 147.602 186.305 141.641 185.714 141.261C182.699 144.836 180.803 149.587 178.107 153.443C175.129 157.705 171.279 160.194 167.037 162.459C162.352 164.96 157.504 166.897 152.716 169.041C150.697 169.945 150.737 170.462 150.561 173.033C150.364 175.906 150.385 178.82 150.306 181.701ZM393.747 289.803C398.825 290.436 404.029 290.075 409.147 290.569C411.01 290.748 413.591 291.016 411.718 293.918C410.538 295.746 406.759 295.16 405.044 295.286C400.442 295.626 395.568 295.444 390.955 295.365C389.984 295.348 388.911 295.013 387.929 295.088C386.796 295.175 385.439 296.121 384.406 296.114C383.77 296.11 383.541 295.33 382.992 295.259C381.797 295.103 380.601 294.989 379.395 294.989C361.161 294.994 343.178 294.568 324.99 294.545C316.293 294.535 307.456 294.36 298.763 293.886C296.937 293.786 286.54 294.22 286.828 290.403C286.976 288.437 290.37 288.16 291.608 287.951C292.525 287.796 293.477 287.821 294.397 287.764C296.839 287.612 297.909 288.294 297.394 285.191C295.44 273.42 291.938 263.692 284.456 255.229C278.338 248.308 270.971 242.03 264.041 236.251C255.627 229.234 248.802 221.854 243.806 211.116C240.889 204.846 238.447 198.435 236.948 191.502C236.409 189.007 236.396 186.171 235.735 183.766C235.227 181.915 234.068 180.619 233.386 178.701C225.015 194.938 213.92 208.522 203.746 223.162C198.885 230.156 193.34 236.799 187.533 242.883C185.809 244.689 184.201 246.574 182.592 248.517C181.247 250.144 179.11 251.589 177.974 253.393C176.884 255.124 177.153 255.042 178.811 256.416C181.004 258.233 183.421 259.742 185.649 261.513C189.209 264.345 193.095 266.737 196.278 270.145C199.721 273.831 202.729 278.1 205.739 282.256C207.744 285.026 210.376 288.58 210.881 292.082C211.048 293.241 211.682 296.106 210.845 296.955C210.129 297.68 210.201 297.405 209.313 296.963C208.149 296.383 207.806 295.053 206.384 294.419C202.746 292.798 198.343 293.355 194.557 293.335C190.77 293.315 186.951 293.809 183.166 293.791C174.522 293.75 166.061 294.562 157.42 294.999C148.241 295.462 138.951 294.35 129.803 294.508C123.025 294.624 116.067 294.036 109.102 294.473C105.519 294.698 102.001 294.177 98.5075 294.119C93.934 294.043 89.2371 294.765 84.6244 294.868C77.0534 295.038 69.575 295.037 61.9577 295.248C45.5732 295.703 29.2772 296.174 12.8831 296.475C10.6963 296.515 8.30223 296.429 6.14116 296.715C3.84744 297.019 5.0316 297.585 3.45781 298.544C-0.948106 301.228 0.0693831 291.279 0.174972 289.322C0.74131 278.836 3.03371 268.552 5.78861 258.597C8.40214 249.155 10.5239 239.273 12.7374 229.627C15.1602 219.07 18.317 208.945 21.1836 198.491C24.1209 187.779 26.5123 176.65 31.8471 167.154C33.0623 164.992 34.318 162.665 36.2727 161.301C38.4639 159.773 38.5581 160.666 38.5564 157.868C38.5551 155.234 38.6947 151.714 38.1593 149.2C37.6755 146.928 37.7501 148.275 36.6606 146.644C35.774 145.317 34.8464 144.41 34.2102 142.798C30.3026 147.4 21.3577 144.972 17.5822 141.658C12.9612 137.603 9.44145 130.762 8.1517 124.246C7.11588 119.014 8.38687 109.04 13.374 106.524C15.8051 105.297 24.7348 104.37 25.0921 100.372C25.2762 98.3088 22.1334 95.4071 21.4083 93.6327C20.0644 90.3455 18.7738 85.973 18.4003 82.3696C17.6708 75.336 20.4205 67.4711 24.8006 62.7201C32.8358 54.0044 46.9738 49.5316 57.3097 55.0613C55.1255 45.3724 53.8069 37.0139 54.9069 26.9353C55.8546 18.2526 60.2661 13.3947 66.3366 9.06982C76.6956 1.68857 90.7825 -1.22476 102.627 0.921477C105.319 1.4094 107.902 2.45566 110.394 3.28811C114.015 4.49752 118.349 4.09472 121.768 6.05972C124.246 7.48396 126.128 10.3213 128.305 12.2157C130.847 14.4273 132.959 17.7282 134.724 20.7809C138.501 27.3088 137.025 39.4241 133.864 45.9768C133.187 47.3823 132.349 48.5654 131.228 49.5245C130.061 50.5226 128.281 50.8332 127.679 52.1277C126.138 55.4439 127.625 62.6228 127.83 66.207C128.07 70.3687 126.258 73.4948 122.194 73.8267C119.843 74.0192 119.768 72.4354 118.642 75.6943C117.913 77.8065 117.25 80.1078 116.197 82.0443C114.026 86.0353 110.051 85.6457 106.429 85.5377C102.237 85.4121 98.1078 84.643 93.9135 84.1576C95.0213 88.2793 98.0537 91.4784 99.9473 95.1502C102.508 100.117 104.049 104.233 104.465 110.019C104.784 114.465 104.095 117.975 101.475 121.284C100.391 122.653 99.4299 122.721 99.6991 124.301C99.8631 125.264 101.298 126.854 101.806 127.623C103.149 129.658 104.709 131.526 105.892 133.699C110.442 142.06 111.785 154.805 111.797 164.538C111.797 164.985 112.002 165.934 111.833 166.395C111.707 166.736 110.752 167.816 110.738 167.909C110.552 169.16 111.602 171.306 113.251 171.518C114.983 171.74 118.154 170.062 119.765 169.511C122.343 168.628 124.97 167.977 127.543 167.07C131.697 165.607 135.832 164.439 140.055 163.292C141.963 162.774 143.882 162.343 145.797 161.858C147.977 161.307 148.991 160.241 150.116 162.818C151.082 165.029 150.481 165.43 152.821 164.316C155.143 163.208 157.412 161.836 159.68 160.587C163.679 158.384 168.442 156.42 171.892 153.168C177.646 147.742 179.777 139.101 185.285 133.344C186.819 131.741 187.734 131.713 188.703 129.492C189.741 127.115 190.277 124.067 190.822 121.51C191.778 117.034 192.458 112.541 193.325 108.068C194.405 102.496 196.739 97.4494 198.442 92.1345C199.105 90.0638 199.449 87.4317 200.519 85.5707C200.803 85.0772 201.345 84.799 201.566 84.3907C202.328 82.9887 202.32 82.6037 202.517 80.917C203.44 73.0358 207.491 77.1818 211.918 78.9891C213.783 79.7506 222.64 84.6891 219.258 87.9733C223.29 89.3316 229.747 88.5934 229.692 95.3027C229.664 98.7404 227.894 102.418 226.944 105.636C226.099 108.493 225.283 111.361 224.426 114.213C222.548 120.462 220.269 126.524 218.436 132.792C217.6 135.648 216.911 138.572 215.748 141.268C214.722 143.646 212.238 146.268 211.829 148.868C222.572 143.546 232.511 135.851 244.536 136.341C249.802 136.555 254.58 139.126 257.488 144.502C261.134 151.241 263.533 158.785 267.096 165.586C280.06 190.326 295.521 212.802 309.752 236.518C310.845 238.34 312.251 240.063 312.63 242.316C312.877 243.785 312.397 245.255 312.694 246.666C313.31 249.6 316.42 253.263 318.529 254.948C322.572 258.18 329.145 262.738 334.19 262.334C331.023 253.498 331.066 243.816 331.213 234.391C331.353 225.438 332.186 216.556 333.175 207.695C333.399 205.69 333.594 203.832 334.09 201.889C334.66 199.66 335.441 199.871 333.736 197.867C331.111 194.781 327.989 192.242 325.342 189.118C319.619 182.362 313.754 177.067 309.249 169C304.965 161.326 300.446 153.431 297.275 145.028C294.01 136.378 292.705 127.14 291.085 117.979C290.427 114.261 288.029 110.111 288.511 106.229C289.12 101.323 291.079 104.895 291.877 107.536C294.31 115.595 300.009 122.809 304.729 129.29C309.829 136.292 316.066 142.151 321.389 148.949C327.185 156.354 331.156 164.863 336.311 172.767C336.311 162.958 333.427 152.97 332.247 143.266C331.209 134.725 330.883 126.158 330.227 117.58C328.737 98.0944 330.024 78.035 332.115 58.6891C333.109 49.5012 332.546 40.5297 332.576 31.3104C332.585 28.3763 331.539 21.6138 332.872 19.0101C335.425 14.023 336.914 24.9279 337.044 26.5538C337.815 36.2392 336.431 45.8167 337.138 55.4606C337.877 65.5316 339.481 75.3198 340.846 85.2743C342.325 96.0526 344.732 106.588 347.037 117.159C349.456 128.259 351.491 139.59 354.182 150.601C354.907 147.14 353.889 142.888 353.688 139.363C353.401 134.318 352.84 129.273 352.792 124.216C352.714 116.155 352.66 107.945 353.053 99.922C353.44 92.0139 353.323 83.7274 355.412 76.1087C356.403 72.4926 357.857 68.9647 359.279 65.5584C361.034 61.3582 361.654 57.2856 362.626 52.8183C363.459 48.9925 364.677 45.2675 365.231 41.3652C365.576 38.9382 366.538 31.774 368.931 37.2019C370.32 40.3523 369.72 45.0228 369.759 48.4073C369.808 52.7464 369.236 56.9654 369.149 61.2862C368.978 69.7637 368.855 78.2311 368.311 86.6945C367.74 95.5738 368.238 103.531 369.693 112.281C371.285 121.858 371.751 131.455 372.576 141.149C373.002 146.155 373.719 151.132 374.065 156.145C374.249 158.799 373.309 166.411 374.947 168.301C375.105 163.703 376.24 159.102 377.1 154.622C378.118 149.315 378.53 143.735 379.281 138.352C380.497 129.63 382.856 121.301 384.417 112.677C387.635 94.8999 390.309 72.0518 403.795 60.4158C405.559 58.8932 407.498 57.7695 409.406 56.5165C410.486 55.8071 412.09 53.972 413.326 53.6518C414.674 53.3022 415.237 53.5738 415.783 55.3907C416.546 57.9235 415.152 59.1065 413.85 60.9462C409.346 67.312 407.422 75.4723 404.641 82.938C398.272 100.033 395.455 118.065 395.422 136.544C395.405 146.217 394.831 155.548 393.942 165.163C392.986 175.51 391.728 186.454 389.02 196.409C391.735 197.116 394.681 196.062 395.418 199.727C395.599 200.627 395.272 201.692 395.472 202.864C395.667 204.003 396.135 205.136 396.412 206.256C396.985 208.573 397.287 210.859 397.566 213.238C398.642 222.433 400.49 231.179 400.687 240.502C400.868 249.12 399.415 257.851 398.077 266.303C396.728 274.816 392.86 282.073 389.815 289.772C391.126 289.772 392.436 289.788 393.747 289.803Z" fill="black"/>
<path fill-rule="evenodd" clip-rule="evenodd" d="M221.402 270.234C219.958 270.708 212.986 271.603 212.987 274.143C212.988 275.667 219.951 275.637 221.183 275.803C221.256 273.947 221.329 272.09 221.402 270.234ZM236.791 287.764C240.809 288.651 246.262 287.404 248.831 283.291C250.031 281.369 250.6 278.446 250.991 276.152C251.364 273.966 252.516 268.512 251.732 266.463C250.77 263.947 241.539 266.577 238.851 266.865C234.161 267.368 229.311 267.427 224.618 267.072C224.618 272.699 224.37 278.183 227.22 283.027C229.277 286.521 233.138 287.346 236.791 287.764ZM235.983 294.714C231.618 292.859 227.035 294.065 224.192 288.623C223.471 287.242 222.864 285.757 222.427 284.224C222.214 283.552 222.048 282.864 221.931 282.159C222.153 280.642 221.674 280.215 220.495 280.876C218.181 280.353 215.644 282.198 213.207 281.654C207.296 280.336 208.369 270.503 212.336 267.099C213.12 266.426 213.903 266.239 214.8 265.907C216.777 265.175 217.847 265.992 219.656 265.785C221.118 265.617 221.52 263.837 223.09 263.053C224.119 262.541 225.546 262.58 226.627 262.528C232.286 262.258 237.962 262.261 243.656 261.833C246.312 261.633 249.179 262.122 251.781 261.595C252.999 261.347 252.824 260.406 253.978 261.232C255.172 262.087 254.656 265.25 254.596 266.511C254.248 273.803 253.874 281.624 250.51 287.999C247.432 293.833 241.375 294.43 235.983 294.714Z" fill="black"/>
<path fill-rule="evenodd" clip-rule="evenodd" d="M5.43945 296.723C6.84395 296.705 8.24802 296.688 9.64772 296.672C8.24147 296.689 6.84046 296.706 5.43945 296.723Z" fill="black"/>
<path fill-rule="evenodd" clip-rule="evenodd" d="M395.43 141.24C395.428 139.673 395.425 138.107 395.422 136.543C395.425 138.111 395.428 139.675 395.43 141.24Z" fill="black"/>
<path fill-rule="evenodd" clip-rule="evenodd" d="M38.1627 147.674C38.1588 149.2 38.1548 150.726 38.1509 152.248C38.1544 150.721 38.1584 149.197 38.1627 147.674Z" fill="black"/>
<path fill-rule="evenodd" clip-rule="evenodd" d="M154.908 294.993C156.026 294.995 157.143 294.997 158.255 295C157.136 294.999 156.023 294.996 154.908 294.993Z" fill="black"/>
<path fill-rule="evenodd" clip-rule="evenodd" d="M87.0623 294.682C88.1797 294.686 89.2966 294.69 90.4088 294.695C89.2897 294.692 88.1762 294.687 87.0623 294.682Z" fill="black"/>
<path fill-rule="evenodd" clip-rule="evenodd" d="M331.36 231.303C331.311 232.333 331.261 233.362 331.213 234.39C331.262 233.359 331.311 232.331 331.36 231.303Z" fill="black"/>
<path fill-rule="evenodd" clip-rule="evenodd" d="M393.747 289.803C392.884 289.792 392.02 289.782 391.157 289.771C392.024 289.351 392.888 289.37 393.747 289.803Z" fill="black"/>
<path fill-rule="evenodd" clip-rule="evenodd" d="M317.083 294.364C317.704 294.352 318.323 294.341 318.937 294.329C318.316 294.34 317.7 294.352 317.083 294.364Z" fill="black"/>
<path fill-rule="evenodd" clip-rule="evenodd" d="M395.094 153.951C395.11 153.172 395.126 152.394 395.141 151.618C395.126 152.398 395.11 153.174 395.094 153.951Z" fill="black"/>
<path fill-rule="evenodd" clip-rule="evenodd" d="M337.138 55.4604C337.087 54.6573 337.036 53.8547 336.985 53.0537C337.036 53.8573 337.087 54.6588 337.138 55.4604Z" fill="black"/>
<path fill-rule="evenodd" clip-rule="evenodd" d="M395.4 144.307C395.409 143.502 395.417 142.697 395.426 141.895C395.417 142.701 395.409 143.504 395.4 144.307Z" fill="black"/>
<path fill-rule="evenodd" clip-rule="evenodd" d="M200.505 293.365C201.056 293.375 201.607 293.384 202.153 293.392C201.601 293.382 201.053 293.374 200.505 293.365Z" fill="black"/>
<path fill-rule="evenodd" clip-rule="evenodd" d="M342.441 294.678C342.98 294.69 343.519 294.703 344.052 294.716C343.512 294.704 342.977 294.691 342.441 294.678Z" fill="black"/>
<path fill-rule="evenodd" clip-rule="evenodd" d="M400.624 238.079C400.586 237.372 400.547 236.667 400.51 235.962C400.548 236.668 400.586 237.373 400.624 238.079Z" fill="black"/>
<path fill-rule="evenodd" clip-rule="evenodd" d="M390.955 295.365C391.394 295.362 391.832 295.358 392.266 295.357C391.826 295.361 391.39 295.363 390.955 295.365Z" fill="black"/>
<path fill-rule="evenodd" clip-rule="evenodd" d="M331.216 294.71C331.65 294.698 332.084 294.686 332.514 294.674C332.078 294.687 331.646 294.699 331.216 294.71Z" fill="black"/>
<path fill-rule="evenodd" clip-rule="evenodd" d="M233.617 294.325C234.095 294.322 234.573 294.319 235.047 294.315C234.567 294.318 234.092 294.322 233.617 294.325Z" fill="black"/>
<path fill-rule="evenodd" clip-rule="evenodd" d="M123.4 294.323C123.854 294.327 124.309 294.331 124.758 294.335C124.302 294.332 123.851 294.328 123.4 294.323Z" fill="black"/>
<path fill-rule="evenodd" clip-rule="evenodd" d="M96.5876 294.407C97.051 294.378 97.5135 294.347 97.9725 294.318C97.5078 294.348 97.048 294.378 96.5876 294.407Z" fill="black"/>
<path fill-rule="evenodd" clip-rule="evenodd" d="M224.954 89.4024C224.265 89.3334 223.575 89.2645 222.886 89.1951C223.576 89.2514 224.306 88.7771 224.954 89.4024Z" fill="black"/>
<path fill-rule="evenodd" clip-rule="evenodd" d="M400.691 290.107C400.011 290.028 399.331 289.948 398.651 289.868C399.332 289.948 400.011 290.028 400.691 290.107Z" fill="black"/>
<path fill-rule="evenodd" clip-rule="evenodd" d="M353.274 94.2629C353.229 94.9545 353.183 95.6466 353.138 96.3362C353.184 95.6436 353.229 94.953 353.274 94.2629Z" fill="black"/>
<path fill-rule="evenodd" clip-rule="evenodd" d="M395.572 123.098C395.618 122.443 395.664 121.787 395.71 121.134C395.664 121.791 395.617 122.444 395.572 123.098Z" fill="black"/>
<path fill-rule="evenodd" clip-rule="evenodd" d="M353.004 104.991C352.956 105.682 352.906 106.372 352.858 107.06C352.907 106.369 352.956 105.68 353.004 104.991Z" fill="black"/>
<path fill-rule="evenodd" clip-rule="evenodd" d="M395.283 149.565C395.279 148.898 395.275 148.231 395.271 147.565C395.641 148.231 395.626 148.896 395.283 149.565Z" fill="black"/>
<path fill-rule="evenodd" clip-rule="evenodd" d="M331.369 245.392C331.364 246.061 331.359 246.73 331.353 247.396C330.973 246.721 331.049 246.055 331.369 245.392Z" fill="black"/>
<path fill-rule="evenodd" clip-rule="evenodd" d="M374.697 168.013C374.631 167.336 374.564 166.658 374.498 165.983C374.564 166.661 374.631 167.337 374.697 168.013Z" fill="black"/>
<path fill-rule="evenodd" clip-rule="evenodd" d="M15.9298 105.881C15.479 106.572 14.8651 106.099 14.3293 106.183C14.8634 106.082 15.3966 105.982 15.9298 105.881Z" fill="black"/>
<path fill-rule="evenodd" clip-rule="evenodd" d="M238.797 262.312C238.227 262.314 237.658 262.314 237.088 262.315C237.658 262.314 238.227 262.313 238.797 262.312Z" fill="black"/>
<path fill-rule="evenodd" clip-rule="evenodd" d="M329.767 108.722C329.82 109.285 329.873 109.847 329.926 110.407C329.873 109.844 329.82 109.283 329.767 108.722Z" fill="black"/>
<path fill-rule="evenodd" clip-rule="evenodd" d="M48.3665 52.8669C47.7941 52.8801 47.2216 52.8932 46.6492 52.9064C47.2155 52.5193 47.7862 52.4074 48.3665 52.8669Z" fill="black"/>
<path fill-rule="evenodd" clip-rule="evenodd" d="M352.99 114.719C352.953 115.309 352.916 115.898 352.88 116.486C352.917 115.896 352.953 115.308 352.99 114.719Z" fill="black"/>
<path fill-rule="evenodd" clip-rule="evenodd" d="M337.292 42.326C337.336 41.7884 337.38 41.2508 337.424 40.7163C337.38 41.2549 337.336 41.7904 337.292 42.326Z" fill="black"/>
<path fill-rule="evenodd" clip-rule="evenodd" d="M332.793 40.6418C332.748 41.225 332.704 41.8087 332.659 42.3898C332.704 41.8057 332.748 41.2235 332.793 40.6418Z" fill="black"/>
<path fill-rule="evenodd" clip-rule="evenodd" d="M84.1403 1.68359C83.5578 1.76567 82.9754 1.84775 82.3933 1.92933C82.9758 1.84725 83.5578 1.76567 84.1403 1.68359Z" fill="black"/>
<path fill-rule="evenodd" clip-rule="evenodd" d="M42.0692 53.3308C41.4714 53.4017 40.8737 53.4727 40.2764 53.5436C40.8741 53.4727 41.4719 53.4017 42.0692 53.3308Z" fill="black"/>
<path fill-rule="evenodd" clip-rule="evenodd" d="M369.626 55.0402C369.662 54.4975 369.698 53.9544 369.734 53.4148C369.698 53.9579 369.662 54.4991 369.626 55.0402Z" fill="black"/>
<path fill-rule="evenodd" clip-rule="evenodd" d="M22.45 144.596C22.7942 144.603 23.138 144.608 23.477 144.614C23.1315 144.608 22.7907 144.603 22.45 144.596Z" fill="black"/>
<path fill-rule="evenodd" clip-rule="evenodd" d="M332.81 211.571C332.776 212.172 332.742 212.772 332.708 213.371C332.743 212.771 332.777 212.171 332.81 211.571Z" fill="black"/>
<path fill-rule="evenodd" clip-rule="evenodd" d="M367.929 94.6311C367.915 94.052 367.901 93.4734 367.887 92.8958C367.902 93.4754 367.916 94.053 367.929 94.6311Z" fill="black"/>
<path fill-rule="evenodd" clip-rule="evenodd" d="M98.8033 0.313257C98.2723 0.313257 97.7413 0.313764 97.2112 0.313764C97.7422 -0.109808 98.2727 -0.099168 98.8033 0.313257Z" fill="black"/>
<path fill-rule="evenodd" clip-rule="evenodd" d="M240.567 136.618C239.986 136.635 239.404 136.653 238.823 136.67C239.394 136.201 239.976 136.189 240.567 136.618Z" fill="black"/>
<path fill-rule="evenodd" clip-rule="evenodd" d="M291.394 293.342C291.738 293.35 292.083 293.359 292.424 293.368C292.077 293.361 291.735 293.351 291.394 293.342Z" fill="black"/>
<path fill-rule="evenodd" clip-rule="evenodd" d="M304.377 294.046C304.721 294.031 305.065 294.017 305.405 294.003C305.059 294.018 304.718 294.032 304.377 294.046Z" fill="black"/>
<path fill-rule="evenodd" clip-rule="evenodd" d="M101.187 294.324C101.546 294.334 101.905 294.345 102.259 294.355C101.899 294.345 101.543 294.334 101.187 294.324Z" fill="black"/>
<path fill-rule="evenodd" clip-rule="evenodd" d="M400.327 231.378C400.276 230.806 400.225 230.233 400.173 229.663C400.225 230.236 400.276 230.807 400.327 231.378Z" fill="black"/>
<path fill-rule="evenodd" clip-rule="evenodd" d="M353.43 134.86C353.471 135.405 353.511 135.951 353.551 136.493C353.511 135.947 353.47 135.403 353.43 134.86Z" fill="black"/>
<path fill-rule="evenodd" clip-rule="evenodd" d="M371.478 125.491C371.422 124.912 371.366 124.333 371.311 123.757C371.367 124.336 371.422 124.913 371.478 125.491Z" fill="black"/>
<path fill-rule="evenodd" clip-rule="evenodd" d="M104.1 294.669C104.462 294.662 104.825 294.655 105.183 294.65C104.819 294.657 104.459 294.663 104.1 294.669Z" fill="black"/>
<path fill-rule="evenodd" clip-rule="evenodd" d="M235.983 294.713C236.335 294.695 236.687 294.677 237.035 294.659C236.682 294.678 236.332 294.696 235.983 294.713Z" fill="black"/>
<path fill-rule="evenodd" clip-rule="evenodd" d="M368.533 83.2405C368.517 82.6543 368.501 82.0681 368.485 81.4829C368.501 82.0696 368.517 82.6548 368.533 83.2405Z" fill="black"/>
<path fill-rule="evenodd" clip-rule="evenodd" d="M69.7605 295.052C70.1139 295.049 70.4669 295.045 70.8155 295.042C70.4603 295.046 70.1109 295.049 69.7605 295.052Z" fill="black"/>
<path fill-rule="evenodd" clip-rule="evenodd" d="M368.385 295.045C368.748 295.049 369.111 295.054 369.47 295.059C369.104 295.055 368.744 295.05 368.385 295.045Z" fill="black"/>
<path fill-rule="evenodd" clip-rule="evenodd" d="M376.227 294.996C376.578 295.024 376.928 295.053 377.275 295.081C376.923 295.052 376.575 295.024 376.227 294.996Z" fill="black"/>
<path fill-rule="evenodd" clip-rule="evenodd" d="M379.395 294.988C379.752 295 380.11 295.013 380.462 295.022C380.104 295.01 379.75 294.999 379.395 294.988Z" fill="black"/>
<path fill-rule="evenodd" clip-rule="evenodd" d="M395.658 127.815C395.635 127.238 395.612 126.661 395.589 126.086C395.612 126.664 395.635 127.239 395.658 127.815Z" fill="black"/>
<path fill-rule="evenodd" clip-rule="evenodd" d="M155.976 287.431C157.062 287.365 158.148 287.299 159.235 287.233C158.148 287.299 157.062 287.365 155.976 287.431Z" fill="black"/>
<path fill-rule="evenodd" clip-rule="evenodd" d="M90.4463 77.7742C91.3892 77.8694 92.332 77.9647 93.2741 78.0589C92.3312 77.9642 91.3887 77.8689 90.4463 77.7742Z" fill="black"/>
<path fill-rule="evenodd" clip-rule="evenodd" d="M356.663 125.376C356.692 126.421 356.722 127.465 356.751 128.507C356.721 127.462 356.692 126.419 356.663 125.376Z" fill="black"/>
<path fill-rule="evenodd" clip-rule="evenodd" d="M376.122 289.217C377.106 289.286 378.09 289.355 379.074 289.425C378.084 289.477 377.079 289.805 376.122 289.217Z" fill="black"/>
<path fill-rule="evenodd" clip-rule="evenodd" d="M370.297 165.638C370.305 164.642 370.312 163.645 370.32 162.651C370.312 163.648 370.305 164.643 370.297 165.638Z" fill="black"/>
<path fill-rule="evenodd" clip-rule="evenodd" d="M367.778 196.951C368.641 196.964 369.506 196.978 370.369 196.991C369.505 196.977 368.641 196.964 367.778 196.951Z" fill="black"/>
<path fill-rule="evenodd" clip-rule="evenodd" d="M150.368 179.43C150.346 180.189 150.325 180.949 150.305 181.705C150.326 180.944 150.347 180.187 150.368 179.43Z" fill="black"/>
<path fill-rule="evenodd" clip-rule="evenodd" d="M382.151 147.269C382.116 148.025 382.081 148.781 382.046 149.533C382.082 148.776 382.116 148.023 382.151 147.269Z" fill="black"/>
<path fill-rule="evenodd" clip-rule="evenodd" d="M363.726 285.854C364.354 285.805 364.983 285.756 365.61 285.708C365.137 286.148 364.662 286.184 363.726 285.854Z" fill="black"/>
<path fill-rule="evenodd" clip-rule="evenodd" d="M359.521 187.055C359.564 187.87 359.607 188.685 359.649 189.497C359.606 188.682 359.564 187.868 359.521 187.055Z" fill="black"/>
<path fill-rule="evenodd" clip-rule="evenodd" d="M124.602 58.4613C124.609 57.6744 124.616 56.8876 124.623 56.1038C124.616 56.8916 124.609 57.6764 124.602 58.4613Z" fill="black"/>
<path fill-rule="evenodd" clip-rule="evenodd" d="M360.282 197.115L362.623 197.056C361.851 197.49 361.07 197.505 360.282 197.115Z" fill="black"/>
<path fill-rule="evenodd" clip-rule="evenodd" d="M381.886 202.922C381.334 202.927 380.782 202.933 380.233 202.939C380.787 202.934 381.337 202.928 381.886 202.922Z" fill="black"/>
<path fill-rule="evenodd" clip-rule="evenodd" d="M179.666 286.167C180.43 286.179 181.195 286.19 181.959 286.201C181.189 286.65 180.424 286.713 179.666 286.167Z" fill="black"/>
<path fill-rule="evenodd" clip-rule="evenodd" d="M35.6682 288.783C36.444 288.702 37.2202 288.622 37.996 288.541C37.2202 288.622 36.444 288.702 35.6682 288.783Z" fill="black"/>
<path fill-rule="evenodd" clip-rule="evenodd" d="M356.932 132.086C356.97 132.904 357.007 133.722 357.045 134.537C357.007 133.718 356.97 132.902 356.932 132.086Z" fill="black"/>
<path fill-rule="evenodd" clip-rule="evenodd" d="M109.305 79.6938C109.959 79.3194 110.618 79.2565 111.284 79.6533C110.624 79.6669 109.965 79.6806 109.305 79.6938Z" fill="black"/>
<path fill-rule="evenodd" clip-rule="evenodd" d="M335.538 141.529C335.592 142.218 335.646 142.908 335.7 143.596C335.646 142.905 335.592 142.217 335.538 141.529Z" fill="black"/>
<path fill-rule="evenodd" clip-rule="evenodd" d="M390.787 125.433C390.452 124.758 390.463 124.087 390.803 123.422C390.798 124.093 390.792 124.764 390.787 125.433Z" fill="black"/>
<path fill-rule="evenodd" clip-rule="evenodd" d="M357.04 102.005C357.04 102.688 357.041 103.371 357.041 104.051C357.04 103.367 357.04 102.686 357.04 102.005Z" fill="black"/>
<path fill-rule="evenodd" clip-rule="evenodd" d="M380.484 196.625C381.158 196.385 381.831 196.046 382.501 196.633C381.829 196.63 381.157 196.627 380.484 196.625Z" fill="black"/>
<path fill-rule="evenodd" clip-rule="evenodd" d="M162.935 287.122C163.613 287.049 164.29 286.976 164.967 286.902C164.29 286.976 163.613 287.049 162.935 287.122Z" fill="black"/>
<path fill-rule="evenodd" clip-rule="evenodd" d="M70.0674 287.123C70.6878 286.807 71.307 286.64 71.9182 287.148C71.3008 287.139 70.6843 287.131 70.0674 287.123Z" fill="black"/>
<path fill-rule="evenodd" clip-rule="evenodd" d="M196.976 286.107C197.639 285.771 198.301 285.586 198.956 286.131C198.295 286.123 197.636 286.115 196.976 286.107Z" fill="black"/>
<path fill-rule="evenodd" clip-rule="evenodd" d="M49.2878 186.433C49.3375 187.129 49.3875 187.825 49.4367 188.518C49.3866 187.822 49.337 187.128 49.2878 186.433Z" fill="black"/>
<path fill-rule="evenodd" clip-rule="evenodd" d="M203.318 146.364C203.971 146.089 204.621 145.945 205.262 146.405C204.614 146.391 203.966 146.378 203.318 146.364Z" fill="black"/>
<path fill-rule="evenodd" clip-rule="evenodd" d="M356.922 167.072C356.958 167.751 356.994 168.431 357.029 169.11C356.993 168.429 356.958 167.75 356.922 167.072Z" fill="black"/>
<path fill-rule="evenodd" clip-rule="evenodd" d="M48.8656 105.719C48.8116 106.266 48.7576 106.815 48.7041 107.359C48.7581 106.811 48.8116 106.265 48.8656 105.719Z" fill="black"/>
<path fill-rule="evenodd" clip-rule="evenodd" d="M11.0316 264.554C10.9983 265.087 10.9655 265.62 10.9326 266.15C10.9668 265.616 10.9992 265.085 11.0316 264.554Z" fill="black"/>
<path fill-rule="evenodd" clip-rule="evenodd" d="M370.586 170.67C370.549 170.119 370.513 169.568 370.477 169.019C370.513 169.571 370.549 170.121 370.586 170.67Z" fill="black"/>
<path fill-rule="evenodd" clip-rule="evenodd" d="M323.05 285.078C323.632 285.083 324.214 285.088 324.795 285.092C324.213 285.088 323.631 285.083 323.05 285.078Z" fill="black"/>
<path fill-rule="evenodd" clip-rule="evenodd" d="M150.148 184.121C150.257 184.522 150.366 184.924 150.474 185.325C149.749 185.529 149.64 185.127 150.148 184.121Z" fill="black"/>
<path fill-rule="evenodd" clip-rule="evenodd" d="M193.759 145.457C194.35 145.454 194.94 145.452 195.531 145.449C194.941 145.774 194.351 145.997 193.759 145.457Z" fill="black"/>
<path fill-rule="evenodd" clip-rule="evenodd" d="M49.6194 189.727C49.6393 190.335 49.6591 190.943 49.6781 191.549C49.6578 190.941 49.6384 190.334 49.6194 189.727Z" fill="black"/>
<path fill-rule="evenodd" clip-rule="evenodd" d="M55.8691 287.789C56.4394 287.789 57.0092 287.788 57.5795 287.788C57.0088 287.788 56.4394 287.789 55.8691 287.789Z" fill="black"/>
<path fill-rule="evenodd" clip-rule="evenodd" d="M336.973 196.137C336.993 196.697 337.015 197.257 337.036 197.814C337.015 197.253 336.994 196.695 336.973 196.137Z" fill="black"/>
<path fill-rule="evenodd" clip-rule="evenodd" d="M43.7629 288.471C44.3236 288.039 44.8856 288.077 45.4484 288.464C44.8865 288.467 44.3245 288.469 43.7629 288.471Z" fill="black"/>
<path fill-rule="evenodd" clip-rule="evenodd" d="M58.5269 97.8972C58.5567 98.4687 58.5869 99.0408 58.618 99.6087C58.5882 99.0362 58.5575 98.4667 58.5269 97.8972Z" fill="black"/>
<path fill-rule="evenodd" clip-rule="evenodd" d="M40.8457 288.53C41.4286 288.532 42.0115 288.535 42.594 288.538C42.0094 289 41.4269 289.022 40.8457 288.53Z" fill="black"/>
<path fill-rule="evenodd" clip-rule="evenodd" d="M363.627 88.9257C363.631 88.345 363.635 87.7649 363.639 87.1858C363.635 87.7669 363.631 88.346 363.627 88.9257Z" fill="black"/>
<path fill-rule="evenodd" clip-rule="evenodd" d="M96.0129 78.7722C96.5706 78.8568 97.1282 78.9414 97.6853 79.0255C97.1277 78.9409 96.5701 78.8568 96.0129 78.7722Z" fill="black"/>
<path fill-rule="evenodd" clip-rule="evenodd" d="M46.8071 128.881C46.8147 129.423 46.8222 129.965 46.8311 130.505C46.8235 129.962 46.8156 129.421 46.8071 128.881Z" fill="black"/>
<path fill-rule="evenodd" clip-rule="evenodd" d="M367.38 128.803C367.35 128.25 367.32 127.698 367.289 127.148C367.32 127.702 367.35 128.252 367.38 128.803Z" fill="black"/>
<path fill-rule="evenodd" clip-rule="evenodd" d="M237.327 287.882C238.015 287.955 238.704 288.027 239.391 288.099C238.703 288.027 238.015 287.955 237.327 287.882Z" fill="black"/>
<path fill-rule="evenodd" clip-rule="evenodd" d="M235.028 267.199C234.656 267.206 234.285 267.212 233.916 267.222C234.289 267.216 234.659 267.207 235.028 267.199Z" fill="black"/>
<path fill-rule="evenodd" clip-rule="evenodd" d="M235.06 287.566C235.637 287.632 236.215 287.699 236.791 287.765C236.214 287.698 235.637 287.632 235.06 287.566Z" fill="black"/>
<path fill-rule="evenodd" clip-rule="evenodd" d="M131.208 242.438C131.958 247.365 125.365 252.184 124.842 245.18C124.651 242.619 126.126 240.818 127.777 239.252C130.121 237.031 131.431 239.158 131.208 242.438Z" fill="black"/>
<path fill-rule="evenodd" clip-rule="evenodd" d="M58.5291 182.329C60.0824 183.067 71.9498 187.558 65.7855 189.816C64.1537 190.414 61.6872 190.503 60.2726 189.45C58.571 188.182 56.8545 184.442 58.5291 182.329Z" fill="black"/>
<path fill-rule="evenodd" clip-rule="evenodd" d="M61.4499 115.609C65.478 115.066 69.1893 122.749 64.2231 122.499C60.6083 122.318 55.7468 115.609 61.4499 115.609Z" fill="black"/>
<path fill-rule="evenodd" clip-rule="evenodd" d="M75.8594 134.446C79.2229 137.854 72.9884 145.481 70.5132 142.529C69.2492 141.021 70.415 137.773 71.4583 136.511C72.529 135.217 74.4339 134.973 75.8594 134.446Z" fill="black"/>
<path fill-rule="evenodd" clip-rule="evenodd" d="M85.8724 222.793C83.8867 223.159 75.1543 226.473 76.9755 220.454C77.6701 218.159 79.6074 218.84 81.3784 218.945C84.2327 219.114 85.8724 218.956 85.8724 222.793Z" fill="black"/>
<path fill-rule="evenodd" clip-rule="evenodd" d="M80.1209 238.295C83.0935 240.142 78.7482 250.477 76.2843 248.278C72.8658 245.227 77.5414 239.223 80.1209 238.295Z" fill="black"/>
<path fill-rule="evenodd" clip-rule="evenodd" d="M93.0855 229.987C94.531 229.302 101.345 236.913 98.7511 239.03C97.4216 240.116 94.9027 238.255 94.1012 237.133C92.5986 235.03 92.4624 232.435 93.0855 229.987Z" fill="black"/>
<path fill-rule="evenodd" clip-rule="evenodd" d="M53.772 167.777C55.2493 168.058 57.8 168.147 57.8956 170.558C57.9794 172.677 55.6918 173.364 54.0813 173.53C52.4102 173.702 50.1981 173.154 50.1663 170.715C50.1327 168.083 53.7196 168.241 53.772 167.777Z" fill="black"/>
<path fill-rule="evenodd" clip-rule="evenodd" d="M90.2036 272.683C91.7769 273.792 99.1158 277.785 95.9699 280.67C94.7927 281.75 91.2241 279.52 90.4209 278.387C89.4623 277.034 88.5255 273.865 90.2036 272.683Z" fill="black"/>
<path fill-rule="evenodd" clip-rule="evenodd" d="M110.605 243.704C110.377 239.296 116.782 237.542 115.454 243.799C115.08 245.563 114.718 248.241 112.839 248.343C110.619 248.464 110.539 245.414 110.605 243.704Z" fill="black"/>
<path fill-rule="evenodd" clip-rule="evenodd" d="M90.8213 167.05C90.8658 170.394 85.3481 173.343 85.3054 168.043C85.2674 163.307 91.0272 161.92 90.8213 167.05Z" fill="black"/>
<path fill-rule="evenodd" clip-rule="evenodd" d="M87.1777 149.635C88.5372 150.143 90.344 150.405 90.4636 152.411C90.5905 154.534 88.8924 155.479 87.3644 155.36C86.1113 155.262 84.257 154.185 84.0292 152.606C83.6954 150.289 85.6431 150.137 87.1777 149.635Z" fill="black"/>
<path fill-rule="evenodd" clip-rule="evenodd" d="M61.8966 210.857C61.8734 208.098 66.6354 204.781 67.5124 207.983C67.7929 209.007 65.5485 213.601 64.802 213.945C62.8268 214.856 62.551 212.734 61.8966 210.857Z" fill="black"/>
<path fill-rule="evenodd" clip-rule="evenodd" d="M100.919 256.782C99.3095 258.455 94.4826 263.153 94.8434 256.846C95.0738 252.817 101.343 253.027 100.919 256.782Z" fill="black"/>
<path fill-rule="evenodd" clip-rule="evenodd" d="M179.562 274.808C180.089 272.156 187.641 276.757 185.121 280.106C184.275 281.231 182.063 280.213 181.213 279.547C179.53 278.228 179.494 277.011 179.562 274.808Z" fill="black"/>
<path fill-rule="evenodd" clip-rule="evenodd" d="M137.485 218.042C137.78 216.86 138.107 214.77 139.078 214.015C140.836 212.65 142.366 214.709 142.366 216.879C142.367 220.928 138.399 222.204 137.485 218.042Z" fill="black"/>
<path fill-rule="evenodd" clip-rule="evenodd" d="M118.769 265.375C120.729 265.896 125.095 271.431 122.563 273.689C120.127 275.862 116.886 267.028 118.769 265.375Z" fill="black"/>
<path fill-rule="evenodd" clip-rule="evenodd" d="M120.635 223.479C123.156 223.713 126.621 228.454 122.703 229.207C119.638 229.797 116.073 224.641 120.635 223.479Z" fill="black"/>
<path fill-rule="evenodd" clip-rule="evenodd" d="M143.459 245.295C144.091 242.822 150.343 245.471 149.992 248.194C149.805 249.642 147.249 249.982 145.905 249.599C143.927 249.035 143.413 247.528 143.459 245.295Z" fill="black"/>
<path fill-rule="evenodd" clip-rule="evenodd" d="M69.7576 107.175C69.803 103.978 75.0933 102.675 75.4808 105.896C75.8311 108.807 69.6913 111.904 69.7576 107.175Z" fill="black"/>
<path fill-rule="evenodd" clip-rule="evenodd" d="M141.711 278.237C142.092 276.63 142.257 274.695 143.986 274.483C145.966 274.24 145.907 276.003 145.675 277.83C145.041 282.801 142.622 283.05 141.711 278.237Z" fill="black"/>
<path fill-rule="evenodd" clip-rule="evenodd" d="M58.1671 145.213C55.4092 145.935 50.3579 139.767 53.4453 138.444C55.6208 137.51 58.1671 143.352 58.1671 145.213Z" fill="black"/>
<path fill-rule="evenodd" clip-rule="evenodd" d="M93.3437 193.125C91.9401 193.893 91.6168 194.358 90.5386 193.099C89.5997 192.002 89.6411 188.946 90.447 187.805C93.5335 183.435 93.4611 191.357 93.3437 193.125Z" fill="black"/>
<path fill-rule="evenodd" clip-rule="evenodd" d="M104.795 184.263C106.259 184.479 110.609 189.27 108.344 191.174C105.569 193.507 103.998 186.199 104.795 184.263Z" fill="black"/>
<path fill-rule="evenodd" clip-rule="evenodd" d="M136.467 185.525C135.402 190.283 132.746 187.081 132.897 183.481C133.139 177.714 135.891 182.736 136.467 185.525Z" fill="black"/>
<path fill-rule="evenodd" clip-rule="evenodd" d="M152.615 261.943C154.416 262.808 156.859 270.799 154.288 271.227C151.4 271.708 152.361 263.607 152.615 261.943Z" fill="black"/>
<path fill-rule="evenodd" clip-rule="evenodd" d="M130.134 257.453C132.194 256.646 132.949 261.692 131.752 262.629C129.118 264.691 129.673 258.644 130.134 257.453Z" fill="black"/>
<path fill-rule="evenodd" clip-rule="evenodd" d="M110.604 243.704C110.578 244.374 110.553 245.044 110.526 245.709C110.551 245.039 110.577 244.371 110.604 243.704Z" fill="black"/>
<path fill-rule="evenodd" clip-rule="evenodd" d="M179.561 274.808C179.54 275.495 179.518 276.181 179.496 276.865C179.517 276.177 179.539 275.492 179.561 274.808Z" fill="black"/>
<path fill-rule="evenodd" clip-rule="evenodd" d="M143.46 245.295C143.448 245.878 143.436 246.46 143.422 247.039C143.434 246.455 143.447 245.875 143.46 245.295Z" fill="black"/>
<path fill-rule="evenodd" clip-rule="evenodd" d="M371.302 235.267C375.572 235.108 380.337 233.242 384.533 233.835C385.688 233.999 388.348 234.337 386.497 236.327C385.612 237.278 381.374 236.786 380.091 237.102C372.25 239.03 363.349 240.273 355.309 240.113C351.545 240.038 347.754 239.687 343.992 239.456C340.233 239.225 339.863 237.452 344.093 236.887C348.486 236.301 352.994 236.519 357.41 236.513C362.051 236.506 366.669 235.627 371.302 235.267Z" fill="black"/>
<path fill-rule="evenodd" clip-rule="evenodd" d="M380.677 223.319C380.266 224.678 379.905 227.797 378.33 228.002C376.124 228.288 375.759 223.89 375.84 222.281C375.939 220.34 376.541 217.114 378.619 217.787C380.374 218.355 380.55 221.765 380.677 223.319Z" fill="black"/>
<path fill-rule="evenodd" clip-rule="evenodd" d="M367.322 222.324C367.645 220.869 367.803 217.588 369.575 217.476C371.556 217.352 372.122 220.771 372.109 222.409C372.096 223.964 371.601 226.901 370.023 227.26C367.885 227.747 367.694 223.987 367.322 222.324Z" fill="black"/>
<path fill-rule="evenodd" clip-rule="evenodd" d="M345.081 224.934C344.439 226.683 344.014 229.092 342.028 227.9C340.492 226.978 340.278 223.258 340.568 221.555C340.868 219.791 341.504 217.767 343.249 218.561C345.262 219.476 345.059 223.008 345.081 224.934Z" fill="black"/>
<path fill-rule="evenodd" clip-rule="evenodd" d="M361.924 223.319C360.03 229.983 356.577 225.474 357.889 220.499C359.259 215.299 361.749 220.349 361.924 223.319Z" fill="black"/>
<path fill-rule="evenodd" clip-rule="evenodd" d="M352.7 223.649C352.174 224.822 351.614 227.354 350.197 227.087C348.46 226.76 348.404 222.877 348.595 221.431C348.761 220.166 349.251 218.056 350.705 218.084C352.806 218.123 352.665 222.13 352.7 223.649Z" fill="black"/>
<path fill-rule="evenodd" clip-rule="evenodd" d="M390.464 224.928C389.054 228.6 387.116 225.437 387.736 222.829C388.656 218.962 390.384 222.388 390.464 224.928Z" fill="black"/>
<path fill-rule="evenodd" clip-rule="evenodd" d="M355.949 236.517C354.41 236.51 352.871 236.503 351.332 236.497C352.872 236.16 354.412 236.029 355.949 236.517Z" fill="black"/>
<path fill-rule="evenodd" clip-rule="evenodd" d="M386.535 233.82C385.2 233.83 383.866 233.84 382.531 233.85C383.864 233.386 385.198 233.376 386.535 233.82Z" fill="black"/>
<path fill-rule="evenodd" clip-rule="evenodd" d="M371.302 235.267C370.233 235.35 369.165 235.434 368.097 235.517C369.165 235.434 370.234 235.35 371.302 235.267Z" fill="black"/>
<path fill-rule="evenodd" clip-rule="evenodd" d="M345.08 224.934C345.071 224.044 345.06 223.153 345.051 222.264C345.445 223.15 345.418 224.04 345.08 224.934Z" fill="black"/>
<path fill-rule="evenodd" clip-rule="evenodd" d="M353.456 240.094C354.075 240.1 354.695 240.106 355.309 240.113C354.688 240.106 354.072 240.1 353.456 240.094Z" fill="black"/>
<path fill-rule="evenodd" clip-rule="evenodd" d="M343.052 239.457C343.679 239.457 344.307 239.456 344.93 239.457C344.3 239.457 343.676 239.457 343.052 239.457Z" fill="black"/>
<path fill-rule="evenodd" clip-rule="evenodd" d="M348.196 236.594C347.324 236.677 346.451 236.76 345.579 236.844C346.451 236.76 347.324 236.677 348.196 236.594Z" fill="black"/>
<path fill-rule="evenodd" clip-rule="evenodd" d="M359.994 236.506C359.132 236.508 358.271 236.51 357.409 236.512C358.271 236.09 359.132 236.078 359.994 236.506Z" fill="black"/>
<path fill-rule="evenodd" clip-rule="evenodd" d="M352.699 223.649C352.678 222.721 352.657 221.792 352.637 220.865C352.658 221.794 352.679 222.722 352.699 223.649Z" fill="black"/>
<path fill-rule="evenodd" clip-rule="evenodd" d="M340.569 221.555C340.564 222.461 340.559 223.366 340.552 224.268C340.558 223.362 340.563 222.459 340.569 221.555Z" fill="black"/>
<path fill-rule="evenodd" clip-rule="evenodd" d="M376.198 234.93C375.436 235.01 374.675 235.09 373.914 235.17C374.675 235.09 375.437 235.01 376.198 234.93Z" fill="black"/>
<path fill-rule="evenodd" clip-rule="evenodd" d="M390.463 224.928C390.438 224.137 390.414 223.346 390.39 222.556C390.414 223.348 390.438 224.138 390.463 224.928Z" fill="black"/>
<path fill-rule="evenodd" clip-rule="evenodd" d="M358.059 240.12C358.589 240.109 359.119 240.097 359.644 240.086C359.112 240.098 358.585 240.11 358.059 240.12Z" fill="black"/>
<path fill-rule="evenodd" clip-rule="evenodd" d="M380.677 223.319C380.631 222.751 380.584 222.182 380.538 221.615C380.584 222.185 380.631 222.752 380.677 223.319Z" fill="black"/>
<path fill-rule="evenodd" clip-rule="evenodd" d="M361.923 223.319C361.889 222.735 361.855 222.151 361.821 221.569C361.855 222.153 361.889 222.736 361.923 223.319Z" fill="black"/>
<path fill-rule="evenodd" clip-rule="evenodd" d="M88.5124 51.7978C86.4272 51.1625 86.0363 47.7597 86.3714 45.6697C86.7514 44.6625 87.1314 43.6557 87.5114 42.6485C87.3627 42.2761 87.2143 41.9037 87.066 41.5313C87.2566 39.457 86.7693 38.5556 88.8221 39.3957C92.6355 40.9572 93.2451 51.6377 88.5124 51.7978Z" fill="black"/>
<path fill-rule="evenodd" clip-rule="evenodd" d="M119.378 45.2187C121.096 45.0617 124.216 47.3847 122.506 49.6323C121.447 51.0246 117.956 50.3659 116.532 50.6568C114.643 51.0423 112.673 51.5698 113.695 48.2846C114.497 45.7046 117.363 45.1513 119.378 45.2187Z" fill="black"/>
<path fill-rule="evenodd" clip-rule="evenodd" d="M117.571 60.6715C115.826 59.0466 116.605 51.6458 119.26 52.9773C121.992 54.3478 119.027 59.6034 117.571 60.6715Z" fill="black"/>
<path fill-rule="evenodd" clip-rule="evenodd" d="M86.3706 45.6694C86.3706 46.4482 86.3702 47.2274 86.3689 48.0026C86.0059 47.2224 86.0172 46.4456 86.3706 45.6694Z" fill="black"/>
<path fill-rule="evenodd" clip-rule="evenodd" d="M88.5122 51.7978C88.8678 51.7861 89.2238 51.7739 89.5751 51.7632C89.2177 51.7764 88.8652 51.7871 88.5122 51.7978Z" fill="black"/>
<path fill-rule="evenodd" clip-rule="evenodd" d="M303.957 264.935C303.794 268.301 300.681 265.813 300.902 263.56C301.303 259.474 303.293 263.512 303.957 264.935Z" fill="black"/>
</svg>
