<svg width="273" height="392" viewBox="0 0 273 392" fill="none" xmlns="http://www.w3.org/2000/svg">
<g filter="url(#filter0_d)">
<path fill-rule="evenodd" clip-rule="evenodd" d="M56.7094 277.232C56.7704 272.571 56.9005 267.91 57.0713 263.251C64.7831 262.535 72.4954 261.819 80.2072 261.103C82.1766 260.92 84.1455 260.737 86.1144 260.554C88.2521 260.356 90.3893 260.157 92.5265 259.959C92.7489 259.938 93.0488 259.933 93.3829 259.928C94.4478 259.909 95.8552 259.885 96.1719 259.334C96.6346 258.529 96.3978 256.406 96.2186 254.797C96.1471 254.156 96.0851 253.596 96.0796 253.234C96.0488 251.228 96.018 249.222 95.9873 247.216C95.957 245.21 95.9262 243.204 95.8954 241.198L95.8949 241.166C95.6705 226.415 95.4461 211.664 95.2212 196.913C97.068 196.976 98.9143 197.032 100.761 197.086C101.958 197.12 103.155 197.158 104.354 197.195C111.199 197.407 118.064 197.62 124.902 197.403C128.931 197.276 132.75 196.155 136.554 194.833C138.576 194.131 140.579 193.365 142.565 192.56C142.748 192.487 143.033 192.333 143.363 192.154C144.164 191.722 145.227 191.147 145.705 191.243C146.516 191.405 147.717 193.197 148.599 194.512C148.923 194.996 149.204 195.415 149.406 195.665C151.8 198.621 154.193 201.577 156.587 204.533L156.691 204.661C156.994 205.036 157.34 205.417 157.692 205.806C158.469 206.661 159.28 207.556 159.756 208.511C160.118 209.237 160.318 210.149 160.509 211.019C160.599 211.429 160.687 211.831 160.789 212.198C164.738 226.425 168.599 240.743 171.475 255.247C172.094 258.368 172.681 261.512 173.026 264.681C173.052 264.922 173.084 265.182 173.119 265.452C173.306 266.938 173.54 268.782 172.98 270.063C172.28 271.664 170.121 272.387 168.569 272.907C168.468 272.941 168.369 272.974 168.273 273.006C165.239 274.036 162.061 274.649 158.918 275.199C151.344 276.524 143.674 277.293 136.02 277.916C135.148 277.987 134.267 278.031 133.385 278.075C131.899 278.149 130.408 278.224 128.95 278.427C128.334 278.513 128.162 278.457 128.072 278.521C127.999 278.573 127.978 278.702 127.823 279.043C127.485 279.783 127.537 281.081 127.581 282.196C127.601 282.69 127.619 283.149 127.601 283.506C127.533 284.876 127.465 286.246 127.397 287.616C127.329 288.986 127.261 290.356 127.193 291.727C126.821 299.2 126.45 306.675 126.079 314.149C125.953 316.675 125.828 319.2 125.702 321.726C125.451 326.778 125.2 331.83 124.949 336.881C124.879 338.279 124.81 339.677 124.741 341.075C124.667 342.548 124.595 344.022 124.522 345.495C124.497 345.993 124.504 346.537 124.511 347.096C124.526 348.262 124.543 349.493 124.273 350.497C124.125 351.047 124.169 351.249 124.095 351.319C124.018 351.392 123.813 351.322 123.131 351.356C121.062 351.459 118.943 351.321 116.841 351.184C115.797 351.115 114.758 351.048 113.73 351.01C112.036 350.947 110.342 350.885 108.647 350.823C106.829 350.755 105.011 350.688 103.193 350.621C102.947 350.612 102.694 350.623 102.447 350.634C101.683 350.666 100.97 350.696 100.664 350.136C100.317 349.499 100.401 348.074 100.469 346.937C100.497 346.463 100.522 346.04 100.512 345.743L100.219 337.316L99.4167 314.183C99.241 309.113 99.0647 304.043 98.889 298.973C98.6998 293.526 98.5102 288.08 98.3215 282.633C94.418 283.443 90.5144 284.252 86.6109 285.062L86.6029 285.064C80.8312 286.261 75.059 287.459 69.2868 288.655C68.573 288.803 67.8228 289.003 67.0548 289.207C64.9737 289.76 62.7586 290.349 60.7624 290.053C58.0473 289.652 56.9248 288.456 56.7724 285.8C56.6259 283.251 56.6617 280.683 56.6974 278.127C56.7014 277.829 56.7054 277.531 56.7094 277.232ZM135.474 232.088L134.505 230.164L134.084 232.288L129.98 252.977L129.784 253.963L130.759 253.896L144.802 252.937L145.939 252.86L145.414 251.818L135.474 232.088ZM131.635 252.298L135.122 234.72L143.567 251.483L131.635 252.298Z" fill="#3180DC"/>
<path fill-rule="evenodd" clip-rule="evenodd" d="M252.111 64.6553C251.825 66.9564 252.029 69.4652 249.509 70.0721C247.176 70.6339 244.617 70.4763 242.239 70.6728C239.567 70.8944 236.902 71.1963 234.235 71.469C230.873 71.8124 231.353 70.4804 230.618 67.5208C229.946 64.818 228.874 62.1209 227.983 59.4852C227.568 58.2602 227.073 57.1329 226.508 55.9786C225.996 54.9332 226.24 53.5117 225.688 52.6331C223.806 49.6356 214.625 57.8319 213.772 56.2165C215.326 54.97 218.014 53.5751 218.491 51.4424C219.051 48.9356 217.506 48.187 215.564 49.1035C210.785 51.36 205.27 53.1233 200.059 53.9456C201.744 52.7846 216.989 43.6319 211.872 40.917C210.72 40.3051 209.18 41.4569 208.14 41.8925C206.489 42.5844 204.765 43.0482 203.043 43.5014C201.227 43.979 199.407 44.4384 197.582 44.8727C196.301 45.1774 194.019 46.2596 192.772 45.9925C191.505 45.7211 193.749 44.9108 194.116 44.7198C195.718 43.888 197.294 42.9943 198.858 42.0892C201.632 40.4832 204.194 38.623 206.304 36.1399C207.896 34.2664 210.526 30.175 209.417 27.5844C208.775 26.0826 207.367 24.6947 206.54 23.2721C205.574 21.6104 204.795 19.8392 203.957 18.1079C205.36 18.7441 206.935 18.9069 208.368 19.4778C209.801 20.0491 211.256 20.5114 212.746 20.9361C215.737 21.788 218.718 21.9394 221.681 22.6303C225.036 23.412 228.531 24.2862 231.939 24.7381C234.906 25.1309 237.574 25.9679 240.116 27.6353C245.308 31.0416 248.91 35.9348 250.731 41.9859C251.799 45.5307 252.058 49.2293 252.184 52.9176C252.316 56.806 252.595 60.7839 252.111 64.6553ZM222.974 64.9414C219.348 67.6656 215.122 69.7942 211.231 72.1117C209.005 73.437 206.731 74.6763 204.46 75.9187C202.849 76.8003 200.891 78.4234 199.117 78.8758C197.995 79.1618 198.079 79.1838 197.368 78.1292C196.69 77.1222 196.097 76.0379 195.462 75.0007C194.29 73.0885 193.108 71.1835 191.926 69.2785C189.275 65.0084 186.63 60.7388 183.844 56.5593C181.05 52.3655 178.371 48.0944 175.664 43.8414C174.406 41.864 173.155 39.879 171.821 37.9559C170.801 36.4875 168.188 34.2478 169.429 32.519C170.582 30.913 173.208 29.5789 174.761 28.3633C176.659 26.8792 178.569 25.4104 180.462 23.9186C184.531 20.7119 188.494 17.3657 192.56 14.1546C196.01 20.3924 200.069 26.2402 204.164 32.0395C200.461 34.4749 196.721 36.7899 192.819 38.8748C189.937 40.4147 185.528 42.4954 183.708 45.4164C181.915 48.2929 183.676 51.6113 186.873 51.664C188.784 51.6957 190.69 51.1738 192.564 50.876C193.916 50.6605 196.386 49.6556 197.606 50.3638C195.414 51.8057 187.46 56.0072 191.747 59.6914C194.812 62.3246 199.993 58.4818 203.304 59.2728C202.294 61.2689 201.245 64.4527 204.046 65.538C206.377 66.4416 209.428 64.7577 211.526 63.8648C213.042 63.2195 214.548 62.5523 216.038 61.8482C217.223 61.2879 218.642 60.1524 219.909 59.9109C221.387 59.6285 224.395 63.8729 222.974 64.9414ZM155.576 212.052C157.65 211.662 158.715 210.778 159.369 213.375C159.954 215.7 160.534 217.939 161.288 220.221C158.048 220.51 155.19 222.104 152.826 224.348C151.144 225.946 147.797 229.761 148.628 232.437C150.643 238.941 160.822 224.35 162.032 222.791C163.513 225.022 164.058 227.942 164.793 230.494C165.318 232.309 167.262 235.79 164.692 236.231C161.083 236.851 154.314 238.236 154.742 243.502C155.248 249.719 162.921 249.684 167.225 249.964C169.652 250.121 169.663 252.125 170.009 254.368C170.163 255.371 170.646 256.727 169.82 257.461C169.086 258.113 166.839 258.132 165.884 258.343C163.1 258.959 160.317 259.586 157.534 260.202C154.373 260.901 152.702 259.922 149.748 259.03C148.654 258.7 147.556 258.839 147.475 257.577C147.426 256.802 148.161 255.604 148.402 254.838C149.355 251.808 150.168 248.687 150.441 245.505C150.84 240.88 150.342 233.946 144.817 233.043C142.189 232.614 141.683 232.474 140.497 229.932C139.213 227.183 137.175 224.636 137.668 221.469C138.024 219.174 137.423 214.831 138.845 212.928C139.501 212.048 140.782 211.523 141.656 210.877C142.77 210.053 143.843 209.171 144.881 208.249C145.755 207.474 146.819 205.959 147.809 205.399C149.019 204.714 149.055 205.181 149.924 206.25C151.207 207.829 153.245 212.491 155.576 212.052ZM161.439 222.327C160.72 223.822 159.058 225.213 158 226.461C156.936 227.717 155.929 229.044 154.741 230.182C153.435 231.434 148.794 234.46 149.816 230.387C150.612 227.22 153.589 224.654 156.21 223.074C156.717 222.767 162.655 219.797 161.439 222.327ZM166.516 237.407C166.976 239.527 167.224 241.713 167.617 243.848C167.818 244.94 168.932 247.577 168.477 248.627C167.708 250.407 160.784 248.3 159.349 247.688C155.932 246.23 154.363 242.487 157.514 239.822C158.709 238.812 166.056 235.288 166.516 237.407ZM171.056 262.87C171.441 264.894 172.569 266.771 170.704 268.301C169.156 269.572 166.618 270.438 164.71 270.891C162.109 271.507 161.273 270.005 159.896 268.073C158.415 265.995 156.839 263.988 155.204 262.037C160.339 260.852 165.473 259.667 170.609 258.482C170.606 259.957 170.779 261.425 171.056 262.87ZM158.752 272.264C156.074 272.121 153.193 272.952 150.477 273.17C147.085 273.444 143.703 273.841 140.309 274.075C141.178 271.215 142.74 268.664 143.962 265.963C145.188 263.252 146.049 262.958 148.869 262.75C151.482 262.556 153.325 261.629 155.254 263.914C157.26 266.29 159.077 268.873 160.909 271.392C160.286 271.822 159.541 272.307 158.752 272.264ZM139.61 272.847C138.949 273.344 136.912 271.934 136.225 271.66C134.89 271.128 134.593 270.957 133.896 269.614C133.298 268.46 132.345 267.148 132.157 265.83C131.91 264.092 132.655 261.805 132.927 260.079C133.65 261.876 136.023 262.085 137.627 262.379C138.84 262.601 142.433 262.247 143.348 263.137C144.358 264.121 142.498 266.864 142.013 267.897C141.435 269.13 140.721 272.014 139.61 272.847ZM138.315 274.273C137.521 274.406 135.232 275.221 135.278 273.724C135.329 272.014 138.478 273.859 138.315 274.273ZM134.283 274.184C134.138 275.623 131.132 275.504 131.063 274.237C130.946 272.097 134.514 271.884 134.283 274.184ZM130.846 235.356C130.078 237.612 125.397 238.419 123.599 239.114C121.957 239.748 117.054 242.676 115.361 241.614C121.091 237.555 126.962 233.578 131.817 228.395C132.016 229.675 131.713 230.744 131.347 231.956C131.017 233.05 131.186 234.357 130.846 235.356ZM129.421 243.583C128.596 249.109 127.787 254.707 126.672 260.178C124.545 259.509 122.792 258.152 120.558 257.679C118.52 257.247 116.414 257.237 114.359 257.552C109.979 258.223 106.074 260.456 102.253 262.633C101.9 258.843 101.169 254.787 101.256 250.984C101.327 247.825 106.572 246.89 108.951 245.585C110.39 244.795 111.691 243.685 113.331 243.41C115.019 243.126 116.647 243.135 118.313 242.605C122.254 241.352 125.963 239.365 129.824 237.884C130.139 239.781 129.7 241.714 129.421 243.583ZM125.739 266.97C125.564 268.226 125.785 270.468 124.856 271.425C123.981 272.327 122.113 272.356 120.96 272.601C117.447 273.346 113.937 274.098 110.429 274.867C108.859 275.21 107.289 275.539 105.713 275.846C104.962 275.992 103.076 276.735 102.443 276.119C101.842 275.533 102.29 273.663 102.322 272.878C102.387 271.311 102.473 269.738 102.377 268.171C102.194 265.163 102.357 264.011 105.073 262.455C107.958 260.802 110.938 259.67 114.186 259.057C117.473 258.437 120.606 258.776 123.736 260.077C124.607 260.439 125.913 260.885 126.319 261.853C126.87 263.17 125.925 265.635 125.739 266.97ZM121.784 315.45C120.496 316.283 117.693 316.141 116.214 316.31C113.826 316.582 111.422 316.427 109.049 316.047C107.263 315.761 104.597 315.365 103.228 314.072C101.282 312.236 103.527 312.152 105.016 312.281C109.344 312.656 113.726 312.394 118.049 312.072C118.891 312.009 121.154 311.247 121.965 311.604C123.003 312.059 122.685 314.868 121.784 315.45ZM119.33 345.131C111.266 344.323 106.592 337.441 103.668 330.406C102.098 326.628 102.664 322.665 102.509 318.671C102.481 317.941 102.036 316.131 102.764 315.586C103.448 315.074 106.214 316.657 106.962 316.846C110.797 317.815 115.039 317.908 118.882 316.967C120.548 316.559 121.48 315.801 122.009 317.502C122.435 318.872 121.736 321.395 121.66 322.831C121.528 325.314 121.905 345.388 119.33 345.131ZM103.222 345.138C103.191 343.933 102.601 331.751 103.174 331.714C104.875 335.496 106.622 338.88 109.719 341.662C111.301 343.084 113.08 344.366 115.058 345.129C115.801 345.416 120.013 345.633 120.22 346.584C120.581 348.247 117.706 347.576 116.853 347.441C116.168 347.332 115.553 347.031 114.882 346.906C113.602 346.667 112.394 346.988 111.11 347.015C109.158 347.056 107.241 346.845 105.289 347.019C103.504 347.177 103.27 346.966 103.222 345.138ZM104.412 290.498C111.315 288.199 117.084 292.554 120.727 298.254C122.804 301.505 123.269 303.778 122.905 307.627C122.775 309.005 123.015 309.937 121.786 310.499C120.57 311.055 117.806 310.643 116.49 310.706C112.704 310.888 108.933 311.131 105.148 310.899C102.689 310.749 102.342 310.32 102.384 307.859C102.435 304.898 102.196 301.95 102.034 298.984C101.857 295.774 100.788 291.705 104.412 290.498ZM102.154 286.233C102.158 284.057 102.031 281.824 102.16 279.651C102.289 277.498 103.178 277.604 105.151 277.237C109.423 276.441 113.69 275.55 117.904 274.471C119.571 274.044 121.455 273.225 123.192 273.218C125.014 273.211 124.917 274.177 124.796 275.84C124.526 279.524 123.871 283.153 123.672 286.817C123.457 290.772 123.344 294.778 123.361 298.737C123.367 300.074 123.683 301.063 122.577 299.813C121.47 298.559 120.929 296.563 119.94 295.155C117.916 292.272 114.908 289.953 111.57 288.977C109.724 288.437 107.782 288.343 105.9 288.734C105.329 288.852 102.469 290.259 102.105 289.981C101.859 289.793 102.153 286.321 102.154 286.233ZM127.406 361.649C130.144 363.669 133.176 365.302 136.245 366.719C137.972 367.517 144.808 369.195 145.026 370.99C145.142 371.948 144.01 373.021 143.267 373.134C142.326 373.278 140.775 372.644 139.817 372.524C136.33 372.088 132.851 372.085 129.449 371.085C122.657 369.087 115.615 368.524 108.753 366.782C107.12 366.368 105.484 365.98 103.843 365.604C102.284 365.248 101.585 365.309 101.53 363.592C101.409 359.823 102.457 355.963 102.466 352.147C108.018 352.8 113.588 352.792 119.155 353.329C121.54 353.56 121.485 354.025 122.53 356.174C123.616 358.403 125.461 360.213 127.406 361.649ZM100.337 239.214C100.267 237.819 100.212 236.42 100.09 235.029C100.007 234.094 99.1789 231.482 99.6461 230.754C100.201 229.889 100.76 230.417 101.753 230.392C103.062 230.361 104.158 229.818 105.237 229.109C107.281 227.765 108.801 225.996 110.127 223.932C111.294 222.115 111.077 219.633 111.063 217.457C111.026 211.832 111.423 206.345 111.09 200.694C110.937 198.099 113.087 199.691 114.822 200.027C117.662 200.577 120.748 200.196 123.633 200.203C123.526 200.895 117.625 202.612 116.672 203.266C114.232 204.939 112.809 207.615 113.031 210.666C113.479 216.804 120.038 217.83 124.83 217.842C120.854 221.466 116.949 224.921 113.824 229.391C111.52 232.687 107.462 239.186 111.229 242.833C107.899 244.782 104.599 246.951 100.833 247.889C100.664 244.998 100.483 242.107 100.337 239.214ZM98.8255 127.164C100.181 128.062 100.751 126.793 101.783 126.136C103.236 125.209 103.717 125.301 103.901 123.233C104.242 119.398 102.677 115.926 100.711 112.788C99.8183 111.361 98.9272 109.662 97.6663 108.547C96.517 107.531 95.3548 107.881 94.2899 106.829C93.8719 106.417 93.9613 105.833 93.2702 105.85C92.815 105.861 91.7089 107.314 91.3331 107.635C90.1456 108.648 88.693 109.419 87.1371 108.584C84.8713 107.368 85.5986 102.954 87.3585 101.524C88.7138 100.423 90.3154 100.594 91.8578 100.415C93.0145 100.283 93.2553 100.335 92.7797 98.9699C92.4461 98.0146 91.6771 97.269 91.2973 96.3342C90.5676 94.5397 90.7264 92.3588 90.4112 90.4594C90.1282 88.7576 89.4659 86.917 89.4898 85.1885C89.5215 82.9877 90.219 82.4162 92.0688 81.7991C93.861 81.2014 95.3454 79.8838 96.8719 78.777C98.5996 77.5239 100.492 76.6965 102.268 75.5523C103.473 74.7751 104.251 73.2042 105.577 73.9379C107.152 74.8098 108.817 77.334 110.157 78.6235C108.197 79.9058 107.741 80.4666 108.011 82.977C108.259 85.278 108.714 87.3289 110.42 88.932C111.076 89.5481 112.299 90.0414 112.807 90.7516C113.4 91.579 113.015 90.8499 112.94 91.7837C112.9 92.2877 112.513 92.6172 112.597 93.1996C112.974 95.7856 115.856 94.2593 117.044 93.3607C121.288 90.1509 113.363 87.6016 111.481 86.4324C110.182 85.6239 109.539 83.0455 111.598 83.7307C112.968 84.1861 116.063 88.0494 116.377 84.5279C119.774 86.5619 121.87 90.8826 124.718 93.6145C126.772 95.5851 129.531 97.7705 127.901 100.917C125.823 104.928 121.704 106.749 117.943 108.479C114.295 110.158 115.052 114.908 117.002 117.815C118.129 119.495 119.606 120.48 121.384 121.297C123.199 122.132 123.576 123.112 123.972 125.048C124.412 127.195 123.945 128.061 122.141 129.17C120.379 130.254 118.538 131.303 116.657 132.151C112.591 133.985 108.373 134.101 104.048 134.726C102.532 134.945 101.078 135.401 100.251 133.852C99.3214 132.109 99.2529 129.108 98.8255 127.164ZM98.1716 118.823C97.1539 118.269 94.697 120.106 93.4102 120.187C91.3286 120.317 89.9624 120.268 88.1146 121.406C84.6216 123.557 81.7234 126.326 78.9224 129.33C75.768 132.712 72.6314 136.113 69.4874 139.506C68.0621 141.043 66.6299 142.572 65.1827 144.085C64.0419 145.279 62.9264 146.956 61.5145 147.808C61.588 146.797 62.1897 146.081 62.4031 145.143C62.5272 144.595 62.3103 144.13 62.3907 143.605C62.417 143.435 62.8608 142.843 62.9284 142.648C63.1086 142.136 63.329 141.629 63.543 141.096C63.7425 140.6 63.7132 140.084 63.9158 139.566C64.1238 139.03 64.6942 138.676 64.8918 138.149C65.4717 136.606 64.512 135.891 62.9775 135.927C63.5777 132.841 63.8403 131.331 66.9714 130.242C69.963 129.203 72.8856 128.035 75.6334 126.41C78.0735 124.967 80.1089 122.888 82.4546 121.28C84.5546 119.84 87.1689 118.332 87.147 115.379C88.3375 116.212 89.4535 116.912 90.8153 116.083C91.965 115.384 92.1175 114.821 93.4465 114.689C94.5312 114.582 95.2034 114.553 96.1714 115.045C97.3108 115.623 97.4662 116.025 98.1299 114.323C98.884 114.977 100.79 117.701 100.726 118.78C100.692 119.374 100.604 119.642 99.8898 119.799C98.8771 120.021 98.9163 119.227 98.1716 118.823ZM93.4256 280.085C92.9301 280.867 90.8421 280.723 90.0359 280.713C87.5779 280.679 86.7186 278.553 85.6403 276.499C83.94 273.259 81.3992 266.531 84.1882 263.131C86.3899 260.448 90.6778 263.829 92.18 265.855C93.4767 267.606 93.0915 270.232 93.2121 272.333C93.3139 274.103 94.4041 278.541 93.4256 280.085ZM86.7106 281.258C85.7277 282.271 82.5385 282.056 81.2363 282.274C78.9125 282.662 76.6015 283.128 74.3466 283.836C72.6681 284.362 71.009 285.779 70.5667 283.367C70.1949 281.34 70.38 278.908 70.4153 276.862C70.4535 274.654 70.6779 272.474 70.8641 270.276C70.9902 268.79 70.6744 266.055 71.852 264.914C72.8662 263.931 75.3331 263.837 76.6502 263.511C78.8132 262.976 81.073 262.274 83.3209 262.513C82.0093 266.183 81.8981 270.031 83.3045 273.688C83.7057 274.732 87.3173 280.632 86.7106 281.258ZM70.182 266.64C69.6339 272.159 69.0828 277.714 69.6105 283.261C69.6423 283.592 70.0261 285.108 69.8593 285.345C69.687 285.591 68.3218 285.718 68.012 285.793C66.7813 286.094 65.5521 286.412 64.3134 286.68C61.9027 287.199 61.588 285.63 61.1148 283.326C60.1016 278.392 62.066 273.042 63.2565 268.304C63.8364 265.996 64.2658 265.73 66.4675 265.538C67.9996 265.406 70.4148 264.294 70.182 266.64ZM60.8726 287.233C59.9512 288.096 59.0303 284.021 58.9488 283.606C58.6271 281.957 58.8064 280.284 58.8108 278.609C58.8188 275.992 58.6247 273.388 58.6207 270.784C58.6187 269.376 57.5945 266.496 59.212 265.751C59.6866 265.532 61.5716 265.623 61.999 265.911C62.8877 266.509 62.5377 266.896 62.274 267.937C61.6848 270.272 61.1749 272.618 60.6616 274.973C60.1582 277.281 59.6612 279.502 59.901 281.886C59.98 282.675 61.4594 286.682 60.8726 287.233ZM90.2543 261.514C92.5002 260.862 92.6204 262.635 92.6164 264.332C92.2743 264.062 89.0827 261.854 90.2543 261.514ZM60.2128 136.917C59.6622 137.852 56.1767 138.108 55.1808 138.354C53.2213 138.837 51.2609 139.318 49.3063 139.822C45.6451 140.765 42.0736 141.83 38.32 142.324C40.3812 138.922 41.0226 135.985 40.6389 131.74C40.1553 126.381 39.5402 121.076 38.3433 115.83C37.1632 110.657 35.797 105.519 34.4809 100.38C33.8346 97.8554 33.1356 95.3794 32.2757 92.9227C31.5867 90.9542 30.5099 88.4756 31.68 86.4575C34.6487 88.69 37.0302 91.0955 38.7236 94.487C40.5376 98.1225 42.1218 101.855 44.2272 105.333C45.1898 106.924 46.3143 108.374 47.3439 109.913C47.9565 110.829 48.4028 112.151 49.1832 112.923C50.0828 113.814 51.0419 114.234 51.5563 112.731C52.1078 111.118 50.3479 107.927 49.8286 106.412C48.5741 102.756 47.3305 99.1075 46.3629 95.3574C45.5805 92.3256 44.2868 88.6603 44.7445 85.4617C45.1978 82.2949 47.2823 84.5617 48.3373 86.0338C50.5117 89.0692 51.8139 92.607 53.2427 96.0481C54.5558 99.2094 56.0873 102.224 57.5404 105.312C58.0458 106.386 58.712 109.162 60.0361 109.482C61.9608 109.947 61.798 107.153 61.6138 106.019C60.394 98.5043 57.2098 91.3088 56.549 83.6637C56.5173 83.2983 56.057 80.4579 56.4274 80.2205C57.1447 79.7605 58.1128 82.6423 58.4221 83.3485C60.0326 87.0209 61.1536 90.8923 62.1827 94.7715C63.0579 98.0709 63.8493 101.395 64.8312 104.663C65.3709 106.459 65.9895 108.225 66.5996 109.997C67.1511 111.603 67.7111 114.345 69.1498 115.403C71.1912 116.903 78.4955 113.336 79.2357 116.525C79.7624 118.792 72.9894 120.618 71.5467 121.306C69.6478 122.212 67.7851 123.204 65.8852 124.111C64.447 124.798 62.3798 125.079 61.3392 126.37C60.2371 127.738 60.0604 129.659 60.0276 131.355C60.0023 132.64 60.8656 135.809 60.2128 136.917ZM55.5963 161.67C55.5 162.382 54.9505 163.326 54.7032 164.004C54.2003 165.385 53.7724 167.035 53.0724 168.326C52.4707 169.437 51.5821 170.431 51.0002 171.559C50.4487 172.629 50.3752 173.863 49.7308 174.935C48.9931 176.16 47.7743 177.04 47.042 178.257C46.6811 178.858 46.3083 179.543 45.7984 180.183C43.9924 182.448 42.1992 184.585 40.7466 187.011C40.3753 187.632 38.5607 190.344 37.8389 190.491C36.3292 190.796 38.0862 188.585 38.3815 188.127C40.5202 184.819 42.4196 181.336 44.4839 177.976C46.4836 174.723 48.5299 171.496 50.4541 168.194C52.0239 165.502 53.1091 161.637 55.6599 159.74C55.6693 160.385 55.649 161.028 55.5963 161.67ZM125.335 131.266C126.577 136.53 128.063 141.631 129.463 146.848C130.763 151.689 132.492 156.869 133.031 161.86C133.564 166.803 134.791 171.805 136.44 176.497C137.202 178.668 137.986 180.848 138.814 182.994C139.268 184.173 139.776 185.325 140.293 186.476C140.693 187.371 141.752 188.819 141.792 189.767C141.825 190.526 142.08 190.223 141.354 190.794C140.601 191.384 139.297 191.17 138.421 191.273C136.135 191.546 133.905 192.432 131.677 193.007C127.379 194.114 122.255 194.993 117.851 194.222C115.998 193.898 114.074 193.617 112.242 193.195C109.988 192.675 109.524 191.714 109.062 189.43C108.05 184.438 107.179 179.459 106.343 174.433C105.35 168.455 104.274 162.484 103.508 156.469C102.734 150.384 102.177 144.293 100.964 138.274C105.859 139.118 110.468 140.071 115.376 138.688C119.723 137.464 122.861 135.072 125.335 131.266ZM144.493 196.439C145.587 198.763 142.95 200.852 141.672 202.643C139.987 205.003 138.413 207.468 136.452 209.602C135.864 207.177 135.348 204.448 133.779 202.456C131.775 199.912 129.435 200.951 126.98 199.748C129.555 198.457 132.843 198.949 135.574 197.798C138.269 196.663 140.989 195.771 143.496 194.296C143.829 195.01 144.158 195.726 144.493 196.439ZM134.944 250.669C133.298 250.763 134.399 247.186 134.506 246.297C134.8 243.853 135.097 241.41 135.355 238.963C136.712 242.653 138.07 246.343 139.427 250.034C137.935 250.253 136.453 250.582 134.944 250.669ZM132.267 268.36C132.492 268.874 133.539 270.588 132.712 270.904C131.579 271.337 131.443 268.498 132.267 268.36ZM130.304 228.603C125.061 232.917 119.855 237.242 114.183 240.957C112.94 241.77 111.688 242.111 110.864 240.497C110.217 239.228 110.901 237.799 111.317 236.557C112.375 233.39 114.22 230.637 116.265 228.06C120.348 222.912 125.208 218.517 131.409 216.487C132.424 216.155 133.99 215.153 134.345 216.537C134.555 217.35 133.669 219.383 133.489 220.146C132.749 223.3 132.911 226.459 130.304 228.603ZM145.395 260.066C145.51 263.729 135.794 260.775 134.584 260.12C135.854 259.681 145.343 258.419 145.395 260.066ZM149.002 260.089C149.58 260.248 151.793 260.449 150.967 261.228C150.227 261.927 146.875 261.647 145.986 261.732C146.583 259.711 147.036 259.55 149.002 260.089ZM147.203 255.182C146.985 255.997 146.897 257.24 146.189 257.799C145.305 258.495 143.429 258.072 142.43 258.077C140.733 258.087 139.037 258.176 137.348 258.35C136.701 258.416 134.084 259.229 133.477 258.675C133.033 258.267 133.198 256.356 133.523 255.926C134.188 255.043 135.72 255.349 136.68 255.313C140.193 255.184 143.687 255.173 147.203 255.182ZM144.947 241.641C144.451 240.882 144.363 240.89 144.151 239.743C143.925 238.514 143.35 237.464 143.012 236.277C142.268 233.667 144.645 233.898 146.389 234.856C150.912 237.34 149.82 246.019 148.701 250.082C147.075 248.85 146.475 248.291 145.915 246.302C145.703 245.547 145.464 244.805 145.243 244.054C145.08 243.5 145.194 242.02 144.947 241.641ZM145.339 199.4C146.602 199.243 147.757 203.281 147.396 204.155C146.658 205.943 143.836 207.54 142.399 208.681C141.442 209.441 140.492 210.312 139.47 210.975C138.52 211.589 137.974 211.244 137.091 211.54C135.814 211.966 135.504 213.359 134.197 213.958C132.357 214.801 130.127 215.036 128.206 215.797C125.874 216.72 123.737 216.746 121.293 216.308C117.777 215.679 113.656 213.882 113.974 209.478C114.532 201.71 129.5 197.73 133.582 204.317C134.645 206.031 134.628 208.029 135.318 209.871C136.065 211.864 136.789 211.081 137.913 209.613C139.383 207.692 140.749 205.668 142.161 203.702C142.619 203.066 144.427 199.514 145.339 199.4ZM53.6086 275.036C53.5366 276.358 53.6135 277.698 53.1677 278.959C52.7184 280.23 51.8079 281.258 51.2837 282.493C50.2203 284.997 50.2282 288.027 50.2709 290.71C50.3697 296.952 51.804 303.015 52.5625 309.183C50.0376 309.177 47.4273 309.206 44.9803 308.462C42.7945 307.798 42.4454 306.151 41.8274 304.076C40.0913 298.248 38.2167 292.446 37.6562 286.343C37.3896 283.434 37.2774 280.502 37.1498 277.585C37.0386 275.025 37.5962 273.909 39.8376 272.642C44.7102 269.887 49.7611 267.593 54.5836 264.707C54.0906 268.131 53.7962 271.582 53.6086 275.036ZM261.617 70.504C260.431 70.2793 259.233 70.1391 258.037 69.9918C257.412 69.915 255.465 70.0219 254.998 69.6024C254.441 69.103 255.405 65.3267 255.454 64.5161C255.755 59.6433 255.405 54.6195 254.971 49.7651C254.187 40.9765 251.505 32.8347 245.319 26.5064C242.239 23.3563 238.777 20.8571 234.571 19.6511C232.121 18.9483 229.596 18.5736 227.141 17.8922C225.16 17.3419 223.312 16.7119 221.254 16.4938C217.149 16.0587 213.397 14.4603 209.392 13.5356C206.445 12.8553 201.706 11.2417 199.795 14.6712C198.292 12.8534 196.779 11.4883 194.882 10.1323C193.066 8.8334 192.769 7.53595 190.544 9.03578C186.221 11.9502 182.173 15.5054 178.136 18.8212C174.366 21.9179 170.717 25.1609 166.766 28.0086C162.736 30.9135 163.5 35.8429 165.395 39.9295C168.961 47.6216 174.461 54.1974 179.275 60.7905C182.291 64.9209 185.316 69.0569 188.319 73.1955C191.191 77.1508 193.675 81.729 197.03 85.2827C199.145 87.5228 201.67 84.5934 203.579 83.24C205.949 81.5586 208.277 79.8147 210.65 78.1384C215.59 74.6466 220.876 71.3759 226.092 68.3364C226.471 69.4448 226.851 70.5531 227.23 71.6619C226.085 71.7504 224.537 71.4864 223.954 72.7559C223.121 74.5688 225.165 74.8068 225.523 75.8465C225.843 76.7747 224.531 79.2268 224.143 80.0634C223.27 81.9485 222.052 83.5736 220.709 85.1251C215.397 91.2659 208.675 95.6582 201.856 99.8449C194.557 104.324 186.735 107.059 178.745 109.946C174.683 111.413 170.466 112.095 166.273 113.035C162.234 113.94 158.197 115.13 154.069 115.472C145.624 116.17 136.661 116.694 128.317 114.816C127.404 114.611 126.437 114.166 125.508 114.082C124.763 114.014 124.212 114.336 123.509 114.377C121.999 114.466 121.133 113.074 119.934 114.367C119.334 115.014 119.323 116.1 118.487 114.893C117.423 113.357 120.142 113.06 121.15 112.623C124.543 111.15 127.27 108.184 129.426 105.186C131.581 102.191 131.89 98.9919 130.579 95.4848C129.267 91.9792 126.285 89.6029 124.046 86.7558C122.963 85.3773 121.966 83.919 120.777 82.6321C120.142 81.9449 119.119 81.2868 119.08 80.5935C119.033 79.7876 119.501 79.3875 119.221 78.4081C119.149 78.1533 118.839 78.0084 118.773 77.7285C118.668 77.2823 118.83 76.8996 118.775 76.4647C118.65 75.4679 118.27 74.8416 117.733 74.0249C117.399 73.5142 116.91 72.4924 116.449 72.1102C115.643 71.4398 114.542 71.7131 113.722 71.0336C112.425 69.959 111.968 67.6948 110.82 66.39C109.204 64.554 108.859 66.4089 107.147 65.824C105.683 65.3231 105.7 63.0522 104.517 62.2841C102.85 61.2024 101.447 63.1929 99.9668 63.636C98.0197 64.2194 98.7679 61.9551 97.0323 61.7489C95.4655 61.5627 93.2945 64.839 92.5131 66.0026C91.7168 65.0463 90.8461 63.4165 89.4133 64.0004C87.9096 64.6134 87.642 67.4666 86.5429 68.4843C86.1596 68.8384 86.2405 69.0994 85.7694 69.2626C85.1607 69.4724 84.35 68.5621 83.5632 68.8394C81.976 69.3997 82.1697 71.5826 82.1667 72.9969C80.2941 72.715 78.9879 72.5712 78.3609 74.6512C77.7473 76.6872 77.5145 75.7887 75.5401 76.4503C73.8383 77.0199 73.6 78.6859 73.319 80.3151C73.1452 81.3283 73.3061 81.7423 73.5707 82.6659C73.9043 83.8294 73.9043 83.8151 73.3602 84.9255C72.4125 86.8638 72.3559 88.9986 72.2045 91.1313C72.0436 93.4068 71.6574 95.4786 72.2849 97.7014C72.6726 99.0769 72.7024 100.949 74.0096 101.719C74.5278 102.024 75.4085 101.857 75.8499 102.16C76.6919 102.738 76.4357 103.618 76.9967 104.462C77.4167 105.094 78.0948 105.155 78.5655 105.667C79.0773 106.225 79.1081 106.904 79.3995 107.584C80.2623 109.599 81.074 110.574 78.2611 110.689C76.5255 110.76 74.6743 111.297 72.9457 111.132C70.9063 110.938 70.3989 109.763 69.7495 107.974C66.4775 98.9566 64.719 89.1833 60.4099 80.6089C59.4637 78.7258 55.58 71.0346 53.9382 76.6386C52.5541 81.3651 54.3701 87.1334 55.0666 91.8379C52.8818 89.8086 52.0735 86.1525 50.4144 83.6744C49.1892 81.8436 45.3521 77.3478 43.1027 79.9242C41.3304 81.9546 41.7733 86.2605 42.1004 88.688C42.6172 92.5287 43.8082 96.2298 44.6586 99.9969C43.5878 98.5529 43.0596 96.7901 42.3164 95.1644C41.3845 93.1259 40.2219 91.1917 38.8968 89.4002C37.7391 87.835 36.4444 86.3797 35.0404 85.0452C33.9676 84.0244 32.0464 81.7904 30.5228 81.6696C26.6013 81.3595 27.8345 88.7734 28.4317 90.8928C29.6699 95.2862 31.0118 99.5583 31.9729 104.04C33.8514 112.796 36.1267 121.35 37.5108 130.217C37.8171 132.183 38.1859 133.753 37.4318 135.643C36.7666 137.308 36.077 139.299 34.8503 140.579C32.0737 143.478 29.7682 146.574 27.6925 150.067C25.4694 153.809 23.1808 157.594 21.3663 161.566C20.5318 163.393 19.8492 165.37 18.89 167.127C18.0242 168.714 16.9837 169.967 16.3681 171.724C13.4271 180.117 11.2497 188.363 10.2528 197.25C9.43421 204.546 10.1967 214.252 18.7436 215.959C22.67 216.743 26.1952 214.948 29.7359 213.467C33.3977 211.936 36.0457 209.445 39.0324 206.799C42.7438 203.511 46.5972 200.426 50.3479 197.192C54.1005 193.957 57.5667 190.369 61.299 187.099C64.9851 183.868 68.3203 180.437 71.508 176.686C74.6708 172.965 77.2394 168.842 80.301 165.068C80.2896 169.954 79.5861 174.795 79.3886 179.674C79.2083 184.147 79.2039 188.616 79.3791 193.087C79.5544 197.556 78.4091 201.809 78.3996 206.268C78.3897 210.617 78.2224 214.941 78.1301 219.286C78.0889 221.235 77.718 223.422 78.4245 225.302C78.9522 226.706 80.6103 227.145 82.0252 227.523C84.2115 228.108 90.789 226.982 91.7655 229.389C92.2987 230.703 91.7615 233.095 91.8032 234.546C91.8727 236.938 91.9576 239.33 92.037 241.722C92.1194 244.192 92.1994 246.662 92.2868 249.132C92.3642 251.308 92.7747 253.732 92.5206 255.886C92.3026 257.733 91.2581 257.492 89.6025 257.586C87.1038 257.728 84.6047 257.843 82.1046 257.955C78.4374 258.121 74.6108 258.045 71.0949 258.491C69.6185 258.679 68.005 258.599 66.4477 258.904C64.4942 259.287 62.6901 259.384 60.7088 259.486C59.1117 259.567 57.0584 259.447 55.8034 260.665C55.3685 261.087 55.2707 261.59 54.9624 262.06C54.384 262.941 54.7057 262.709 53.757 262.907C50.0525 263.68 46.5342 264.553 42.9116 265.854C41.0981 266.506 39.4156 267.381 37.5937 267.993C35.9971 268.53 34.827 269.191 34.0376 270.807C32.6277 273.692 32.9847 277.867 33.0869 280.976C33.2478 285.828 34.2933 290.446 35.4207 295.138C36.5938 300.019 37.5138 305.03 39.7959 309.514C40.5456 310.988 41.3553 312.868 42.8868 313.636C44.8641 314.627 47.9054 314.026 50.0634 314.03C51.5116 314.033 55.3913 314.545 56.4741 313.294C57.5221 312.081 56.4676 308.663 56.3197 307.158C55.8009 301.887 54.8671 296.566 54.8795 291.259C56.061 293.058 58.1093 296.164 60.1597 293.408C60.6641 292.729 60.467 292.414 61.3631 292.021C61.8585 291.803 62.9035 291.67 63.4432 291.707C64.1774 291.758 64.449 292.063 65.1232 291.914C65.7204 291.782 66.3916 291.231 67.0762 291.063C75.5624 288.984 83.9991 286.743 92.5216 284.892C94.7749 284.401 94.4547 286.185 94.6037 288.193C94.768 290.413 94.4542 292.656 94.7531 294.852C95.0132 296.763 95.2158 298.625 94.8494 300.547C94.4175 302.814 94.6955 304.705 95.1259 306.951C96.7836 315.608 96.4872 324.998 96.861 333.797C97.0556 338.379 96.6381 343.058 97.0561 347.616C97.214 349.338 98.1463 350.29 98.5241 351.855C98.958 353.654 97.775 355.943 97.415 357.686C96.6917 361.182 95.4213 366.187 97.7452 369.23C99.0002 370.873 100.645 371.112 102.503 371.667C104.727 372.332 106.918 373.107 109.152 373.737C117.313 376.04 126.133 376.49 134.498 377.759C136.546 378.07 138.446 378.041 140.507 377.894C141.778 377.803 144.908 378.234 145.964 377.45C146.53 377.031 146.244 376.505 146.531 375.992C146.94 375.264 147.435 374.968 148.131 374.515C149.283 373.764 150.615 373.325 150.81 371.776C151.286 367.981 146.684 365.97 144.224 364.329C141.08 362.232 137.282 361.422 133.945 359.71C132.104 358.765 130.328 357.695 128.554 356.623C127.785 356.158 126.226 355.632 125.69 354.9C125.143 354.154 125.678 353.088 125.905 352.021C126.84 347.612 126.524 343.105 127.008 338.65C127.491 334.187 127.36 329.697 127.519 325.212C127.683 320.593 128.054 315.986 128.338 311.373C128.599 307.113 128.863 302.785 128.907 298.521C128.948 294.566 129.471 290.687 129.595 286.707C129.637 285.356 129.402 282.906 130.272 281.762C131.035 280.758 133.562 280.884 134.74 280.708C137.917 280.233 140.941 279.816 144.082 279.53C151.555 278.848 159.872 278.346 166.939 275.661C169.854 274.554 173.732 273.041 174.699 269.592C175.811 265.627 174.359 260.753 174.311 256.699C174.26 252.37 173.042 248.147 172.129 243.953C171.146 239.438 170.527 234.845 169.465 230.347C168.49 226.22 166.909 222.564 165.414 218.645C164.808 217.056 161.354 211.579 162.426 210.229C163.003 209.502 165.081 209.317 165.925 208.984C167.742 208.268 169.563 207.453 171.239 206.432C173.477 205.069 178.377 202.814 178.603 199.785C178.817 196.89 176.058 193.965 174.655 191.692C172.395 188.028 169.544 184.826 167.391 181.09C163.041 173.541 159.582 165.272 156.41 157.136C154.751 152.88 154.209 148.872 153.936 144.328C158.754 144.34 163.657 144.951 168.445 144.257C173.655 143.501 178.872 142.228 184.037 141.179C193.442 139.268 202.472 137.111 211.184 132.809C219.343 128.78 227.622 124.371 234.377 117.976C237.87 114.669 241.433 111.299 244.449 107.518C247.548 103.633 249.878 99.2201 252.269 94.8595C254.908 90.046 257.008 84.9874 258.668 79.7226C259.003 78.6639 259.005 77.3161 259.432 76.3163C259.914 75.1875 260.791 75.1578 261.708 74.5632C262.997 73.7266 263.854 70.9271 261.617 70.504Z" fill="black"/>
<path fill-rule="evenodd" clip-rule="evenodd" d="M149.447 16.6224C150.548 17.5976 155.295 21.0329 156.828 20.1976C158.72 19.1664 155.725 16.0602 154.919 15.2944C153.892 14.3202 150.225 11.3728 148.822 11.6464C146.015 12.1936 148.456 15.7446 149.447 16.6224Z" fill="black"/>
<path fill-rule="evenodd" clip-rule="evenodd" d="M151.792 51.8793C152.414 50.6169 154.069 50.1528 154.834 48.9314C155.755 47.4628 156.178 46.1777 155.839 44.3768C153.482 45.1945 150.801 47.6696 149.224 49.6048C147.906 51.2222 146.034 54.602 149.473 54.6107C149.443 54.1297 149.413 53.6477 149.383 53.1672C150.415 53.3217 151.324 52.8305 151.792 51.8793Z" fill="black"/>
<path fill-rule="evenodd" clip-rule="evenodd" d="M140.564 30.8772C142.083 31.3273 143.337 31.2636 144.89 31.2988C146.016 31.3247 147.556 31.9629 148.469 31.2435C147.658 30.76 148.682 30.7333 148.482 30.2617C148.313 29.8687 147.994 29.9975 147.733 29.6792C146.806 28.5455 146 28.5593 144.529 28.3235C143.39 28.1399 141.714 27.7165 140.619 28.3003C139.467 28.9149 139.021 30.42 140.564 30.8772Z" fill="black"/>
<path fill-rule="evenodd" clip-rule="evenodd" d="M162.192 65.6526C163.174 64.8032 164.246 62.344 164.444 61.075C164.522 60.5776 164.175 60.1969 164.216 59.8311C164.295 59.1336 165.686 57.7858 164.229 57.2138C162.956 56.7128 161.758 60.6037 161.434 61.4526C161.102 62.321 160.198 64.0126 160.475 64.8523C160.706 65.5492 161.528 66.2257 162.192 65.6526Z" fill="black"/>
<path fill-rule="evenodd" clip-rule="evenodd" d="M173.947 12.991C174.836 12.1405 175.399 11.1759 175.306 10.0063C175.233 9.08501 174.564 5.90863 173.811 6.00202C171.309 6.31323 172.434 14.4393 173.947 12.991Z" fill="black"/>
<path fill-rule="evenodd" clip-rule="evenodd" d="M121.137 155.003C120.931 154.226 120.183 149.478 118.888 149.801C117.905 150.047 118.927 154.226 118.972 154.776C119.068 155.926 116.923 155.888 115.926 155.733C114.345 155.487 114.472 154.532 114.235 153.051C114.146 152.491 113.804 149.96 112.671 150.887C111.906 151.513 112.453 154.633 112.516 155.345C112.737 157.811 112.997 162.021 114.419 164.26C114.986 165.153 115.496 165.594 116.092 164.448C116.695 163.289 115.33 159.757 115.092 158.572C116.217 158.685 119.457 158.309 120.135 159.514C120.754 160.614 119.764 163.756 121.75 164.011C122.928 164.162 122.714 162.756 122.601 161.674C122.364 159.404 121.717 157.195 121.137 155.003Z" fill="black"/>
<path fill-rule="evenodd" clip-rule="evenodd" d="M124.155 153.905C122.85 154.512 124.488 163.368 126.397 163.083C128.624 162.749 125.398 153.326 124.155 153.905Z" fill="black"/>
<path fill-rule="evenodd" clip-rule="evenodd" d="M122.701 150.972C122.54 152.966 125.054 153.709 125.173 151.542C125.264 149.87 122.87 148.876 122.701 150.972Z" fill="black"/>
<path fill-rule="evenodd" clip-rule="evenodd" d="M108.9 98.1026C110.048 102.511 120.495 104.387 119.088 98.4409C118.383 95.4638 115.439 98.1088 113.384 97.7624C112.054 97.5382 108.092 94.9936 108.9 98.1026Z" fill="black"/>
<path fill-rule="evenodd" clip-rule="evenodd" d="M106.277 90.2384C106.768 87.8795 101.762 85.2755 99.9446 85.9248C97.2872 86.8756 97.2986 92.9519 99.3261 94.5673C99.5927 94.7797 100.41 95.2868 100.811 94.8825C101.443 94.2434 100.752 94.4179 100.605 93.7798C100.371 92.7651 99.6051 91.4624 100.368 90.3075C101.809 88.1267 105.573 93.6186 106.277 90.2384Z" fill="black"/>
<path fill-rule="evenodd" clip-rule="evenodd" d="M91.0105 101.689C89.2054 101.585 87.725 104.473 90.381 104.231C90.8899 104.184 91.9826 104.052 92.2774 103.501C92.766 102.589 91.8043 101.735 91.0105 101.689Z" fill="black"/>
<path fill-rule="evenodd" clip-rule="evenodd" d="M178.584 32.8446C177.966 31.9234 176.671 30.4409 175.556 31.3649C174.568 32.1843 174.74 34.2066 175.12 35.2115C176.139 37.9169 178.548 40.327 181.274 38.7683C180.327 36.813 179.794 34.6479 178.584 32.8446Z" fill="black"/>
</g>
<defs>
<filter id="filter0_d" x="0" y="0" width="273" height="392" filterUnits="userSpaceOnUse" color-interpolation-filters="sRGB">
<feFlood flood-opacity="0" result="BackgroundImageFix"/>
<feColorMatrix in="SourceAlpha" type="matrix" values="0 0 0 0 0 0 0 0 0 0 0 0 0 0 0 0 0 0 127 0"/>
<feOffset dy="4"/>
<feGaussianBlur stdDeviation="5"/>
<feColorMatrix type="matrix" values="0 0 0 0 0.317647 0 0 0 0 0.580392 0 0 0 0 0.878431 0 0 0 1 0"/>
<feBlend mode="normal" in2="BackgroundImageFix" result="effect1_dropShadow"/>
<feBlend mode="normal" in="SourceGraphic" in2="effect1_dropShadow" result="shape"/>
</filter>
</defs>
</svg>
