<svg width="917" height="708" viewBox="0 0 917 708" fill="none" xmlns="http://www.w3.org/2000/svg">
<path fill-rule="evenodd" clip-rule="evenodd" d="M231.204 425.106C235.873 421.924 245.42 410.534 250.422 407.902C261.545 402.049 311.097 390.543 312.708 389.863C315.162 388.828 331.103 385.21 340.391 382.925C362.2 377.557 440.356 342.889 460.956 334C463.586 340.92 485.296 371.468 481.572 374.599C469.31 384.906 447.331 397.74 433.127 405.126C421.639 411.1 409.471 416.044 397.187 420.08C383.24 424.664 373.668 429.578 359.768 434.266C346.093 438.879 362.436 453.306 369.459 456.287C377.336 459.631 389.537 461.328 397.586 464.226C383.415 486.251 371.514 512.982 369.133 539.365C368.56 545.714 363.72 551.535 355.847 549.634C351.785 548.653 314.301 543.661 308.189 542.267C267.386 532.962 194.137 484.233 213 434.266C217.321 436.262 227.187 427.844 231.204 425.106Z" fill="#FF5678"/>
<path fill-rule="evenodd" clip-rule="evenodd" d="M254.031 160C257.079 159.743 264.961 153.654 260.825 150.574C256.653 147.467 253.655 157.88 254.031 160ZM95.2451 183.353C96.0421 183.212 95.6941 178.852 94.4401 178.295C90.4801 176.537 90.1461 183.144 90.0491 184.912C89.9291 187.143 89.6491 193.428 94.4641 191.705C97.1971 190.727 95.5011 185.025 95.2451 183.353ZM329 203.723C328.893 207.615 336.756 215.099 339.687 210.61C342.153 206.838 329.202 195.975 329 203.723ZM51.0001 115.944C53.2781 121.756 64.5451 113.836 64.9641 109.573C65.8231 100.843 50.8821 110.136 51.0001 115.944ZM144.999 141C150.246 140.569 157.15 133.898 162.21 131.406C165.634 129.72 174.951 127.71 175.964 123.881C176.846 120.554 161.038 127.675 159.688 128.308C153.487 131.213 147.896 134.525 144.999 141ZM538.897 95C543.079 91.766 548.163 89.68 553.524 89.817C556.201 89.885 561.786 91.56 561.996 86.93C562.338 79.402 538.694 88.583 534.999 90.06C536.299 91.708 537.598 93.354 538.897 95ZM277.999 388.387C274.931 383.292 269.413 380.346 265.263 376C266.784 383.137 263.355 389.485 260.999 396C266.667 393.462 272.332 390.925 277.999 388.387ZM810.805 497C812.496 491.341 814.189 485.714 816.166 480.142C818.378 473.902 819.478 473.363 814.183 469C809.789 477.305 805.394 485.611 800.999 493.918C804.128 495.248 807.393 496.542 810.805 497ZM355.999 87.365C350.181 80.807 322.913 80.395 326.287 94.869C327.465 99.923 334.169 94.554 338.368 93.376C342.536 92.206 354.338 92.051 355.999 87.365ZM354.999 180.215C354.294 178.541 352.886 172.5 350.796 172.024C348.76 171.56 340.726 177.896 339.216 178.863C331.683 183.69 324.34 188.883 316.999 194C319.81 194 322.362 192.999 325.156 192.978C328.476 192.949 330.857 194.313 334.094 193.535C341.049 191.865 349.121 184.158 354.999 180.215ZM362.536 30.5703C363.189 27.5706 397.281 36.5753 401.378 38.2242C403.61 39.121 415.128 45.108 412.653 36.0848C411.244 30.9456 397.935 27.0279 393.67 25.6194C382.827 22.0405 371.395 19.4949 359.85 20.0853C357.608 20.1991 340.629 21.1788 347.719 28.0034C350.162 30.3537 358.919 29.613 362.536 30.5703ZM369.999 442.713C376.351 445.838 382.836 448.228 389.475 450.672C392.424 451.758 397.019 454.6 400.272 453.886C402.937 453.3 403.791 449.242 405.191 446.526C410.309 436.588 416.421 428.571 423.999 420.377C420.48 417.811 402.618 429.131 398.198 430.802C393.773 432.475 389.599 434.16 385.268 436.159C381.191 438.041 373.146 439.724 369.999 442.713ZM482.463 358C491.72 353.811 500.494 346.383 508.086 339.732C516.803 332.096 524.618 324.093 530.999 314.211C527.159 314.407 518.681 326.759 518.586 313.311C518.537 306.451 527.938 299.694 530.856 293.331C523.598 289.233 516.945 313.719 508.617 307.784C500.594 302.065 513.253 282.402 515.692 276.198C510.986 273.067 484.174 308.113 480.293 312.597C477.866 315.404 472.126 319.141 470.756 322.415C469.94 324.365 469.823 330.55 470.218 332.343C471.039 336.092 475.198 340.582 477.05 344.073C479.394 348.493 481.435 353.086 482.463 358ZM865.155 484.352C857.15 473.053 865.419 468.125 871.928 458.747C877.134 451.245 881.923 442.976 885.223 434.598C893.476 413.645 900.923 394.165 904.999 372C899.39 374.561 895.883 384.306 893.077 389.441C889.303 396.345 885.984 403.591 881.79 410.28C873.942 422.796 866.237 436.148 856.254 446.997C851.731 451.914 847.902 457.445 842.683 461.875C840.299 463.899 835.738 465.56 833.981 468.091C832.323 470.48 834.178 472.007 833.548 474.861C832.902 477.789 829.94 480.911 828.669 483.73C827 487.433 825.445 491.145 823.582 494.766C821.55 498.715 820.995 500.78 820.447 504.639C819.848 508.859 821.684 509.297 817.999 513.185C824.677 516.13 831.355 519.074 838.032 522.018C840.285 523.013 842.539 524.006 844.793 525C845.268 524.109 845.743 523.219 846.218 522.328C848.053 520.546 849.741 516.151 850.79 513.796C855.178 503.972 860.133 494.109 865.155 484.352ZM220.32 436.919C201.359 486.838 267.988 528.87 309.003 538.166C314.684 539.453 320.228 541.138 325.883 542.521C332.049 544.028 337.524 543.728 343.679 544.359C348.575 544.86 350.909 548.643 355.523 549.686C363.233 551.428 362.762 545.633 363.314 539.425C365.655 513.1 379.09 487.701 393.309 465.735C386.814 463.411 380.378 460.875 373.966 458.331C368.479 456.153 360.078 450.031 354.179 449.707C349.817 449.469 343.169 453.194 338.932 454.829C331.876 457.552 324.799 459.871 317.445 461.728C304.585 464.975 290.275 469.401 276.968 469.736C273.131 469.833 262.607 471.62 259.847 469.249C254.583 464.728 261.889 460.96 266.296 459.346C292.561 449.728 320.448 445.639 346.787 435.778C360.341 430.703 373.755 425.036 387.394 420.036C399.151 415.727 411.465 411.912 422.827 406.611C437.832 399.613 452.901 390.895 465.894 380.624C468.495 378.569 473.944 375.516 475.726 372.538C477.296 369.916 477.1 372.531 476.774 369.352C476.54 367.069 473.746 363.974 472.597 361.817C468.315 353.774 464.445 345.512 461.192 337C440.466 345.89 420.748 357.99 400.327 367.49C379.773 377.053 356.588 383.799 334.599 389.179C325.24 391.469 314.481 392.193 305.898 396.718C302.251 398.64 298.646 400.864 294.74 401.976C293.586 404.189 292.451 404.623 291.332 403.277C290.631 402.49 289.725 402.158 288.613 402.28C286.224 402.685 283.787 403.813 281.553 404.68C270.244 409.064 259.415 414.554 248.679 420.156C243.59 422.809 238.37 425.423 233.5 428.454C230.89 430.079 228.551 431.717 226.415 433.948C223.854 436.623 224.464 438.822 220.32 436.919ZM646.979 140.53C651.771 140.608 656.138 138.012 661.135 138.157C668.992 138.384 675.212 144.476 679.772 150.351C688.796 161.975 686.495 175.998 681.962 189.007C679.793 195.224 676.815 201.192 673.095 206.634C669.801 211.452 663.912 216.009 661.613 221.373C657.822 230.22 665.471 226.458 670.155 224.569C676.043 222.191 681.564 219.236 686.562 215.255C708.839 197.513 725.785 172.852 731.462 144.53C734.231 130.712 734.018 114.558 724.392 103.28C715.592 92.967 700.401 89.598 687.415 91.51C673.378 93.578 660.656 99.524 649.226 107.177C645.906 109.401 642.866 111.829 639.749 114.316C635.659 117.579 633.208 117.664 634.232 122.778C634.992 126.58 637.062 130.52 638.396 134.168C640.894 141.001 639.983 142.769 646.979 140.53ZM662.256 258.331L661.286 259.988C667.97 260.306 674.195 254.41 679.89 251.532C687.288 247.791 693.857 242.688 700.34 237.535C711.772 228.446 723.354 218.203 731.863 206.271C750.94 179.524 768.268 145.613 763.062 111.701C757.452 75.1521 725.484 61.0828 691.421 65.9212C676.07 68.1014 662.365 74.955 648.627 81.913C641.702 85.42 635.858 89.971 629.514 94.375C626.222 96.662 623.218 96.959 623.003 100.957C622.841 103.97 628.05 110.784 629.458 113.514C646.707 95.9181 665.296 81.361 691.345 80.461C722.335 79.391 740.66 108.775 740.524 136.913C740.391 164.508 728.489 191.052 709.516 210.884C700.894 219.897 692.673 227.129 682.085 233.707C676.807 236.986 672.914 239.93 667.013 242.107C662.839 243.648 663.274 242.836 662.209 246.7C661.304 249.979 662.228 254.926 662.256 258.331ZM493.865 633.241C493.461 638.214 492.451 643.11 491.326 647.96C490.922 649.702 488.647 655.201 489.046 657.159C489.705 660.396 488.828 658.315 491.664 660.003C494.622 661.766 498.066 661.66 501.305 662.195C503.304 662.526 510.629 665.973 511.861 665.429C514.015 664.477 513.947 661.121 516.31 659.791C519.53 657.977 524.275 659.531 527.312 660.95C535.433 664.737 541.012 672.578 548.869 676.87C562.823 684.491 579.381 688.71 594.948 690.451C603.382 691.394 612.012 693.049 620.341 691.073C626.903 689.516 635.432 689.659 638.999 682.618C607.298 673.9 558.912 663.231 546.378 626.851C539.564 633.029 528.177 629.702 519.943 628.849C510.884 627.911 502.789 628.129 494.504 624C493.898 627.246 493.713 629.94 493.865 633.241ZM213.184 407.923C228.107 408.824 242.255 401.762 251.438 389.847C253.699 386.912 256.017 383.917 257.374 380.44C257.669 379.559 257.962 378.677 258.256 377.796C259.681 375.363 259.057 374.215 256.386 374.352C254.881 372.288 251.065 371.594 252.151 367.853C252.968 365.031 255.985 364.985 258.607 364.097C257.301 361.903 256.52 360.802 254.651 358.851C249.794 363.22 240.979 371.796 237.566 361.758C235.926 356.939 238.812 352.333 238.097 347.685C237.803 345.762 235.366 340.851 233.953 339.702C226.43 333.577 215.595 336.112 207.613 339.717C202.112 342.202 200.928 343.368 200.031 349.064C199.12 354.856 198.274 360.646 197.263 366.421C200.564 364.701 201.165 360.985 203.318 358.309C204.124 359.777 204.931 361.247 205.74 362.715C206.876 362.078 207.937 362.111 208.921 362.817C210.514 365.266 209.512 368.898 209.022 371.465C214.334 370.97 216.579 376.896 211.224 379.296C205.677 381.782 203.175 375.004 202.987 370.614C200.917 373.086 198.791 371.763 197.348 373.033C195.907 374.303 195.339 376.95 194.826 379.849C193.983 384.612 191.826 391.484 193.822 396.262C196.785 403.359 206.232 407.052 213.184 407.923ZM645.61 179.975C640.673 186.842 632.254 195.831 630.493 204.127C635.932 200.936 647.431 185.579 650.393 197.812C652.094 204.834 643.372 213.201 641.229 220C649.806 217.178 655.915 208.34 661.267 201.519C668.091 192.822 675.058 181.358 676.8 170.299C678.209 161.35 672.001 153.009 662.777 152.132C658.065 151.684 653.145 152.432 648.593 153.525C646.517 154.022 643.421 154.64 641.568 155.752C639.242 157.149 638.924 160.419 636.732 157.699C633.821 163.186 630.91 168.673 627.999 174.158C630.896 173.107 636.808 168.645 639.974 169.106C644.598 169.781 645.548 176.497 645.61 179.975ZM183.28 45.6445C170.335 46.0261 156.804 48.7827 144.549 52.8805C141.506 53.899 128.667 57.5212 131.371 62.7721C133.158 66.2428 142.793 61.3384 145.706 60.5205C158.19 57.0147 171.044 54.7027 183.831 52.5928C186.927 52.0821 197.43 52.1326 197.972 48.0741C198.636 43.122 186.936 45.6389 183.28 45.6445ZM535.593 610.466C528.576 611.323 521.839 611.003 514.816 610.143C508.905 609.42 502.886 607 497.005 607C497.005 613.295 496.578 613.335 503.22 614.682C507.856 615.623 512.558 616.151 517.243 616.807C525.492 617.96 534.649 621.198 542.999 619.534C542.797 618.441 542.157 611.064 541.292 610.334C540.805 609.924 536.301 610.473 535.593 610.466ZM422.19 144.677C424.152 145.927 428.662 150.912 430.999 151C430.165 145.229 423.726 135.181 416.332 138.747C414.52 139.622 410.714 143.976 412.436 145.897C413.355 146.924 419.786 144.684 422.19 144.677ZM353.781 196.017C353.852 195.011 353.925 194.005 353.999 193C351.286 194.595 347.927 195.35 345.999 197.92C348.314 198.946 350.627 199.973 352.943 201C353.222 199.339 353.502 197.678 353.781 196.017ZM567.457 349.235C580.276 353.724 592.028 359.72 601.464 369.897C609.62 378.698 613.453 394.204 615.444 405.74C620.37 434.286 610.864 460.745 604.596 488.053C601.416 501.906 596.669 515.237 592.224 528.732C588.343 540.516 585.015 552.857 579.658 564.062C575.116 573.563 569.313 582.93 565.317 592.786C563.167 598.09 559.682 616.292 551.52 610.576C549.293 616.399 548.752 615.903 551.133 619.948C552.856 622.876 558.701 626.942 561.46 629.326C568.81 635.682 578.12 640.92 586.743 645.37C602.537 653.521 619.467 659.62 635.732 667.051C642.923 670.339 650.721 674.222 649.107 683.629C647.755 691.515 643.193 697.495 636.076 701.003C629.394 704.298 619.837 706.842 612.486 707.875C608.125 708.489 607.125 706.674 603.569 706.046C599.612 705.349 594.994 706.698 590.911 706.663C572.585 706.503 556.54 701.892 541.73 691.265C536.438 687.467 528.648 677.165 521.722 677.166C518.182 677.166 518.929 679.317 515.815 680.579C511.972 682.135 505.35 679.197 501.572 678.507C493.523 677.038 485.338 675.546 479.978 668.613C474.183 661.121 476.243 651.84 478.733 643.52C481.54 634.141 486.263 624.626 488.27 615.105C488.759 612.789 489.209 608.472 488.713 606.116C487.941 602.46 484.25 600.279 484.139 596.32C484.105 595.116 485.828 593.528 486.13 592.285C486.795 589.555 486.692 586.723 486.966 583.945C487.455 578.989 488.585 574.241 489.365 569.343C491.137 558.198 494.632 548.256 498.015 537.518C501.297 527.096 504.421 519.34 510.767 510.316C514.052 505.643 525.042 488.992 519.675 484.2C512.33 498.628 503.741 509.88 492.499 521.366C483.902 530.152 475.496 541.962 464.735 548.219C452.904 555.099 438.446 559.146 425.381 562.784C419.167 564.513 414.011 568.349 407.312 569.059C400.052 569.826 392.663 568.921 385.552 567.302C383.551 566.847 377.778 563.771 375.967 563.967C373.299 564.257 369.461 569.013 366.533 569.886C359.406 572.012 354.539 567.951 349.133 564.198C343.266 560.124 341.491 559.112 334.721 558.621C326.429 558.022 318.365 555.099 310.209 553.309C295.869 550.163 283.68 543.787 270.646 537.112C255.705 529.463 242.925 518.914 231.663 506.452C215.108 488.131 192.052 437.364 219.096 419.589C203.175 417.427 188.594 410.474 186.653 392.455C185.639 383.026 187.548 372.581 189.919 363.492C191.001 359.342 192.291 355.218 193.527 351.111C194.458 349.724 194.951 348.207 195.002 346.557C195.573 344.42 194.75 343.355 192.531 343.365C188.338 338.462 185.185 334.134 184.338 327.172C184.071 324.966 183.832 321.584 185.402 319.708C186.128 318.954 187.005 318.45 188.028 318.197C190.486 318.338 191.18 317.127 190.112 314.566C191.305 310.938 189.535 308.111 194.032 306.597C195.473 306.903 196.908 307.239 198.337 307.602C200.161 308.434 201.347 307.831 201.899 305.8C206.135 304.142 204.181 301.691 209.937 303.824C213.42 305.115 216.734 307.338 219.271 310.046C222.453 308.003 215.216 295.378 214.975 291.35C214.402 281.855 218.328 274.005 223.435 266.206C233.362 251.05 247.218 238.018 260.882 226.292C287.054 203.836 314.549 182.458 344.101 164.567C331.91 156.1 317.667 153.805 303.161 157.74C289.788 161.368 278.948 167.957 266.638 173.72C255.234 179.057 243.129 181.25 239.493 166.685C235.419 150.37 248.417 144.313 260.076 136.997C257.165 134.826 247.581 136.378 243.956 136.635C235.882 137.206 228.16 139.029 220.314 140.641C216.551 141.413 213.094 141.239 209.366 141.996C203.824 143.121 198.037 144.381 192.43 145.984C179.09 149.799 165.849 155.589 154.322 163.391C144.359 170.131 137.447 179.648 129.42 188.413C120.266 198.407 111.494 208.241 97.9231 211.899C91.5681 213.613 84.1131 215.168 79.6081 209.492C75.4161 204.214 75.1821 197.853 75.3201 191.4C75.6231 177.145 82.5091 161.742 90.5191 150.094C99.2141 137.45 110.86 130.209 121.863 120.032C105.959 121.169 90.5891 129.552 75.9631 135.347C72.8851 136.567 69.7781 137.938 66.6831 139.066C63.3831 140.27 61.1971 139.533 58.0351 140.084C50.8201 141.343 44.622 144.384 37.6035 139.536C24.3249 130.365 37.6285 111.708 46.7711 105.983C59.5051 98.01 72.4601 91.297 86.4891 85.61C78.8941 77.372 85.3801 65.6156 92.3811 59.7715C101.238 52.3764 112.517 48.1388 123.19 44.1802C131.63 41.0492 139.92 38.0431 148.688 36.1589C157.906 34.1789 168.684 31.1534 178.037 31.4436C186.809 31.7158 194.587 30.1704 203.471 29.9232C210.863 29.7177 218.272 29.8955 225.663 29.7039C245.549 29.1901 265.508 30.5314 284.943 31.9615C269.545 -13.067 370.972 0.838748 392.611 6.72035C412.276 12.066 434.808 18.2669 451.326 30.9507C458.324 36.3228 464.97 42.4308 471.179 48.6984C480.339 57.9457 485.41 70.056 490.255 82.009C502.545 75.989 514.295 69.4284 527.742 66.4431C540.537 63.6037 553.644 59.7548 566.514 57.6096C576.299 55.9781 590.502 54.8716 598.737 61.7807C607.681 69.2854 612.341 80.964 617.68 90.965C643.32 66.6361 671.919 48.8871 708.476 50.0674C744.248 51.2226 767.771 82.114 772.108 115.588C776.885 152.474 760.454 191.016 738.182 219.58C728.195 232.39 717.861 244.762 704.419 254.319C697.753 259.056 690.721 264.246 683.412 267.945C679.767 269.789 675.782 271.455 671.956 272.874C670.229 273.515 668.451 274.157 666.655 274.592C661.527 275.836 662.523 274.175 660.616 278.664C659.069 282.309 659.259 288.58 658.596 292.58C657.839 297.152 657.389 301.787 656.284 306.297C654.368 314.114 652.374 321.739 649.975 329.373C645.433 343.82 639.321 358.381 631.835 371.56C638.184 374.317 647.075 374.595 653.86 375.431C661.203 376.334 668.557 378.234 676.185 380.367C691.469 384.64 705.127 388.248 719.661 394.646C734.75 401.288 748.198 411.206 762.727 419.1C776.087 426.359 789.592 435.451 802 444.165C804.952 446.238 806.78 448.04 809.13 450.666C811.534 453.348 812.299 453.873 815.172 456.197C816.468 457.244 820.235 462.529 821.714 462.723C824.363 463.074 823.956 461.097 826.035 458.337C830.377 452.575 836.433 448.111 840.744 442.203C844.34 437.276 848.091 432.288 851.934 428.051C861.236 417.799 868.943 406.435 875.556 394.145C878.998 387.746 882.622 381.657 886.36 375.618C890.081 369.606 896.696 361.671 904.107 362.026C903.511 358.965 901.618 358.455 904.885 356.583C906.989 355.377 911.085 357.321 912.707 358.545C917.005 361.789 917.189 368.081 916.919 372.808C916.221 384.989 913.673 397.013 910.12 408.531C905.85 422.377 900.498 434.592 894.657 447.807C890.007 458.334 884.233 472.255 872.662 477.059C880.433 488.155 876.701 497.196 871.507 508.976C867.711 517.588 862.697 526.486 855.06 532.185C846.452 538.609 837.115 533.159 828.112 528.913C822.674 526.348 806.045 520.295 809.427 512.402C805.273 511.848 802.66 508.83 798.879 507.902C794.876 506.919 795.564 508.544 791.329 509.154C788.081 509.621 783.224 506.713 780.167 505.672C775.059 503.935 769.967 502.153 764.867 500.397C750.512 495.452 736.399 490.584 721.902 486.623C694.929 479.253 667.623 475.072 640.745 468.491C635.357 467.172 630 465.899 624.39 464.842C623.232 464.624 617.221 464.289 616.491 463.049C615.212 460.876 619.144 448.716 619.481 446.238C621.697 429.97 620.973 412.161 617.852 396.079C616.556 389.393 610.767 380.736 610.817 374.21C610.852 369.832 614.731 365.052 617.009 361.086C622.643 351.281 628.546 340.687 632.72 330.483C639.109 314.873 643.023 297.253 645.846 280.535C647.315 271.819 649.026 262.371 649.426 253.554C649.732 246.833 649.18 239.784 650.156 232.901C646.436 233.254 641.173 235.181 637.823 233.118C633.592 230.515 632.456 223.082 632.996 218.643C618.51 221.171 618.991 207.434 619.888 196.691C593.707 196.691 627.236 157.787 631.425 149.433C633.35 145.592 633.293 149.906 632.443 143.966C632.07 141.355 630.285 138.461 629.275 136.06C627.075 130.819 624.696 125.658 622.155 120.573C616.787 109.833 610.706 99.456 604.069 89.45C598.095 93.613 592.71 98.541 587.721 103.828C590.921 95.458 600.7 85.089 596.517 75.585C592.641 66.775 579.694 67.3859 572.048 68.9965C551.271 73.377 531.345 79.757 511.552 87.144C517.683 90.66 527.07 87.944 533.162 85.256C540.705 81.926 548.817 78.433 556.947 76.669C564.037 75.131 573.349 75.656 571.3 85.206C569.639 92.944 562.071 100.396 557.077 106.182C546.074 118.929 532.277 128.797 518.725 138.657C504.157 149.256 490.12 160.772 475.368 171.064C448.701 189.67 420.028 205.84 392.476 223.207C378.159 232.231 361.936 239.493 346.409 246.181C329.329 253.538 312.953 261.415 295.233 267.226C285.392 270.454 275.638 273.11 265.968 276.783C259.907 279.084 249.352 283.695 245.347 276.862C237.214 262.984 266.647 244.733 274.713 236.248C280.277 241.652 252.838 261.789 254.986 269.657C256.673 275.84 263.2 267.856 266.352 266.171C271.445 263.447 277.477 262.078 282.596 258.97C293.095 252.596 305.543 245.245 307.94 232.068C306.272 230.308 306.293 228.683 308.003 227.193C308.764 226.288 309.368 225.294 309.813 224.21C310.56 222.139 310.86 219.546 311.26 217.35C312.442 210.861 309.475 204.785 312.248 198.434C296.067 210.694 280.514 224.543 265.154 237.815C251.377 249.72 237.001 265.309 231.938 283.073C231.29 285.349 230.212 287.931 230.33 290.333C230.56 295.049 231.031 294.032 234.83 295.548C238.63 297.065 244.163 296.934 248.249 297.095C250.578 297.185 260.98 294.719 258.912 299.83C257.72 302.777 250.509 302.666 247.927 302.938C241.447 303.622 237.933 302.92 241.003 309.944C242.379 313.092 245.167 315.225 247.354 317.661C253.441 324.44 256.747 334.837 261.535 342.801C266.99 351.874 272.987 360.502 279.358 368.952C281.987 372.438 285.501 378.991 289.146 381.479C292.549 383.802 288.545 383.61 294.198 382.666C296.662 382.256 298.895 380.653 301.252 380.079C315.345 376.646 329.831 372.776 344.405 368.538C363.047 363.117 382.61 358.495 400.396 350.689C416.329 343.694 432.144 335.367 448.244 328.283C452.946 326.216 457.642 324.845 461.296 321.04C465.707 316.448 469.359 310.436 473.427 305.5C480.346 297.103 486.723 288.563 494.17 280.606C499.714 274.685 509.538 263.679 517.359 261.315C532.22 256.826 524.265 279.461 522.344 285.182C525.838 285.975 527.674 281.494 531.774 282.783C536.683 284.327 537.191 290.855 537.805 294.946C537.968 296.036 536.493 298.073 536.941 299.045C537.094 299.376 540.297 301.27 540.915 302.148C543.158 305.337 542.717 309.215 541.867 312.654C537.469 330.469 521.837 343.477 510.341 356.618C515.484 355.645 519.297 352.714 524.152 351.261C528.709 349.898 533.29 349.969 537.883 349.578C542.692 349.169 547.311 347.369 552.231 347.278C557.394 347.182 562.337 348.652 567.457 349.235Z" fill="black"/>
<path fill-rule="evenodd" clip-rule="evenodd" d="M23.7365 189C20.9015 190.853 20.1024 192.671 20.0045 196.946C19.9653 198.699 20.0862 205.24 22.5366 204.993C24.8361 204.762 23.7365 191.249 23.7365 189ZM9.09169 199.653C10.4127 185.952 15.4253 172.021 27.2172 163.484C30.1334 161.373 33.4323 161.448 36.6284 160.116C38.5492 159.316 41.5839 155.596 43.7646 156.036C51.7919 157.66 42.5179 168.326 41.1598 171.132C36.9511 179.825 37.2353 187.463 37.361 196.841C37.4567 203.968 38.9376 215.983 35.3445 222.434C31.5144 229.303 23.2071 224.842 18.57 220.777C12.7177 215.644 8.29769 207.471 9.09169 199.653Z" fill="black"/>
<path fill-rule="evenodd" clip-rule="evenodd" d="M150.01 240.142C150.01 247.787 156.215 242.611 155.994 237.173C155.669 229.167 149.72 234.097 150.01 240.142ZM182.999 197.876C176.208 203.984 170.969 207.411 169.66 216.803C168.669 223.917 169.654 230.963 169.696 238.129C169.767 250.141 160.067 262.769 149.629 249C142.015 238.957 144.746 223.165 150.955 213.071C154.213 207.776 158.864 202.537 164.237 199.237C168.278 196.753 179.646 191.866 182.999 197.876Z" fill="black"/>
<path fill-rule="evenodd" clip-rule="evenodd" d="M88.1511 383C87.3641 384.863 85.5151 392.469 89.2871 390.749C92.6161 389.229 90.4591 384.187 88.1511 383ZM68.2241 359.517C67.6421 356.657 67.8791 338.727 72.8181 340.072C76.6971 341.126 77.3381 350.304 78.9181 353.498C84.8031 365.393 98.3101 372.8 102.968 385.077C108.167 398.787 92.4481 399.213 84.1071 393.661C74.2311 387.087 68.5171 370.99 68.2241 359.517Z" fill="black"/>
<path fill-rule="evenodd" clip-rule="evenodd" d="M56.1171 286C58.2601 283.106 58.4771 281.56 57.2551 279C55.6931 280.699 55.9701 283.127 56.1171 286ZM57.6681 298.945C46.4941 300.196 45.9348 279.605 47.8481 272.535C49.3721 266.904 52.6481 260.854 56.0211 256.266C56.7021 255.34 63.1621 247.021 64.4281 247.001C69.2881 246.924 67.9531 252.415 67.4281 254.459C65.7771 260.899 65.1231 266.281 65.5671 273.421C66.0441 281.061 69.6621 299.199 57.6681 298.945Z" fill="black"/>
<path fill-rule="evenodd" clip-rule="evenodd" d="M565 120.618C549.023 134.017 533.855 148.523 516.482 160.243C507.981 165.979 499.094 171.053 490.611 176.882C486.291 179.851 481.883 182.509 477.09 184.691C472.856 186.619 470.088 186.87 473.601 182.294C475.949 179.237 481.212 177.107 484.411 174.934C489.333 171.587 493.982 167.875 499.16 164.906C508.288 159.669 517.361 155.441 525.775 149.019C533.244 143.32 540.949 137.756 548.077 131.699C551.134 129.102 561.269 117.178 565 120.618Z" fill="black"/>
<path fill-rule="evenodd" clip-rule="evenodd" d="M565.323 169C572.508 175.146 554.531 191.984 550.431 195.8C546.108 199.825 541.347 203.415 536.645 206.98C534.99 208.236 525.96 216.639 523.668 215.961C519.146 214.622 525.083 209.17 526.627 207.749C531.62 203.145 536.72 198.677 541.602 193.949C546.005 189.689 550.773 185.744 555.031 181.346C558.48 177.783 561.378 171.746 565.323 169Z" fill="black"/>
<path fill-rule="evenodd" clip-rule="evenodd" d="M32.9995 416.756C31.1235 412.409 27.7637 417.235 29.467 419.406C31.0779 421.461 32.7596 417.591 32.9995 416.756ZM21.9995 408.172C23.0052 401.78 25.3294 398.228 31.3259 403.684C35.4464 407.433 43.7336 418.094 42.9472 423.906C41.915 431.529 33.5188 429.366 29.1664 425.38C24.7051 421.294 22.7356 413.84 21.9995 408.172Z" fill="black"/>
<path fill-rule="evenodd" clip-rule="evenodd" d="M35.1399 533.975C27.7941 533.416 21.5271 527.776 18.4076 521.167C15.7829 515.609 13.2986 506.65 22.5197 509.571C28.5295 511.476 51.697 534.871 35.1399 533.975Z" fill="black"/>
<path fill-rule="evenodd" clip-rule="evenodd" d="M124.164 497.74C118.487 499.033 112.872 495.294 109.381 491.078C107.209 488.452 102.154 479.247 104.701 475.458C108.251 470.173 113.611 480.796 115.46 482.899C118.36 486.192 127.844 492.49 124.164 497.74Z" fill="black"/>
<path fill-rule="evenodd" clip-rule="evenodd" d="M129.277 354C124.827 351.935 120.696 349.449 118.906 344.517C117.768 341.376 116.812 331.957 121.866 332C127.712 332.052 141.098 353.057 129.277 354Z" fill="black"/>
<path fill-rule="evenodd" clip-rule="evenodd" d="M98.0791 256.003C104.037 255.895 105.448 259.181 106.276 263.902C106.839 267.106 109.568 277.983 106.734 280.211C102.684 283.395 96.2411 276.1 94.9391 273.236C92.2551 267.34 95.9661 261.541 98.0791 256.003Z" fill="black"/>
<path fill-rule="evenodd" clip-rule="evenodd" d="M200.458 582.138C203.359 583.458 209.959 586.385 207.437 590.927C204.8 595.677 197.229 591.061 194.401 588.985C193.217 588.116 185.695 582.428 186.01 580.521C186.673 576.467 197.042 581.757 200.458 582.138Z" fill="black"/>
<path fill-rule="evenodd" clip-rule="evenodd" d="M9.3264 285.508C11.3088 290.472 13.5403 307.526 3.1011 298.317C-0.0845985 295.506 -0.5654 291.996 0.5322 288.137C2.1193 282.545 4.429 283.654 9.3264 285.508Z" fill="black"/>
<path fill-rule="evenodd" clip-rule="evenodd" d="M562.538 222C560.226 217.277 565.933 214.231 568.983 211.187C570.974 209.199 579.347 198.416 582.092 199.025C587.739 200.278 565.314 219.894 562.538 222Z" fill="black"/>
<path fill-rule="evenodd" clip-rule="evenodd" d="M98.0039 564.086C103.451 563.212 104.722 569.262 108.231 571.899C109.736 573.031 114.902 574.025 113.863 576.427C111.133 582.733 97.7369 568.326 98.0039 564.086Z" fill="black"/>
<path fill-rule="evenodd" clip-rule="evenodd" d="M144 421.192C147.744 419.625 158.55 428.043 155.447 431.68C150.809 437.121 144.264 424.169 144 421.192Z" fill="black"/>
<path fill-rule="evenodd" clip-rule="evenodd" d="M222.917 542.986C220.188 543.257 208.671 539.637 212.938 534.79C215.934 531.385 223.896 539.904 222.917 542.986Z" fill="black"/>
<path fill-rule="evenodd" clip-rule="evenodd" d="M85 519.728C82.291 520.811 72.519 518.583 75.591 514.339C78.518 510.299 85.004 516.374 85 519.728Z" fill="black"/>
<path fill-rule="evenodd" clip-rule="evenodd" d="M165 538.037C168.168 537.708 170.456 539.618 171 542.852C167.038 543.417 165.816 542.475 165 538.037Z" fill="black"/>
<path fill-rule="evenodd" clip-rule="evenodd" d="M577 68.4907C578.338 68.4967 579.674 68.5037 581 68.5097C579.66 68.5027 578.331 68.4967 577 68.4907Z" fill="black"/>
<path fill-rule="evenodd" clip-rule="evenodd" d="M556 346.996C553.999 346.998 551.999 347.002 550 347.004C552.001 347 554.001 346.998 556 346.996Z" fill="black"/>
<path fill-rule="evenodd" clip-rule="evenodd" d="M283.139 21C283.047 23.0023 282.955 25.0046 282.861 27C282.951 24.996 283.045 22.9971 283.139 21Z" fill="black"/>
<path fill-rule="evenodd" clip-rule="evenodd" d="M902.806 361C903.444 363.225 902.51 363.594 900 362.106C900.934 361.737 901.87 361.369 902.806 361Z" fill="black"/>
<path fill-rule="evenodd" clip-rule="evenodd" d="M846 535.491C847.004 535.497 848.007 535.504 849 535.51C847.993 535.504 846.997 535.497 846 535.491Z" fill="black"/>
<path fill-rule="evenodd" clip-rule="evenodd" d="M656 374.525C654.323 375.803 652.655 375.983 651 374.457C652.667 374.481 654.333 374.503 656 374.525Z" fill="black"/>
<path fill-rule="evenodd" clip-rule="evenodd" d="M618.564 204C618.522 205.669 618.479 207.337 618.435 209C618.477 207.329 618.521 205.664 618.564 204Z" fill="black"/>
<path fill-rule="evenodd" clip-rule="evenodd" d="M705 49.6997C703.333 49.6987 701.665 49.6967 700 49.6947C701.668 49.0707 703.335 49.2757 705 49.6997Z" fill="black"/>
<path fill-rule="evenodd" clip-rule="evenodd" d="M216 29.353C214.334 29.451 212.666 29.549 211 29.647C212.666 29.549 214.334 29.451 216 29.353Z" fill="black"/>
<path fill-rule="evenodd" clip-rule="evenodd" d="M257 29.6701C255.667 29.5571 254.332 29.4431 253 29.3301C254.332 29.4431 255.665 29.5571 257 29.6701Z" fill="black"/>
<path fill-rule="evenodd" clip-rule="evenodd" d="M279 31.2549C277.667 31.7519 276.334 32.0459 275 31.2619C276.334 31.2599 277.667 31.2569 279 31.2549Z" fill="black"/>
<path fill-rule="evenodd" clip-rule="evenodd" d="M160 33.9932C158.332 34.3322 156.666 34.6712 155 35.0072C156.668 34.6712 158.334 34.3322 160 33.9932Z" fill="black"/>
<path fill-rule="evenodd" clip-rule="evenodd" d="M619.568 441C619.522 442.002 619.476 443.003 619.432 444C619.479 442.997 619.523 441.998 619.568 441Z" fill="black"/>
<path fill-rule="evenodd" clip-rule="evenodd" d="M68.4719 360C68.4919 360.668 68.5109 361.336 68.5289 362C68.5069 361.33 68.4909 360.665 68.4719 360Z" fill="black"/>
<path fill-rule="evenodd" clip-rule="evenodd" d="M909 356.412L904 356.438C905.663 355.196 907.33 355.354 909 356.412Z" fill="black"/>
<path fill-rule="evenodd" clip-rule="evenodd" d="M567 349.33C565.665 349.11 564.332 348.89 563 348.67C564.332 348.89 565.667 349.11 567 349.33Z" fill="black"/>
<path fill-rule="evenodd" clip-rule="evenodd" d="M201 581.987C199.333 581.663 197.667 581.337 196 581.013L201 581.987Z" fill="black"/>
<path fill-rule="evenodd" clip-rule="evenodd" d="M537.546 295C537.515 293.999 537.484 292.998 537.454 292C537.484 293.001 537.515 294.001 537.546 295Z" fill="black"/>
<path fill-rule="evenodd" clip-rule="evenodd" d="M221 29.6844C220 29.5614 218.999 29.4384 218 29.3154C218.999 29.4384 220 29.5614 221 29.6844Z" fill="black"/>
<path fill-rule="evenodd" clip-rule="evenodd" d="M385 4.95441C384 4.65141 382.999 4.34841 382 4.04541C383 4.34841 384 4.65141 385 4.95441Z" fill="black"/>
<path fill-rule="evenodd" clip-rule="evenodd" d="M504 679.439C504.669 679.48 505.339 679.521 506 679.561C505.328 679.52 504.663 679.479 504 679.439Z" fill="black"/>
<path fill-rule="evenodd" clip-rule="evenodd" d="M45 142.46C46.004 142.486 47.008 142.513 48 142.54C46.991 142.513 45.9955 142.486 45 142.46Z" fill="black"/>
<path fill-rule="evenodd" clip-rule="evenodd" d="M716 50.6762C714.333 50.5592 712.667 50.4422 711 50.3242C712.668 50.4422 714.333 50.5592 716 50.6762Z" fill="black"/>
<path fill-rule="evenodd" clip-rule="evenodd" d="M189 45.9941C186.661 45.9981 184.325 46.0021 182 46.0061C184.344 46.0021 186.672 45.9981 189 45.9941Z" fill="black"/>
<path fill-rule="evenodd" clip-rule="evenodd" d="M661.452 252C661.482 253.669 661.515 255.338 661.548 257C661.518 255.33 661.488 253.664 661.452 252Z" fill="black"/>
<path fill-rule="evenodd" clip-rule="evenodd" d="M539 610.032C537.662 610.012 536.327 609.99 535 609.968C536.34 609.986 537.67 610.01 539 610.032Z" fill="black"/>
<path fill-rule="evenodd" clip-rule="evenodd" d="M681 80.1938C683 79.9718 684.999 79.7498 687 79.5278C685.08 81.2258 683.007 80.0958 681 80.1938Z" fill="black"/>
<path fill-rule="evenodd" clip-rule="evenodd" d="M528 610.555C526.997 610.517 525.995 610.48 525 610.444C526.007 610.482 527.003 610.518 528 610.555Z" fill="black"/>
<path fill-rule="evenodd" clip-rule="evenodd" d="M493.424 628C493.474 629.67 493.525 631.338 493.576 633C493.527 631.327 493.475 629.664 493.424 628Z" fill="black"/>
<path fill-rule="evenodd" clip-rule="evenodd" d="M646 141.598C647.334 141.474 648.667 141.35 650 141.227C648.783 142.165 647.354 141.616 646 141.598Z" fill="black"/>
<path fill-rule="evenodd" clip-rule="evenodd" d="M209 407.633C210.333 407.879 211.668 408.123 213 408.367C211.667 408.123 210.333 407.879 209 407.633Z" fill="black"/>
<path fill-rule="evenodd" clip-rule="evenodd" d="M417 144.504C418.664 143.086 420.331 143.24 422 144.488C420.333 144.492 418.667 144.498 417 144.504Z" fill="black"/>
<path fill-rule="evenodd" clip-rule="evenodd" d="M354.427 195C354.475 194.333 354.522 193.666 354.573 193C354.527 193.668 354.477 194.334 354.427 195Z" fill="black"/>
<path fill-rule="evenodd" clip-rule="evenodd" d="M645.479 176C645.493 177.336 645.506 178.671 645.521 180C645.508 178.661 645.494 177.331 645.479 176Z" fill="black"/>
<path fill-rule="evenodd" clip-rule="evenodd" d="M204.284 385.031C206.478 385.775 210.891 388.022 213.448 387.724C215.495 387.485 217.182 384.997 219.156 385C224.471 385.007 223.485 391.151 220.917 394.449C213.972 403.371 198.453 393.697 204.284 385.031Z" fill="black"/>
<path fill-rule="evenodd" clip-rule="evenodd" d="M225.977 353C233.225 354.871 229.615 370.814 223.522 371.91C216.348 373.202 215.098 360.238 216.515 355.552C220.207 357.746 217.921 365.572 222.574 363.409C225.533 362.032 225.083 355.666 225.977 353Z" fill="black"/>
</svg>
